SplineFontDB: 3.0
FontName: Boon-Book-Italic
FullName: Boon Book Italic
FamilyName: Boon
Weight: Book
Copyright: Copyright (C) 2013 Sungsit Sawaiwan <http://sungsit.com/> \n\nThis font is free software: you can redistribute it and/or modify it under the terms of the GNU General Public License as published by the Free Software Foundation, either version 3 of the License, or (at your option) any later version. \n\nThis font is distributed in the hope that it will be useful, but WITHOUT ANY WARRANTY; without even the implied warranty of MERCHANTABILITY or FITNESS FOR A PARTICULAR PURPOSE. See the GNU General Public License for more details. \n\nYou should have received a copy of the GNU General Public License along with this program. If not, see <http://www.gnu.org/licenses/>. \n\nAs a special exception, if you create a document which uses this font, and embed this font or unaltered portions of this font into the document, this font does not by itself cause the resulting document to be covered by the GNU General Public License. This exception does not however invalidate any other reasons why the document might be covered by the GNU General Public License. If you modify this font, you may extend this exception to your version of the font, but you are not obligated to do so. If you do not wish to do so, delete this exception statement from your version.
UComments: "Created with FontForge 2.0 <http://fontforge.org/>" 
Version: 0.4
ItalicAngle: -12
UnderlinePosition: -60
UnderlineWidth: 20
Ascent: 860
Descent: 340
woffMajor: 0
woffMinor: 4
LayerCount: 2
Layer: 0 0 "Back"  1
Layer: 1 0 "Fore"  0
FSType: 8
OS2Version: 0
OS2_WeightWidthSlopeOnly: 0
OS2_UseTypoMetrics: 1
CreationTime: 1369324892
ModificationTime: 1373862492
PfmFamily: 33
TTFWeight: 400
TTFWidth: 5
LineGap: 108
VLineGap: 0
Panose: 2 0 8 3 0 0 0 0 0 0
OS2TypoAscent: 0
OS2TypoAOffset: 1
OS2TypoDescent: 0
OS2TypoDOffset: 1
OS2TypoLinegap: 108
OS2WinAscent: 0
OS2WinAOffset: 1
OS2WinDescent: 0
OS2WinDOffset: 1

StartChar: uni0E04
Encoding: 3588 3588 0
Width: 591
VWidth: 0
Flags: W
HStem: 0 21G<101 216.5 431 523.247> 227 55<324.348 398.19> 372 55<332.404 406.805> 527 85<324.049 482.035>
VStem: 408 53<290.427 371.033> 515 90<335.665 491.965>
LayerCount: 2
Fore
SplineSet
426 612 m 0
 531 612 605 552 605 438 c 0
 605 418 603 396 598 372 c 2
 519 0 l 1
 431 0 l 1
 510 372 l 2
 514 389 515 404 515 418 c 0
 515 491 469 527 408 527 c 0
 335 527 257 471 236 372 c 0
 227 330 221 274 220 240 c 1
 239 284 262 343 292 377 c 0
 317 407 352 427 387 427 c 0
 431 427 461 394 461 349 c 0
 461 342 461 335 459 327 c 0
 447 272 395 227 344 227 c 0
 320 227 300 237 287 253 c 1
 247 171 225 79 208 0 c 1
 101 0 l 1
 114 38 123 69 128 96 c 0
 148 213 125 252 152 372 c 0
 182 505 302 612 426 612 c 0
375 372 m 0
 352 372 329 352 324 327 c 0
 323 324 323 320 323 317 c 0
 323 297 336 282 356 282 c 0
 379 282 402 302 407 327 c 0
 408 330 408 334 408 337 c 0
 408 357 395 372 375 372 c 0
EndSplineSet
EndChar

StartChar: uni0E05
Encoding: 3589 3589 2
Width: 591
VWidth: 0
Flags: W
HStem: 0 21G<101 216.5 431 523.286> 227 55<324.348 398.19> 372 55<332.404 406.805>
VStem: 408 53<290.427 371.033> 519 92<356.209 518.478>
LayerCount: 2
Fore
SplineSet
515 615 m 1
 578 594 611 539 611 462 c 0
 611 441 608 417 603 392 c 2
 519 0 l 1
 431 0 l 1
 514 392 l 2
 517 408 519 424 519 438 c 0
 519 475 508 506 491 523 c 1
 393 458 l 1
 323 523 l 1
 283 499 253 451 240 392 c 0
 230 343 222 279 221 240 c 1
 239 283 264 344 292 377 c 0
 317 407 352 427 387 427 c 0
 431 427 461 394 461 349 c 0
 461 342 461 335 459 327 c 0
 447 272 395 227 344 227 c 0
 320 227 300 237 287 253 c 1
 247 171 225 79 208 0 c 1
 101 0 l 1
 114 38 123 69 128 96 c 0
 149 216 127 262 156 392 c 0
 178 492 247 581 347 612 c 1
 411 543 l 1
 515 615 l 1
375 372 m 0
 352 372 329 352 324 327 c 0
 323 324 323 320 323 317 c 0
 323 297 336 282 356 282 c 0
 379 282 402 302 407 327 c 0
 408 330 408 334 408 337 c 0
 408 357 395 372 375 372 c 0
EndSplineSet
EndChar

StartChar: uni0E14
Encoding: 3604 3604 3
Width: 591
VWidth: 0
Flags: W
HStem: 0 21G<101 210.5 431 523.247> 372 55<331.886 406.805> 527 85<324.188 482.035>
VStem: 270 53<283.104 363.573> 408 53<291.936 371.033> 515 90<335.665 491.965>
LayerCount: 2
Fore
SplineSet
426 612 m 0
 531 612 605 552 605 438 c 0
 605 418 603 396 598 372 c 2
 519 0 l 1
 431 0 l 1
 510 372 l 2
 514 389 515 404 515 418 c 0
 515 491 469 527 408 527 c 0
 335 527 258 471 236 372 c 0
 225 324 222 281 222 240 c 0
 222 205 225 171 226 138 c 1
 262 166 300 195 329 228 c 1
 294 235 270 265 270 304 c 0
 270 311 271 319 273 327 c 0
 285 382 336 427 387 427 c 0
 431 427 461 394 461 349 c 0
 461 342 461 335 459 327 c 0
 426 172 220 88 201 0 c 1
 101 0 l 1
 114 38 123 69 128 96 c 0
 148 213 125 252 152 372 c 0
 182 505 302 612 426 612 c 0
375 372 m 0
 352 372 329 352 324 327 c 0
 323 324 323 320 323 317 c 0
 323 297 336 282 356 282 c 0
 379 282 402 302 407 327 c 0
 408 330 408 334 408 337 c 0
 408 357 395 372 375 372 c 0
EndSplineSet
EndChar

StartChar: uni0E15
Encoding: 3605 3605 4
Width: 591
VWidth: 0
Flags: W
HStem: 0 21G<101 210.5 431 523.286> 372 55<331.886 406.805>
VStem: 270 53<283.104 363.573> 408 53<291.936 371.033> 519 92<356.209 518.478>
LayerCount: 2
Fore
SplineSet
515 615 m 1
 578 594 611 539 611 462 c 0
 611 441 608 417 603 392 c 2
 519 0 l 1
 431 0 l 1
 514 392 l 2
 517 408 519 424 519 438 c 0
 519 475 508 506 491 523 c 1
 393 458 l 1
 323 523 l 1
 283 499 253 451 240 392 c 0
 227 332 223 280 223 233 c 0
 223 199 225 168 226 138 c 1
 262 166 300 195 329 228 c 1
 294 235 270 265 270 304 c 0
 270 311 271 319 273 327 c 0
 285 382 336 427 387 427 c 0
 431 427 461 394 461 349 c 0
 461 342 461 335 459 327 c 0
 426 172 220 88 201 0 c 1
 101 0 l 1
 114 38 123 69 128 96 c 0
 149 216 127 262 156 392 c 0
 178 492 247 581 347 612 c 1
 411 543 l 1
 515 615 l 1
375 372 m 0
 352 372 329 352 324 327 c 0
 323 324 323 320 323 317 c 0
 323 297 336 282 356 282 c 0
 379 282 402 302 407 327 c 0
 408 330 408 334 408 337 c 0
 408 357 395 372 375 372 c 0
EndSplineSet
EndChar

StartChar: uni0E01
Encoding: 3585 3585 5
Width: 564
VWidth: 0
Flags: W
HStem: 0 21G<92 189.276 399 496.247> 527 85<300.768 454.942>
VStem: 484 94<335.665 496.39>
LayerCount: 2
Fore
SplineSet
399 612 m 0
 504 612 578 552 578 438 c 0
 578 418 576 396 571 372 c 2
 492 0 l 1
 399 0 l 1
 478 372 l 2
 482 390 484 406 484 421 c 0
 484 492 442 527 381 527 c 0
 327 527 270 493 241 440 c 1
 329 415 l 1
 329 415 260 352 247 290 c 2
 185 0 l 1
 92 0 l 1
 149 270 l 2
 167 354 221 390 221 390 c 1
 133 410 l 1
 178 500 277 612 399 612 c 0
EndSplineSet
EndChar

StartChar: uni0E16
Encoding: 3606 3606 6
Width: 564
VWidth: 0
Flags: W
HStem: -6 70<178.995 247.951> 144 70<230 253.345> 527 85<300.768 454.942>
VStem: 111 67<65.5805 137.676> 255 67<71.197 142.42> 484 94<335.665 496.39>
LayerCount: 2
Fore
SplineSet
230 214 m 1
 240 214 l 2
 289 214 322 178 322 129 c 0
 322 121 321 113 319 104 c 0
 306 43 250 -6 193 -6 c 0
 144 -6 111 30 111 79 c 0
 111 87 112 95 114 104 c 2
 149 270 l 2
 167 354 221 390 221 390 c 1
 133 410 l 1
 178 500 277 612 399 612 c 0
 504 612 578 552 578 438 c 0
 578 418 576 396 571 372 c 2
 492 0 l 1
 399 0 l 1
 478 372 l 2
 482 390 484 406 484 421 c 0
 484 492 442 527 381 527 c 0
 327 527 270 493 241 440 c 1
 329 415 l 1
 329 415 260 352 247 290 c 2
 230 214 l 1
225 144 m 0
 205 144 184 126 179 104 c 0
 178 101 178 98 178 95 c 0
 178 77 191 64 208 64 c 0
 228 64 249 82 254 104 c 0
 255 107 255 110 255 113 c 0
 255 131 242 144 225 144 c 0
EndSplineSet
EndChar

StartChar: uni0E28
Encoding: 3624 3624 7
Width: 602
VWidth: 0
Flags: W
HStem: 0 21G<101 216.5 431 523.247> 227 55<324.348 398.19> 372 55<332.404 406.805> 527 85<324.049 482.431>
VStem: 408 53<290.427 371.033> 515 91<336.083 494.537> 627 93<618.036 680>
LayerCount: 2
Fore
SplineSet
627 680 m 1
 720 680 l 1
 702 594 647 540 595 507 c 1
 602 488 606 465 606 441 c 0
 606 420 603 397 598 372 c 2
 519 0 l 1
 431 0 l 1
 510 372 l 2
 514 389 515 404 515 418 c 0
 515 491 469 527 408 527 c 0
 335 527 257 471 236 372 c 0
 227 330 221 274 220 240 c 1
 239 284 262 343 292 377 c 0
 317 407 352 427 387 427 c 0
 431 427 461 394 461 349 c 0
 461 342 461 335 459 327 c 0
 447 272 395 227 344 227 c 0
 320 227 300 237 287 253 c 1
 247 171 225 79 208 0 c 1
 101 0 l 1
 114 38 123 69 128 96 c 0
 148 213 125 252 152 372 c 0
 182 505 302 612 426 612 c 0
 479 612 525 597 557 567 c 1
 591 596 617 633 627 680 c 1
375 372 m 0
 352 372 329 352 324 327 c 0
 323 324 323 320 323 317 c 0
 323 297 336 282 356 282 c 0
 379 282 402 302 407 327 c 0
 408 330 408 334 408 337 c 0
 408 357 395 372 375 372 c 0
EndSplineSet
Substitution2: "Ascent Substitute" uni0E28.alt
EndChar

StartChar: uni0E20
Encoding: 3616 3616 8
Width: 583
VWidth: 0
Flags: W
HStem: -6 70<114.483 182.951> 144 70<120.697 184> 527 85<319.768 473.942>
VStem: 46 68<65.5805 136.803> 503 94<335.665 496.39>
LayerCount: 2
Fore
SplineSet
418 612 m 0
 523 612 597 552 597 438 c 0
 597 418 595 396 590 372 c 2
 511 0 l 1
 418 0 l 1
 497 372 l 2
 501 390 503 406 503 421 c 0
 503 492 461 527 400 527 c 0
 346 527 289 493 260 440 c 1
 367 415 l 1
 367 415 308 352 294 290 c 1
 254 104 l 2
 241 43 185 -6 128 -6 c 0
 79 -6 46 30 46 79 c 0
 46 87 47 95 49 104 c 0
 62 165 118 214 175 214 c 2
 184 214 l 1
 196 270 l 2
 214 354 259 390 259 390 c 1
 152 410 l 1
 197 500 296 612 418 612 c 0
160 144 m 0
 140 144 120 126 115 104 c 0
 114 101 114 98 114 95 c 0
 114 77 126 64 143 64 c 0
 163 64 184 82 189 104 c 0
 190 107 190 110 190 113 c 0
 190 131 177 144 160 144 c 0
EndSplineSet
EndChar

StartChar: uni0E48
Encoding: 3656 3656 9
Width: 1
VWidth: 0
Flags: W
HStem: 950 230
VStem: 33 115
LayerCount: 2
Fore
SplineSet
73 1180 m 1
 148 1180 l 1
 99 950 l 1
 33 990 l 1
 73 1180 l 1
EndSplineSet
Position2: "Nikhahit & Tone High-Left" dx=-180 dy=0 dh=0 dv=0
Position2: "Mai Han-Akat & Tone High-Left" dx=-220 dy=0 dh=0 dv=0
Position2: "Tone High-Left" dx=-140 dy=0 dh=0 dv=0
MultipleSubs2: "Tone High-Low" uni0E48.low
EndChar

StartChar: uni0E34
Encoding: 3636 3636 10
Width: 8
VWidth: 0
Flags: W
HStem: 760 30<-198 -123.3> 840 70<-177.838 -39.6062>
VStem: -312 388
LayerCount: 2
Fore
SplineSet
-98 910 m 0
 28 910 75 808 76 660 c 1
 -67 741 -125 760 -312 760 c 1
 -270 844 -203 910 -98 910 c 0
-113 840 m 0
 -144 840 -180 820 -198 790 c 1
 -131 790 -55 770 8 733 c 1
 -12 821 -75 840 -113 840 c 0
EndSplineSet
Position2: "Vowel Above-Left" dx=-140 dy=0 dh=0 dv=0
EndChar

StartChar: uni0E38
Encoding: 3640 3640 11
Width: 3
VWidth: 0
Flags: W
HStem: -250 55<-229.646 -194> -125 55<-225.561 -162.354>
VStem: -282 52<-194.729 -128.914> -162 52<-191.024 -125.271>
LayerCount: 2
Fore
SplineSet
-177 -70 m 0
 -137 -70 -110 -100 -110 -140 c 0
 -110 -146 -110 -153 -112 -160 c 2
 -151 -340 l 1
 -225 -340 l 1
 -206 -249 l 1
 -209 -250 -212 -250 -215 -250 c 0
 -255 -250 -282 -220 -282 -180 c 0
 -282 -174 -282 -167 -280 -160 c 0
 -269 -110 -223 -70 -177 -70 c 0
-189 -125 m 0
 -207 -125 -225 -141 -229 -160 c 0
 -230 -162 -230 -165 -230 -167 c 0
 -230 -183 -219 -195 -203 -195 c 0
 -185 -195 -167 -179 -163 -160 c 0
 -162 -158 -162 -155 -162 -153 c 0
 -162 -137 -173 -125 -189 -125 c 0
EndSplineSet
Position2: "Vowel Below-Low" dx=0 dy=-200 dh=0 dv=0
EndChar

StartChar: uni0E35
Encoding: 3637 3637 12
Width: 8
VWidth: 0
Flags: W
HStem: 740 30<-221 -146.057> 820 70<-199.484 -59.9924>
LayerCount: 2
Fore
SplineSet
30 920 m 1
 107 890 l 1
 54 640 l 1
 -89 721 -147 740 -334 740 c 1
 -292 824 -230 890 -130 890 c 0
 -30 890 1 820 25 745 c 1
 19 773 15 797 15 823 c 0
 15 841 17 859 21 880 c 2
 30 920 l 1
-136 820 m 0
 -167 820 -203 800 -221 770 c 1
 -154 770 -65 742 -2 705 c 1
 -35 798 -89 820 -136 820 c 0
EndSplineSet
Position2: "Vowel Above-Left" dx=-140 dy=0 dh=0 dv=0
EndChar

StartChar: uni0E48.low
Encoding: 63237 63237 13
Width: 1
VWidth: 0
Flags: W
HStem: 690 240<16 48>
VStem: -35 134
LayerCount: 2
Fore
SplineSet
16 930 m 1
 99 930 l 1
 48 690 l 1
 -35 690 l 1
 16 930 l 1
EndSplineSet
Position2: "Tone Low-Left" dx=-160 dy=0 dh=0 dv=0
Substitution2: "Tone Low-High" uni0E48
EndChar

StartChar: uni0E49.low
Encoding: 63238 63238 14
Width: 7
VWidth: 0
Flags: W
HStem: 700 55<-90 -3.45407> 700 45<-201.138 -169> 890 50<-123.176 -68.6212>
VStem: 76 79<842.346 910>
LayerCount: 2
Fore
SplineSet
-80 940 m 0x70
 -45 940 -21 913 -21 878 c 0
 -21 872 -22 866 -23 860 c 0
 -35 803 -90 755 -90 755 c 1xb0
 -13 755 54 806 76 910 c 1
 155 910 l 1
 127 780 47 700 -102 700 c 2
 -180 700 l 2
 -215 700 -215 745 -215 745 c 1
 -169 751 l 2
 -152 753 -138 762 -129 782 c 1
 -156 788 -174 812 -174 843 c 0
 -174 848 -173 854 -172 860 c 0
 -163 904 -121 940 -80 940 c 0x70
-91 890 m 0
 -107 890 -121 877 -125 860 c 0
 -129 843 -120 830 -104 830 c 0
 -88 830 -73 843 -69 860 c 0
 -65 877 -75 890 -91 890 c 0
EndSplineSet
Position2: "Tone Low-Left" dx=-180 dy=0 dh=0 dv=0
Substitution2: "Tone Low-High" uni0E49
EndChar

StartChar: uni0E4A.low
Encoding: 63239 63239 15
Width: 7
VWidth: 0
Flags: W
HStem: 700 46<-196.202 -142.777 -62 -54.594> 806 44<-178.546 -139.603> 890 46<-171.115 -108.261>
VStem: -250 155<734 776 792 839.23> -33 60<760.435 888.706> 80 71<839.801 930>
LayerCount: 2
Fore
SplineSet
-132 936 m 0
 -102 936 -84 918 -76 896 c 1
 -41 936 l 1
 -13 936 l 1
 12 925 27 890 27 850 c 0
 27 839 25 827 23 816 c 0
 15 778 1 760 1 760 c 1
 28 780 54 808 80 930 c 1
 151 930 l 1
 129 834 98 704 -62 704 c 1
 -72 740 l 1
 -55 740 -48 776 -39 816 c 0
 -35 834 -33 849 -33 861 c 0
 -33 876 -36 886 -42 890 c 1
 -76 852 l 1
 -104 852 l 1
 -104 853 -104 853 -104 854 c 0
 -104 865 -119 890 -140 890 c 0
 -159 890 -174 870 -179 846 c 1
 -169 848 -161 850 -152 850 c 0
 -118 850 -95 825 -95 792 c 0
 -95 787 -96 782 -97 776 c 0
 -106 734 -145 700 -184 700 c 0
 -215 700 -250 718 -250 775 c 0
 -250 786 -249 798 -246 812 c 0
 -232 878 -182 936 -132 936 c 0
-162 806 m 0
 -177 806 -193 792 -196 776 c 0
 -200 758 -189 746 -174 746 c 0
 -157 746 -144 758 -140 776 c 0
 -137 792 -145 806 -162 806 c 0
EndSplineSet
Position2: "Tone Low-Left" dx=-180 dy=0 dh=0 dv=0
Substitution2: "Tone Low-High" uni0E4A
EndChar

StartChar: uni0E4B.low
Encoding: 63240 63240 16
Width: 5
VWidth: 0
Flags: W
HStem: 780 60<-76 -10 86 153>
VStem: -89 255
LayerCount: 2
Fore
SplineSet
22 930 m 1
 106 930 l 1
 86 840 l 1
 166 840 l 1
 153 780 l 1
 74 780 l 1
 55 690 l 1
 -29 690 l 1
 -10 780 l 1
 -89 780 l 1
 -76 840 l 1
 3 840 l 1
 22 930 l 1
EndSplineSet
Position2: "Tone Low-Left" dx=-210 dy=0 dh=0 dv=0
Substitution2: "Tone Low-High" uni0E4B
EndChar

StartChar: uni0E4C.low
Encoding: 63241 63241 17
Width: 4
VWidth: 0
Flags: W
HStem: 690 45<-76.1518 -16.2509>
VStem: -125 48<735.165 799.677> -10 42<742.058 804.306> 64 83<923.215 970>
LayerCount: 2
Fore
SplineSet
64 970 m 1
 147 970 l 1
 126 914 89 862 20 827 c 1
 28 816 32 803 32 788 c 0
 32 782 31 776 30 770 c 0
 21 726 -20 690 -61 690 c 0
 -97 690 -125 714 -125 752 c 0
 -125 758 -124 764 -123 770 c 0
 -98 886 33 858 64 970 c 1
-36 805 m 0
 -54 805 -72 789 -76 770 c 0
 -77 767 -77 765 -77 762 c 0
 -77 747 -67 735 -51 735 c 0
 -33 735 -15 751 -11 770 c 0
 -10 773 -10 775 -10 778 c 0
 -10 793 -20 805 -36 805 c 0
EndSplineSet
Position2: "Tone Low-Left" dx=-120 dy=0 dh=0 dv=0
Substitution2: "Tone Low-High" uni0E4C
EndChar

StartChar: uni0E10.descless
Encoding: 63232 63232 18
Width: 527
VWidth: 0
Flags: W
HStem: 140 60<184.749 253.143> 280 60<191.134 258.881> 515 85<548.856 592> 537 75<287.455 448.429>
VStem: 127 57<201.729 274.188> 403 96<281.938 356.306>
LayerCount: 2
Fore
SplineSet
389 612 m 0xdc
 460 612 494 575 514 544 c 1
 538 571 581 600 610 600 c 1
 592 515 l 1xec
 563 515 519 486 496 459 c 1
 456 515 423 537 373 537 c 0
 304 537 252 491 245 459 c 1
 391 442 499 429 499 349 c 0
 499 341 498 333 496 325 c 2
 439 60 l 2
 426 -2 314 -6 314 -6 c 1
 324 40 l 2
 327 54 329 70 329 86 c 0
 329 126 319 169 298 199 c 1
 277 164 239 140 201 140 c 0
 157 140 127 173 127 218 c 0
 127 225 127 232 129 240 c 0
 141 295 192 340 243 340 c 0
 309 340 355 266 371 175 c 1
 402 320 l 2
 402 322 403 324 403 326 c 0
 403 385 213 387 139 395 c 1
 167 529 277 612 389 612 c 0xdc
230 280 m 0
 210 280 190 262 185 240 c 0
 184 237 184 234 184 231 c 0
 184 213 196 200 213 200 c 0
 233 200 254 218 259 240 c 0
 260 243 260 246 260 249 c 0
 260 267 247 280 230 280 c 0
EndSplineSet
EndChar

StartChar: uni0E0D.descless
Encoding: 63247 63247 19
Width: 787
VWidth: 0
Flags: W
HStem: -12 85<523.332 633.735> -6 70<178.995 247.951> 144 70<230 253.345> 527 85<300.768 454.942>
VStem: 111 67<65.5805 137.676> 255 67<71.197 142.42> 422 97<77.1856 229.469> 484 94<281.312 496.803>
LayerCount: 2
Fore
SplineSet
478 372 m 2xbe
 482 390 484 406 484 421 c 0
 484 492 442 527 381 527 c 0
 327 527 270 493 241 440 c 1
 329 415 l 1
 329 415 260 352 247 290 c 2
 230 214 l 1
 240 214 l 2
 289 214 322 178 322 129 c 0
 322 121 321 113 319 104 c 0
 306 43 250 -6 193 -6 c 0
 144 -6 111 30 111 79 c 0
 111 87 112 95 114 104 c 2
 149 270 l 2
 167 354 221 390 221 390 c 1
 133 410 l 1
 178 500 277 612 399 612 c 0
 504 612 578 552 578 438 c 0x7d
 578 418 576 396 571 372 c 2
 522 140 l 2
 520 132 519 124 519 116 c 0
 519 94 529 73 573 73 c 0
 633 73 646 112 652 140 c 2
 748 590 l 1
 841 590 l 1
 743 130 l 2
 735 92 707 -12 554 -12 c 0
 443 -12 422 43 422 88 c 0
 422 104 425 120 427 130 c 2
 478 372 l 2xbe
225 144 m 0
 205 144 184 126 179 104 c 0
 178 101 178 98 178 95 c 0
 178 77 191 64 208 64 c 0
 228 64 249 82 254 104 c 0
 255 107 255 110 255 113 c 0
 255 131 242 144 225 144 c 0
EndSplineSet
EndChar

StartChar: uni0E36
Encoding: 3638 3638 20
Width: 9
VWidth: 0
Flags: W
HStem: 740 30<-221 -144.716> 820 70<-199.745 -61.6054> 860 50<14.4922 82.8767>
VStem: 84 47<789.234 858.876>
LayerCount: 2
Fore
SplineSet
65 910 m 0xb0
 104 910 131 881 131 841 c 0
 131 834 131 827 129 820 c 0
 120 777 84 740 44 732 c 1
 51 704 54 673 54 640 c 1
 -89 721 -147 740 -334 740 c 1
 -292 824 -226 890 -126 890 c 0xd0
 -77 890 -54 877 -24 854 c 1
 -5 887 30 910 65 910 c 0xb0
54 860 m 0xb0
 34 860 13 842 8 820 c 0
 7 817 7 814 7 811 c 0
 7 793 20 780 37 780 c 0
 57 780 78 798 83 820 c 0xd0
 84 823 84 826 84 829 c 0
 84 847 71 860 54 860 c 0xb0
-136 820 m 0
 -167 820 -203 800 -221 770 c 1
 -154 770 -69 747 -6 710 c 1
 -39 803 -98 820 -136 820 c 0
EndSplineSet
Position2: "Vowel Above-Left" dx=-140 dy=0 dh=0 dv=0
EndChar

StartChar: uni0E37
Encoding: 3639 3639 21
Width: 8
VWidth: 0
Flags: W
HStem: 740 30<-221 -146.057> 820 70<-199.484 -81.5114> 940 20G<-82.4444 -32.6667>
LayerCount: 2
Fore
SplineSet
-78 960 m 1
 -10 930 l 1
 -28 848 l 1
 0 821 11 786 25 745 c 1
 21 764 19 780 19 797 c 0
 19 823 23 848 30 880 c 2
 39 920 l 1
 107 890 l 1
 54 640 l 1
 -89 721 -147 740 -334 740 c 1
 -292 824 -230 890 -130 890 c 0
 -96 890 -89 877 -81 872 c 1
 -84 879 -88 898 -88 909 c 0
 -88 911 -88 913 -88 915 c 2
 -78 960 l 1
-136 820 m 0
 -167 820 -203 800 -221 770 c 1
 -154 770 -65 742 -2 705 c 1
 -35 798 -89 820 -136 820 c 0
EndSplineSet
Position2: "Vowel Above-Left" dx=-140 dy=0 dh=0 dv=0
EndChar

StartChar: uni0E2D
Encoding: 3629 3629 22
Width: 564
VWidth: 0
Flags: W
HStem: -12 85<217.952 395.569> 190 65<216 281.721> 345 65<215.185 289.831> 527 85<304.085 460.627>
VStem: 114 92<88.0847 189.641> 156 98<434 480.505> 291 63<264.624 342.721> 487 96<367.431 500.722>
LayerCount: 2
Fore
SplineSet
408 612 m 0xf7
 528 612 583 542 583 453 c 0
 583 437 581 419 577 402 c 2
 531 188 l 2
 497 26 408 -12 284 -12 c 0
 181 -12 114 14 114 117 c 0
 114 137 116 161 122 188 c 1
 146 300 l 2
 159 361 215 410 272 410 c 0
 321 410 354 374 354 325 c 0
 354 317 353 309 351 300 c 0
 338 239 282 190 225 190 c 2
 216 190 l 1
 209 160 l 1
 207 151 206 143 206 136 c 0xfb
 206 80 257 73 302 73 c 0
 353 73 415 82 433 160 c 1
 484 402 l 2
 486 413 487 424 487 434 c 0
 487 487 456 527 390 527 c 0
 311 527 263 475 254 434 c 1
 156 434 l 1
 173 515 266 612 408 612 c 0xf7
258 345 m 0
 235 345 212 325 207 300 c 0
 206 297 206 293 206 290 c 0
 206 270 219 255 239 255 c 0
 262 255 285 275 290 300 c 0
 291 303 291 307 291 310 c 0
 291 330 278 345 258 345 c 0
EndSplineSet
EndChar

StartChar: uni0E4D
Encoding: 3661 3661 23
Width: 5
VWidth: 0
Flags: W
HStem: 670 65<-49.9339 40.9887> 855 65<-34.6254 55.256>
VStem: -116 62<739.586 835.077> 60 62<754.923 850.414>
LayerCount: 2
Fore
SplineSet
30 920 m 0
 85 920 122 879 122 823 c 0
 122 814 121 805 119 795 c 0
 104 726 41 670 -23 670 c 0
 -78 670 -116 711 -116 767 c 0
 -116 776 -115 785 -113 795 c 0
 -98 864 -34 920 30 920 c 0
16 855 m 0
 -15 855 -46 828 -53 795 c 0
 -54 790 -54 786 -54 782 c 0
 -54 755 -37 735 -10 735 c 0
 21 735 52 762 59 795 c 0
 60 800 60 804 60 808 c 0
 60 835 43 855 16 855 c 0
EndSplineSet
Position2: "Vowel Above-Left" dx=-180 dy=0 dh=0 dv=0
EndChar

StartChar: uni0E33
Encoding: 3635 3635 24
Width: 478
VWidth: 0
Flags: W
HStem: 0 21G<313 410.279> 527 85<254.963 388.12> 670 65<-49.9339 40.9887> 855 65<-34.6254 55.256>
VStem: -116 62<739.586 835.077> 60 62<754.923 850.414> 117 98<434 487.034> 404 95<314.062 511.045>
LayerCount: 2
Fore
SplineSet
30 920 m 0xfd
 85 920 122 879 122 823 c 0
 122 814 121 805 119 795 c 0
 104 726 41 670 -23 670 c 0
 -78 670 -116 711 -116 767 c 0
 -116 776 -115 785 -113 795 c 0
 -98 864 -34 920 30 920 c 0xfd
16 855 m 0
 -15 855 -46 828 -53 795 c 0
 -54 790 -54 786 -54 782 c 0
 -54 755 -37 735 -10 735 c 0
 21 735 52 762 59 795 c 0
 60 800 60 804 60 808 c 0
 60 835 43 855 16 855 c 0
313 0 m 1
 399 402 l 2
 402 417 404 431 404 444 c 0
 404 492 382 527 327 527 c 0
 257 527 224 475 215 434 c 1
 117 434 l 1xfb
 134 515 213 612 346 612 c 0
 454 612 499 547 499 462 c 0
 499 443 496 423 492 402 c 2
 406 0 l 1
 313 0 l 1
EndSplineSet
MultipleSubs2: "Sara Am Decomposite" uni0E4D uni0E32
EndChar

StartChar: uni0E32
Encoding: 3634 3634 25
Width: 472
VWidth: 0
Flags: W
HStem: 0 21G<307 404.229> 527 85<248.248 381.347>
VStem: 110 98<434 484.393> 397 95<314.062 511.647>
LayerCount: 2
Fore
SplineSet
307 0 m 1
 392 402 l 2
 395 417 397 431 397 445 c 0
 397 492 376 527 321 527 c 0
 251 527 217 475 208 434 c 1
 110 434 l 1
 127 515 206 612 339 612 c 0
 447 612 492 547 492 462 c 0
 492 443 489 423 485 402 c 2
 400 0 l 1
 307 0 l 1
EndSplineSet
Substitution2: "Sara AA Substitute" uni0E45
EndChar

StartChar: uni0E25
Encoding: 3621 3621 26
Width: 564
VWidth: 0
Flags: W
HStem: -6 65<229.863 296.697> 139 65<234.954 302.725> 330 75<259.627 401.57> 527 85<304.085 460.627>
VStem: 90 94<131.454 249.648> 304 62<65.3195 136.961> 487 96<367.56 500.722>
LayerCount: 2
Fore
SplineSet
408 612 m 0
 528 612 583 542 583 453 c 0
 583 437 581 419 577 402 c 2
 504 60 l 2
 490 -4 397 -6 397 -6 c 1
 437 180 l 2
 439 188 440 197 440 207 c 0
 440 259 413 330 334 330 c 0
 268 330 206 277 188 190 c 0
 186 179 184 168 184 158 c 0
 184 148 186 139 189 130 c 1
 200 162 241 204 289 204 c 0
 336 204 366 169 366 122 c 0
 366 115 366 107 364 99 c 0
 352 41 298 -6 244 -6 c 0
 153 -5 90 49 90 141 c 0
 90 156 91 173 95 190 c 0
 121 314 222 405 341 405 c 0
 425 405 461 347 467 320 c 1
 484 402 l 2
 486 413 487 424 487 434 c 0
 487 487 456 527 390 527 c 0
 311 527 263 475 254 434 c 1
 156 434 l 1
 173 515 266 612 408 612 c 0
275 139 m 0
 255 139 234 121 229 99 c 0
 228 96 228 93 228 90 c 0
 228 72 241 59 258 59 c 0
 278 59 298 77 303 99 c 0
 304 102 304 105 304 108 c 0
 304 126 292 139 275 139 c 0
EndSplineSet
EndChar

StartChar: uni0E40
Encoding: 3648 3648 27
Width: 295
VWidth: 0
Flags: W
HStem: -6 65<152.507 214.489>
VStem: 91 61<59.3431 125.246> 219 62<63.4278 128.657>
LayerCount: 2
Fore
SplineSet
198 590 m 1
 291 590 l 1
 207 194 l 1
 251 194 281 161 281 116 c 0
 281 109 281 102 279 94 c 0
 267 39 216 -6 165 -6 c 0
 121 -6 91 27 91 72 c 0
 91 79 91 86 93 94 c 2
 198 590 l 1
193 129 m 0
 175 129 157 113 153 94 c 0
 152 91 152 89 152 86 c 0
 152 71 162 59 178 59 c 0
 196 59 214 75 218 94 c 0
 219 97 219 99 219 102 c 0
 219 117 209 129 193 129 c 0
EndSplineSet
EndChar

StartChar: uni0E41
Encoding: 3649 3649 28
Width: 527
VWidth: 0
Flags: W
HStem: -6 65<152.507 214.489 385.007 448.081> 129 65<207 218.993 440 451.993>
VStem: 91 61<59.3431 125.246> 219 62<63.4278 128.657> 323 62<59.3431 125.246> 452 62<64.3479 127.101>
LayerCount: 2
Fore
SplineSet
198 590 m 1
 291 590 l 1
 207 194 l 1
 251 194 281 161 281 116 c 0
 281 109 281 102 279 94 c 0
 267 39 216 -6 165 -6 c 0
 121 -6 91 27 91 72 c 0
 91 79 91 86 93 94 c 2
 198 590 l 1
193 129 m 0
 175 129 157 113 153 94 c 0
 152 91 152 89 152 86 c 0
 152 71 162 59 178 59 c 0
 196 59 214 75 218 94 c 0
 219 97 219 99 219 102 c 0
 219 117 209 129 193 129 c 0
431 590 m 1
 524 590 l 1
 440 194 l 1
 484 194 514 161 514 117 c 0
 514 109 513 102 511 94 c 0
 499 39 448 -6 397 -6 c 0
 353 -6 323 27 323 72 c 0
 323 79 323 86 325 94 c 2
 431 590 l 1
426 129 m 0
 408 129 390 113 386 94 c 0
 385 91 385 89 385 86 c 0
 385 71 395 59 411 59 c 0
 429 59 447 75 451 94 c 0
 452 97 452 99 452 102 c 0
 452 117 442 129 426 129 c 0
EndSplineSet
EndChar

StartChar: uni0E2A
Encoding: 3626 3626 29
Width: 574
VWidth: 0
Flags: W
HStem: -6 65<229.863 296.697> 139 65<234.954 302.725> 330 75<259.627 401.57> 527 85<304.085 462.338>
VStem: 90 94<131.454 249.648> 304 62<65.3195 136.961> 487 96<367.56 501.914> 599 93<617.301 680>
LayerCount: 2
Fore
SplineSet
599 680 m 1
 692 680 l 1
 675 598 624 544 574 511 c 1
 580 493 583 474 583 454 c 0
 583 437 581 420 577 402 c 2
 504 60 l 2
 490 -4 397 -6 397 -6 c 1
 437 180 l 2
 439 188 440 197 440 207 c 0
 440 259 413 330 334 330 c 0
 268 330 206 277 188 190 c 0
 186 179 184 168 184 158 c 0
 184 148 186 139 189 130 c 1
 200 162 241 204 289 204 c 0
 336 204 366 169 366 122 c 0
 366 115 366 107 364 99 c 0
 352 41 298 -6 244 -6 c 0
 153 -5 90 49 90 141 c 0
 90 156 91 173 95 190 c 0
 121 314 222 405 341 405 c 0
 425 405 461 347 467 320 c 1
 484 402 l 2
 486 413 487 424 487 434 c 0
 487 487 456 527 390 527 c 0
 311 527 263 475 254 434 c 1
 156 434 l 1
 173 515 266 612 408 612 c 0
 464 612 506 597 534 571 c 1
 566 600 590 636 599 680 c 1
275 139 m 0
 255 139 234 121 229 99 c 0
 228 96 228 93 228 90 c 0
 228 72 241 59 258 59 c 0
 278 59 298 77 303 99 c 0
 304 102 304 105 304 108 c 0
 304 126 292 139 275 139 c 0
EndSplineSet
Substitution2: "Ascent Substitute" uni0E2A.alt
EndChar

StartChar: uni0E2E
Encoding: 3630 3630 30
Width: 574
VWidth: 0
Flags: W
HStem: -12 85<217.952 395.569> 190 65<216 281.721> 345 65<215.185 289.831> 527 85<304.085 462.338>
VStem: 114 92<88.0847 189.641> 156 98<434 480.505> 291 63<264.624 342.721> 487 96<367.431 501.914> 599 93<617.301 680>
LayerCount: 2
Fore
SplineSet
599 680 m 1xf780
 692 680 l 1
 675 598 624 544 574 511 c 1
 580 493 583 474 583 454 c 0
 583 437 581 420 577 402 c 2
 531 188 l 2
 497 26 408 -12 284 -12 c 0
 181 -12 114 14 114 117 c 0
 114 137 116 161 122 188 c 1
 146 300 l 2
 159 361 215 410 272 410 c 0
 321 410 354 374 354 325 c 0
 354 317 353 309 351 300 c 0
 338 239 282 190 225 190 c 2
 216 190 l 1
 209 160 l 1
 207 151 206 143 206 136 c 0xfb80
 206 80 257 73 302 73 c 0
 353 73 415 82 433 160 c 1
 484 402 l 2
 486 413 487 424 487 434 c 0
 487 487 456 527 390 527 c 0
 311 527 263 475 254 434 c 1
 156 434 l 1
 173 515 266 612 408 612 c 0
 464 612 506 597 534 571 c 1
 566 600 590 636 599 680 c 1xf780
258 345 m 0
 235 345 212 325 207 300 c 0
 206 297 206 293 206 290 c 0
 206 270 219 255 239 255 c 0
 262 255 285 275 290 300 c 0
 291 303 291 307 291 310 c 0
 291 330 278 345 258 345 c 0
EndSplineSet
Substitution2: "Ascent Substitute" uni0E2E.alt
EndChar

StartChar: uni0E1D
Encoding: 3613 3613 31
Width: 647
VWidth: 0
Flags: W
HStem: 386 65<248 313.721> 541 65<247.185 321.831> 840 20G<660.735 758>
VStem: 100 99<92.041 252.25> 323 63<460.624 538.721>
LayerCount: 2
Fore
SplineSet
304 606 m 0
 353 606 386 570 386 521 c 0
 386 513 385 505 383 496 c 0
 370 435 314 386 257 386 c 2
 248 386 l 1
 239 344 l 1
 204 180 l 2
 201 163 199 150 199 140 c 0
 199 115 208 105 217 90 c 1
 384 370 l 1
 444 370 l 1
 481 85 l 1
 497 101 508 122 520 180 c 2
 665 860 l 1
 758 860 l 1
 613 180 l 2
 582 36 548 -6 420 -6 c 1
 382 230 l 1
 239 -6 l 1
 143 -6 100 19 100 97 c 0
 100 120 104 147 111 180 c 2
 152 374 l 1
 178 496 l 2
 191 557 247 606 304 606 c 0
290 541 m 0
 267 541 244 521 239 496 c 0
 238 493 238 489 238 486 c 0
 238 466 251 451 271 451 c 0
 294 451 317 471 322 496 c 0
 323 499 323 503 323 506 c 0
 323 526 310 541 290 541 c 0
EndSplineSet
EndChar

StartChar: uni0E1A
Encoding: 3610 3610 32
Width: 620
VWidth: 0
Flags: W
HStem: -12 85<274.952 452.228> 386 65<194.408 221> 541 65<201.418 276.331>
VStem: 130 62<453.279 531.376> 171 92<88.0847 269.344> 278 62<459.897 538.721>
LayerCount: 2
Fore
SplineSet
258 606 m 0xf4
 307 606 340 570 340 521 c 0
 340 513 339 505 337 496 c 2
 266 160 l 1
 264 151 263 143 263 136 c 0
 263 80 314 73 359 73 c 0
 410 73 471 82 489 160 c 1
 581 590 l 1
 674 590 l 1
 588 188 l 2
 554 26 465 -12 341 -12 c 0
 238 -12 171 14 171 117 c 0xec
 171 137 173 161 179 188 c 1
 221 386 l 1
 212 386 l 2
 163 386 130 422 130 471 c 0
 130 479 131 487 133 496 c 0
 146 557 201 606 258 606 c 0xf4
245 541 m 0
 222 541 198 521 193 496 c 0
 192 493 192 489 192 486 c 0xf4
 192 466 205 451 225 451 c 0
 248 451 272 471 277 496 c 0
 278 499 278 503 278 506 c 0
 278 526 265 541 245 541 c 0
EndSplineSet
EndChar

StartChar: uni0E1B
Encoding: 3611 3611 33
Width: 620
VWidth: 0
Flags: W
HStem: -12 85<274.952 452.228> 386 65<194.408 221> 541 65<201.418 276.331> 840 20G<633.743 731>
VStem: 130 62<453.279 531.376> 171 92<88.0847 269.344> 278 62<459.897 538.721>
LayerCount: 2
Fore
SplineSet
258 606 m 0xfa
 307 606 340 570 340 521 c 0
 340 513 339 505 337 496 c 2
 266 160 l 1
 264 151 263 143 263 136 c 0
 263 80 314 73 359 73 c 0
 410 73 471 82 489 160 c 1
 638 860 l 1
 731 860 l 1
 588 188 l 2
 554 26 465 -12 341 -12 c 0
 238 -12 171 14 171 117 c 0xf6
 171 137 173 161 179 188 c 1
 221 386 l 1
 212 386 l 2
 163 386 130 422 130 471 c 0
 130 479 131 487 133 496 c 0
 146 557 201 606 258 606 c 0xfa
245 541 m 0
 222 541 198 521 193 496 c 0
 192 493 192 489 192 486 c 0xfa
 192 466 205 451 225 451 c 0
 248 451 272 471 277 496 c 0
 278 499 278 503 278 506 c 0
 278 526 265 541 245 541 c 0
EndSplineSet
EndChar

StartChar: uni0E49
Encoding: 3657 3657 34
Width: 7
VWidth: 0
Flags: W
HStem: 970 55<13 99.5459> 970 45<-98.1381 -66> 1160 50<-20.1758 33.1227>
VStem: 179 79<1112.35 1180>
LayerCount: 2
Fore
SplineSet
23 1210 m 0x70
 58 1210 82 1183 82 1148 c 0
 82 1142 81 1136 80 1130 c 0
 68 1073 13 1025 13 1025 c 1xb0
 90 1025 157 1076 179 1180 c 1
 258 1180 l 1
 230 1050 150 970 1 970 c 2
 -77 970 l 2
 -112 970 -112 1015 -112 1015 c 1
 -66 1021 l 2
 -49 1023 -35 1032 -26 1052 c 1
 -53 1058 -71 1082 -71 1113 c 0
 -71 1118 -70 1124 -69 1130 c 0
 -60 1174 -18 1210 23 1210 c 0x70
12 1160 m 0
 -4 1160 -18 1147 -22 1130 c 0
 -26 1113 -17 1100 -1 1100 c 0
 15 1100 29 1113 33 1130 c 0
 37 1147 28 1160 12 1160 c 0
EndSplineSet
Position2: "Nikhahit & Tone High-Left" dx=-150 dy=0 dh=0 dv=0
Position2: "Mai Han-Akat & Tone High-Left" dx=-180 dy=0 dh=0 dv=0
Position2: "Tone High-Left" dx=-120 dy=0 dh=0 dv=0
MultipleSubs2: "Tone High-Low" uni0E49.low
EndChar

StartChar: uni0E1C
Encoding: 3612 3612 35
Width: 647
VWidth: 0
Flags: W
HStem: 386 65<248 313.721> 541 65<247.185 321.831>
VStem: 100 99<92.041 252.25> 323 63<460.624 538.721>
LayerCount: 2
Fore
SplineSet
304 606 m 0
 353 606 386 570 386 521 c 0
 386 513 385 505 383 496 c 0
 370 435 314 386 257 386 c 2
 248 386 l 1
 239 344 l 1
 204 180 l 2
 201 163 199 150 199 140 c 0
 199 115 208 105 217 90 c 1
 384 370 l 1
 444 370 l 1
 481 85 l 1
 497 101 508 122 520 180 c 2
 607 590 l 1
 700 590 l 1
 613 180 l 2
 582 36 548 -6 420 -6 c 1
 382 230 l 1
 239 -6 l 1
 143 -6 100 19 100 97 c 0
 100 120 104 147 111 180 c 2
 152 374 l 1
 178 496 l 2
 191 557 247 606 304 606 c 0
290 541 m 0
 267 541 244 521 239 496 c 0
 238 493 238 489 238 486 c 0
 238 466 251 451 271 451 c 0
 294 451 317 471 322 496 c 0
 323 499 323 503 323 506 c 0
 323 526 310 541 290 541 c 0
EndSplineSet
EndChar

StartChar: uni0E1E
Encoding: 3614 3614 36
Width: 648
VWidth: 0
Flags: W
HStem: 386 65<203.408 230> 541 65<210.781 285.81>
VStem: 139 62<453.279 531.376> 287 62<459.261 538.721> 443 48<312.235 380> 458 50<120 210.16>
LayerCount: 2
Fore
SplineSet
268 606 m 0xf8
 317 606 349 570 349 521 c 0
 349 513 348 505 346 496 c 2
 267 121 l 1
 445 500 l 1
 491 500 l 1xf8
 508 120 l 1
 608 590 l 1
 701 590 l 1
 595 91 l 2
 577 6 516 -6 458 -6 c 1xf4
 443 380 l 1
 263 -6 l 1
 213 -6 164 5 164 62 c 0
 164 71 165 80 167 91 c 2
 230 386 l 1
 221 386 l 2
 172 386 139 422 139 471 c 0
 139 479 140 487 142 496 c 0
 155 557 211 606 268 606 c 0xf8
254 541 m 0
 231 541 207 521 202 496 c 0
 201 493 201 490 201 487 c 0
 201 466 215 451 235 451 c 0
 258 451 281 471 286 496 c 0
 287 499 287 503 287 506 c 0
 287 526 274 541 254 541 c 0
EndSplineSet
EndChar

StartChar: uni0E1F
Encoding: 3615 3615 37
Width: 648
VWidth: 0
Flags: W
HStem: 386 65<203.408 230> 541 65<210.781 285.81> 840 20G<661.73 759>
VStem: 139 62<453.279 531.376> 287 62<459.261 538.721> 443 48<312.235 380> 458 50<120 210.16>
LayerCount: 2
Fore
SplineSet
268 606 m 0xfc
 317 606 349 570 349 521 c 0
 349 513 348 505 346 496 c 2
 267 121 l 1
 445 500 l 1
 491 500 l 1xfc
 508 120 l 1
 666 860 l 1
 759 860 l 1
 595 91 l 2
 577 6 516 -6 458 -6 c 1xfa
 443 380 l 1
 263 -6 l 1
 213 -6 164 5 164 62 c 0
 164 71 165 80 167 91 c 2
 230 386 l 1
 221 386 l 2
 172 386 139 422 139 471 c 0
 139 479 140 487 142 496 c 0
 155 557 211 606 268 606 c 0xfc
254 541 m 0
 231 541 207 521 202 496 c 0
 201 493 201 490 201 487 c 0
 201 466 215 451 235 451 c 0
 258 451 281 471 286 496 c 0
 287 499 287 503 287 506 c 0
 287 526 274 541 254 541 c 0
EndSplineSet
EndChar

StartChar: uni0E30
Encoding: 3632 3632 38
Width: 490
VWidth: 0
Flags: W
HStem: 30 70<196.178 317.624> 225 55<140.439 202.17> 340 70<262.178 383.624> 535 55<206.439 268.17>
VStem: 82 54<106.5 221.278> 148 54<416.5 531.278> 203 52<158.765 224.349> 269 52<468.765 534.349>
LayerCount: 2
Fore
SplineSet
189 280 m 0
 228 280 255 251 255 211 c 0
 255 204 255 197 253 190 c 0
 246 159 221 128 195 112 c 1
 200 102 228 100 248 100 c 0
 332 100 386 205 398 260 c 1
 482 260 l 1
 461 161 374 30 233 30 c 0
 182 30 82 58 82 155 c 0
 82 166 83 177 86 190 c 0
 97 240 143 280 189 280 c 0
177 225 m 0
 159 225 141 209 137 190 c 0
 136 187 136 185 136 182 c 0
 136 167 146 155 162 155 c 0
 180 155 198 171 202 190 c 0
 203 193 203 195 203 198 c 0
 203 213 193 225 177 225 c 0
255 590 m 0
 294 590 321 561 321 521 c 0
 321 514 321 507 319 500 c 0
 312 469 287 438 261 422 c 1
 266 412 294 410 314 410 c 0
 398 410 452 515 464 570 c 1
 548 570 l 1
 527 471 440 340 299 340 c 0
 248 340 148 368 148 465 c 0
 148 476 149 487 152 500 c 0
 163 550 209 590 255 590 c 0
243 535 m 0
 225 535 207 519 203 500 c 0
 202 497 202 495 202 492 c 0
 202 477 212 465 228 465 c 0
 246 465 264 481 268 500 c 0
 269 503 269 505 269 508 c 0
 269 523 259 535 243 535 c 0
EndSplineSet
EndChar

StartChar: uni0E43
Encoding: 3651 3651 39
Width: 316
VWidth: 0
Flags: W
HStem: -6 65<200.507 262.489> 780 55<243.064 318.676> 925 50<305 324.938> 992 60<305.418 413.728>
VStem: 139 61<59.3431 122.074> 185 57<836.072 915.692> 267 62<63.4278 128.657> 328 52<845.708 922.889> 428 66<827.806 978.384>
LayerCount: 2
Fore
SplineSet
372 1052 m 0xf580
 455 1052 494 993 494 923 c 0
 494 909 492 894 489 880 c 0
 459 740 369 726 346 620 c 2
 255 194 l 1
 299 194 329 161 329 116 c 0
 329 109 329 102 327 94 c 0
 315 39 264 -6 213 -6 c 0
 169 -6 139 27 139 72 c 0xfa80
 139 79 139 86 141 94 c 2
 253 620 l 2
 278 737 401 769 425 880 c 0
 427 891 428 901 428 912 c 0
 428 955 409 992 360 992 c 0
 340 992 316 983 305 975 c 1
 350 975 380 943 380 900 c 0
 380 894 379 887 378 880 c 0
 366 825 314 780 263 780 c 0
 219 780 185 814 185 861 c 0
 185 869 186 877 188 885 c 0
 212 1000 291 1052 372 1052 c 0xf580
294 925 m 0
 271 925 248 905 243 880 c 0
 242 877 242 873 242 870 c 0
 242 850 255 835 275 835 c 0
 298 835 322 855 327 880 c 0
 328 883 328 886 328 889 c 0xf580
 328 910 314 925 294 925 c 0
241 129 m 0
 223 129 205 113 201 94 c 0
 200 91 200 89 200 86 c 0
 200 71 210 59 226 59 c 0
 244 59 262 75 266 94 c 0
 267 97 267 99 267 102 c 0xfa80
 267 117 257 129 241 129 c 0
EndSplineSet
EndChar

StartChar: uni0E44
Encoding: 3652 3652 40
Width: 316
VWidth: 0
Flags: W
HStem: -6 65<201.007 264.081> 972 80<196 222.735>
VStem: 139 62<59.3431 121.606> 268 62<64.3479 127.101>
LayerCount: 2
Fore
SplineSet
196 1052 m 1
 263 1052 305 950 305 950 c 1
 429 1052 l 1
 466 1052 486 1022 486 985 c 0
 486 977 486 970 484 962 c 0
 456 828 379 773 342 600 c 2
 256 194 l 1
 300 194 330 161 330 117 c 0
 330 109 329 102 327 94 c 0
 315 39 264 -6 213 -6 c 0
 169 -6 139 27 139 72 c 0
 139 79 139 86 141 94 c 2
 249 600 l 1
 294 780 405 872 427 977 c 1
 275 855 l 1
 275 855 234 972 179 972 c 1
 196 1052 l 1
242 129 m 0
 224 129 206 113 202 94 c 0
 201 91 201 89 201 86 c 0
 201 71 211 59 227 59 c 0
 245 59 263 75 267 94 c 0
 268 97 268 99 268 102 c 0
 268 117 258 129 242 129 c 0
EndSplineSet
EndChar

StartChar: uni0E29
Encoding: 3625 3625 41
Width: 668
VWidth: 0
Flags: W
HStem: -12 85<274.952 452.228> 190 60<422.641 495> 386 65<194.408 221> 395 45<383.093 443.599> 541 65<201.418 276.331>
VStem: 130 62<453.279 531.376> 171 92<88.0847 269.344> 278 62<459.897 538.721> 332 45<325.215 389.259> 444 43<331.475 394.164> 675 75<316.85 380>
LayerCount: 2
Fore
SplineSet
258 606 m 0xec60
 307 606 340 570 340 521 c 0xed60
 340 513 339 505 337 496 c 2
 266 160 l 1
 264 151 263 143 263 136 c 0
 263 80 314 73 359 73 c 0
 410 73 471 82 489 160 c 1
 495 190 l 1
 440 190 332 225 332 326 c 0
 332 337 333 348 336 360 c 0
 345 404 387 440 428 440 c 0
 463 440 487 413 487 378 c 0
 487 372 486 366 485 360 c 0
 478 325 446 294 411 288 c 1
 429 255 486 250 508 250 c 1
 581 590 l 1
 674 590 l 1
 607 277 l 1
 642 301 664 329 675 380 c 1
 750 380 l 1
 734 305 682 242 591 201 c 1
 588 188 l 2
 554 26 465 -12 341 -12 c 0
 238 -12 171 14 171 117 c 0xdae0
 171 137 173 161 179 188 c 1
 221 386 l 1
 212 386 l 2
 163 386 130 422 130 471 c 0
 130 479 131 487 133 496 c 0
 146 557 201 606 258 606 c 0xec60
245 541 m 0
 222 541 198 521 193 496 c 0
 192 493 192 489 192 486 c 0
 192 466 205 451 225 451 c 0
 248 451 272 471 277 496 c 0
 278 499 278 503 278 506 c 0
 278 526 265 541 245 541 c 0
418 395 m 0xd8e0
 400 395 382 379 378 360 c 0
 377 357 377 355 377 352 c 0
 377 337 387 325 403 325 c 0
 421 325 439 341 443 360 c 0
 444 363 444 365 444 368 c 0
 444 383 434 395 418 395 c 0xd8e0
EndSplineSet
EndChar

StartChar: uni0E42
Encoding: 3650 3650 42
Width: 317
VWidth: 0
Flags: W
HStem: -6 65<201.007 264.081> 987 65<276.685 412.768>
VStem: 139 62<59.3431 123.012> 268 62<64.3479 127.101> 275 91<599.922 860.268>
LayerCount: 2
Fore
SplineSet
364 1052 m 0xe8
 410 1052 450 1024 465 1005 c 1
 485 1024 530 1042 559 1052 c 1
 542 972 l 1
 506 962 466 940 447 920 c 1
 424 956 393 987 350 987 c 0
 310 987 269 962 256 940 c 1
 319 918 366 863 366 758 c 0xe8
 366 729 363 697 355 660 c 2
 256 194 l 1
 300 194 330 161 330 117 c 0xf0
 330 109 329 102 327 94 c 0
 315 39 264 -6 213 -6 c 0
 169 -6 139 27 139 72 c 0
 139 79 139 86 141 94 c 2
 262 660 l 2
 271 701 275 737 275 768 c 0
 275 853 239 895 163 895 c 1
 180 977 276 1052 364 1052 c 0xe8
242 129 m 0
 224 129 206 113 202 94 c 0
 201 91 201 89 201 86 c 0
 201 71 211 59 227 59 c 0
 245 59 263 75 267 94 c 0
 268 97 268 99 268 102 c 0xf0
 268 117 258 129 242 129 c 0
EndSplineSet
EndChar

StartChar: uni0E21
Encoding: 3617 3617 43
Width: 574
VWidth: 0
Flags: W
HStem: -6 70<134.414 208.421> 154 70<143.32 205> 386 65<212.408 239> 541 65<219.781 294.831>
VStem: 66 67<65.7982 143.378> 148 62<453.279 531.376> 218 65<74.6216 115> 296 63<459.261 538.721>
LayerCount: 2
Fore
SplineSet
277 606 m 0
 326 606 359 570 359 521 c 0
 359 513 358 505 356 496 c 2
 294 205 l 1
 356 169 393 130 426 85 c 1
 534 590 l 1
 627 590 l 1
 518 80 l 2
 505 17 455 -6 398 -6 c 1
 365 42 324 88 284 115 c 1
 284 113 283 111 283 109 c 0
 269 45 211 -6 151 -6 c 0
 100 -6 66 31 66 82 c 0
 66 91 67 100 69 109 c 0
 83 173 140 224 200 224 c 0
 202 224 203 224 205 224 c 1
 239 386 l 1
 230 386 l 2
 181 386 148 422 148 471 c 0
 148 479 149 487 151 496 c 0
 164 557 220 606 277 606 c 0
263 541 m 0
 240 541 216 521 211 496 c 0
 210 493 210 490 210 487 c 0
 210 466 224 451 244 451 c 0
 267 451 290 471 295 496 c 0
 296 499 296 503 296 506 c 0
 296 526 283 541 263 541 c 0
185 154 m 0
 162 154 139 134 134 109 c 0
 133 106 133 102 133 99 c 0
 133 79 146 64 166 64 c 0
 189 64 212 84 217 109 c 0
 218 112 218 116 218 119 c 0
 218 139 205 154 185 154 c 0
EndSplineSet
EndChar

StartChar: uni0E06
Encoding: 3590 3590 44
Width: 583
VWidth: 0
Flags: W
HStem: -6 70<144.032 218.295> 154 70<152.175 226.952> 298 55<184.873 254.379> 433 50<191.5 259.877> 551 55<213.571 283.969>
VStem: 75 67<65.7982 143.378> 118 66<354.332 426.676> 261 47<361.324 431.876> 397 69<399.057 554.15>
LayerCount: 2
Fore
SplineSet
267 606 m 0xfb80
 323 606 323 543 323 543 c 1
 371 606 l 1
 397 606 l 1
 437 592 466 548 466 487 c 0
 466 474 464 459 461 444 c 0
 434 315 333 263 316 197 c 1
 371 163 405 127 436 85 c 1
 543 590 l 1
 636 590 l 1
 528 80 l 2
 515 17 464 -6 407 -6 c 1
 374 42 334 88 294 115 c 1
 292 109 l 2
 278 45 221 -6 161 -6 c 0
 110 -6 75 31 75 82 c 0xfd80
 75 91 76 100 78 109 c 0
 92 173 150 224 210 224 c 0
 218 224 226 221 232 220 c 1
 268 301 373 357 391 444 c 0
 395 464 397 481 397 495 c 0
 397 519 391 537 381 556 c 1
 328 484 l 1
 289 484 l 1
 287 507 290 551 253 551 c 0
 218 551 188 492 179 449 c 1
 194 466 216 483 242 483 c 0
 281 483 308 454 308 414 c 0
 308 407 308 400 306 393 c 0
 295 343 248 298 202 298 c 0
 149 298 118 336 118 399 c 0
 118 414 119 430 123 448 c 1
 134 497 185 606 267 606 c 0xfb80
231 433 m 0
 211 433 190 415 185 393 c 0
 184 390 184 387 184 384 c 0xfb80
 184 366 197 353 214 353 c 0
 234 353 255 371 260 393 c 0
 261 396 261 399 261 402 c 0
 261 420 248 433 231 433 c 0
195 154 m 0
 172 154 148 134 143 109 c 0
 142 106 142 103 142 100 c 0xfd80
 142 79 156 64 176 64 c 0
 199 64 222 84 227 109 c 0
 228 112 228 116 228 119 c 0
 228 139 215 154 195 154 c 0
EndSplineSet
EndChar

StartChar: uni0E31
Encoding: 3633 3633 45
Width: 8
VWidth: 0
Flags: W
HStem: 680 70<-84.3749 37.6242> 875 55<-140.061 -77.322>
VStem: -199 55<756.5 871.278> -77 52<808.89 874.492> 118 84<847.077 910>
LayerCount: 2
Fore
SplineSet
-92 930 m 0
 -52 930 -25 900 -25 860 c 0
 -25 854 -25 847 -27 840 c 0
 -34 809 -60 778 -86 762 c 1
 -81 752 -52 750 -32 750 c 0
 52 750 106 855 118 910 c 1
 202 910 l 1
 181 811 94 680 -47 680 c 0
 -98 680 -199 708 -199 805 c 0
 -199 816 -198 827 -195 840 c 0
 -184 890 -138 930 -92 930 c 0
-103 875 m 0
 -121 875 -139 859 -143 840 c 0
 -144 837 -144 835 -144 832 c 0
 -144 817 -134 805 -118 805 c 0
 -100 805 -82 821 -78 840 c 0
 -77 843 -77 845 -77 848 c 0
 -77 863 -87 875 -103 875 c 0
EndSplineSet
Position2: "Vowel Above-Left" dx=-200 dy=0 dh=0 dv=0
EndChar

StartChar: uni0E4C
Encoding: 3660 3660 46
Width: 5
VWidth: 0
Flags: W
HStem: 920 45<8.84819 68.9073>
VStem: -40 48<965.165 1029.91> 75 43<971.815 1034.62> 154 84<1138.89 1180>
LayerCount: 2
Fore
SplineSet
154 1180 m 1
 238 1180 l 1
 217 1124 161 1066 106 1057 c 1
 114 1046 118 1033 118 1018 c 0
 118 1012 117 1006 116 1000 c 0
 107 956 65 920 24 920 c 0
 -12 920 -40 944 -40 982 c 0
 -40 988 -39 994 -38 1000 c 0
 -13 1119 122 1079 154 1180 c 1
49 1035 m 0
 31 1035 13 1019 9 1000 c 0
 8 997 8 995 8 992 c 0
 8 977 18 965 34 965 c 0
 52 965 70 981 74 1000 c 0
 75 1003 75 1005 75 1008 c 0
 75 1023 65 1035 49 1035 c 0
EndSplineSet
Position2: "Tone High-Left" dx=-100 dy=0 dh=0 dv=0
MultipleSubs2: "Tone High-Low" uni0E4C.low
EndChar

StartChar: uni0E39
Encoding: 3641 3641 47
Width: 6
VWidth: 0
Flags: W
HStem: -340 65<-275.381 -204.008> -250 55<-374.17 -340> -125 55<-370.561 -308.83>
VStem: -427 52<-194.349 -128.914> -356 79<-292.5 -248.055> -308 52<-191.18 -125.651>
LayerCount: 2
Fore
SplineSet
-322 -70 m 0xf8
 -283 -70 -256 -99 -256 -139 c 0xf4
 -256 -146 -256 -153 -258 -160 c 2
 -275 -240 l 2
 -276 -244 -277 -248 -277 -252 c 0
 -277 -265 -270 -275 -245 -275 c 0
 -212 -275 -204 -256 -201 -240 c 2
 -167 -80 l 1
 -92 -80 l 1
 -130 -260 l 2
 -135 -285 -153 -340 -259 -340 c 0
 -342 -340 -356 -306 -356 -279 c 0
 -356 -272 -355 -265 -354 -260 c 2
 -351 -249 l 1
 -354 -250 -358 -250 -361 -250 c 0
 -400 -250 -427 -221 -427 -181 c 0
 -427 -174 -427 -167 -425 -160 c 0
 -414 -110 -368 -70 -322 -70 c 0xf8
-334 -125 m 0
 -352 -125 -370 -141 -374 -160 c 0
 -375 -163 -375 -165 -375 -168 c 0
 -375 -183 -365 -195 -349 -195 c 0
 -331 -195 -313 -179 -309 -160 c 0
 -308 -157 -308 -155 -308 -152 c 0
 -308 -137 -318 -125 -334 -125 c 0
EndSplineSet
Position2: "Vowel Below-Low" dx=0 dy=-200 dh=0 dv=0
EndChar

StartChar: uni0E03
Encoding: 3587 3587 48
Width: 583
VWidth: 0
Flags: W
HStem: -12 85<320.427 426.552> 298 55<198.726 266.972> 433 50<205.431 273.098> 551 55<226.879 298.513>
VStem: 131 67<355.158 426.676> 220 95<78.4232 221.108> 274 48<361.324 430.941> 411 69<398.436 554.15>
LayerCount: 2
Fore
SplineSet
280 606 m 0xfb
 336 606 337 543 337 543 c 1
 385 606 l 1
 411 606 l 1
 451 592 480 548 480 487 c 0
 480 474 478 459 475 444 c 0
 447 313 343 262 329 194 c 2
 317 140 l 2
 316 134 315 129 315 123 c 0
 315 98 327 73 368 73 c 0
 419 73 441 112 447 140 c 2
 543 590 l 1
 636 590 l 1
 540 140 l 2
 532 102 497 -12 350 -12 c 0
 240 -12 220 52 220 100 c 0xfd
 220 116 222 130 224 140 c 2
 236 194 l 2
 257 291 384 347 405 444 c 0
 409 463 411 479 411 493 c 0
 411 519 404 536 394 556 c 1
 342 484 l 1
 303 484 l 1
 301 507 304 551 267 551 c 0
 232 551 201 492 192 449 c 1
 207 466 229 483 255 483 c 0
 295 483 322 453 322 413 c 0
 322 407 322 400 320 393 c 0
 309 343 262 298 216 298 c 0
 162 298 131 337 131 400 c 0
 131 415 132 431 136 448 c 1
 147 497 198 606 280 606 c 0xfb
245 433 m 0
 225 433 204 415 199 393 c 0
 198 390 198 387 198 384 c 0
 198 366 211 353 228 353 c 0
 248 353 268 371 273 393 c 0
 274 396 274 399 274 402 c 0xfb
 274 420 262 433 245 433 c 0
EndSplineSet
EndChar

StartChar: uni0E22
Encoding: 3618 3618 49
Width: 545
VWidth: 0
Flags: W
HStem: -12 85<200.739 387.551> 282 75<248.883 356> 386 65<244.065 318.815> 541 65<251.958 326.831>
VStem: 86 95<94.1348 222.264> 160 83<386.002 389 417.342 529.88> 328 63<460.624 538.721>
LayerCount: 2
Fore
SplineSet
309 606 m 0xf6
 358 606 391 570 391 521 c 0
 391 513 390 505 388 496 c 0
 375 435 319 386 262 386 c 0
 255 386 244 389 244 389 c 1
 259 359 322 357 372 357 c 1
 356 282 l 1
 274 282 202 253 184 170 c 0
 182 162 181 154 181 147 c 0
 181 105 209 73 284 73 c 0
 364 73 403 110 403 110 c 1
 506 590 l 1
 599 590 l 1
 484 50 l 1
 484 50 395 -12 266 -12 c 0
 149 -12 86 38 86 125 c 0xfa
 86 139 88 154 91 170 c 0
 103 225 136 285 212 325 c 1
 177 348 160 383 160 430 c 0
 160 446 162 463 166 481 c 0
 179 542 236 606 309 606 c 0xf6
295 541 m 0
 272 541 249 521 244 496 c 0
 243 493 243 489 243 486 c 0xf6
 243 466 256 451 276 451 c 0
 299 451 322 471 327 496 c 0
 328 499 328 503 328 506 c 0
 328 526 315 541 295 541 c 0
EndSplineSet
EndChar

StartChar: uni0E46
Encoding: 3654 3654 50
Width: 609
VWidth: 0
Flags: W
HStem: -340 90<187 269.728> 286 50<227.354 295.21> 416 50<233.555 302.405> 546 60<260.294 355.194>
VStem: 160 66<336.427 409.676> 303 47<344.937 413.941> 496 93<392.582 549.423>
LayerCount: 2
Fore
SplineSet
323 606 m 0
 370 606 400 573 403 545 c 1
 457 606 l 1
 509 606 l 1
 549 592 589 551 589 479 c 0
 589 464 587 448 583 430 c 2
 479 -60 l 2
 446 -213 320 -340 168 -340 c 1
 187 -250 l 1
 277 -250 364 -163 386 -60 c 2
 490 430 l 2
 494 449 496 466 496 480 c 0
 496 521 481 544 468 551 c 1
 406 481 l 1
 361 481 l 1
 362 484 362 487 362 491 c 0
 362 513 351 546 313 546 c 0
 266 546 235 498 222 437 c 1
 230 449 257 466 283 466 c 0
 323 466 350 436 350 396 c 0
 350 390 350 383 348 376 c 0
 337 326 291 286 245 286 c 0
 191 286 160 325 160 388 c 0
 160 403 161 419 165 436 c 0
 182 518 245 606 323 606 c 0
273 416 m 0
 253 416 232 398 227 376 c 0
 226 373 226 370 226 367 c 0
 226 349 239 336 256 336 c 0
 276 336 297 354 302 376 c 0
 303 379 303 382 303 385 c 0
 303 403 290 416 273 416 c 0
EndSplineSet
EndChar

StartChar: uni0E47
Encoding: 3655 3655 51
Width: 8
VWidth: 0
Flags: W
HStem: 660 56<-103.437 -50.283> 806 40<-25.962 26.7892> 866 60<-198.386 31.1562>
VStem: -289 66<729.261 843.476> 66 74<959.994 1006>
LayerCount: 2
Fore
SplineSet
66 1006 m 1
 140 1006 l 1
 125 934 47 866 -20 866 c 2
 -141 866 l 2
 -186 866 -213 835 -221 796 c 0
 -222 789 -223 783 -223 777 c 0
 -223 753 -213 739 -201 729 c 1
 -151 796 l 1
 -107 796 l 1
 -109 788 -110 780 -110 773 c 0
 -110 741 -94 716 -61 716 c 0
 -57 716 -54 716 -50 717 c 1
 -62 727 -69 742 -69 760 c 0
 -69 765 -68 771 -67 776 c 0
 -59 815 -23 846 13 846 c 0
 44 846 65 823 65 792 c 0
 65 787 64 781 63 776 c 0
 51 719 -2 660 -73 660 c 0
 -115 660 -141 688 -153 721 c 1
 -193 666 l 1
 -251 666 -289 709 -289 767 c 0
 -289 776 -288 786 -286 796 c 0
 -271 868 -204 926 -128 926 c 2
 -26 926 l 2
 14 926 58 967 66 1006 c 1
5 806 m 0
 -11 806 -26 793 -30 776 c 0
 -34 759 -24 746 -8 746 c 0
 8 746 22 759 26 776 c 0
 30 793 21 806 5 806 c 0
EndSplineSet
Position2: "Vowel Above-Left" dx=-120 dy=0 dh=0 dv=0
EndChar

StartChar: uni0E0B
Encoding: 3595 3595 52
Width: 593
VWidth: 0
Flags: W
HStem: -12 85<315.917 421.879> 298 55<193.873 263.379> 433 50<200.5 268.877> 551 55<222.571 292.969>
VStem: 127 66<354.332 426.676> 215 96<78.077 168.35> 270 47<361.324 431.876> 491 93<321.5 418.931> 613 93<617.292 680>
LayerCount: 2
Fore
SplineSet
613 680 m 1xfb80
 706 680 l 1
 680 557 579 497 519 475 c 1
 519 475 584 424 584 372 c 0
 584 368 584 364 583 360 c 2
 536 140 l 2
 528 102 492 -12 345 -12 c 0
 236 -12 215 51 215 99 c 0xfd80
 215 115 218 130 220 140 c 2
 231 194 l 2
 252 291 379 347 400 444 c 0
 404 464 406 481 406 495 c 0
 406 519 400 537 390 556 c 1
 337 484 l 1
 298 484 l 1
 296 507 299 551 262 551 c 0
 227 551 197 492 188 449 c 1
 203 466 225 483 251 483 c 0
 290 483 317 454 317 414 c 0
 317 407 317 400 315 393 c 0
 304 343 257 298 211 298 c 0
 158 298 127 336 127 399 c 0
 127 414 128 430 132 448 c 1
 143 497 194 606 276 606 c 0
 332 606 332 543 332 543 c 1
 380 606 l 1
 406 606 l 1
 439 595 464 564 472 520 c 1
 540 554 597 604 613 680 c 1xfb80
240 433 m 0
 220 433 199 415 194 393 c 0
 193 390 193 387 193 384 c 0
 193 366 206 353 223 353 c 0
 243 353 264 371 269 393 c 0
 270 396 270 399 270 402 c 0xfb80
 270 420 257 433 240 433 c 0
464 420 m 1
 429 306 338 258 324 194 c 2
 313 140 l 2
 312 134 311 128 311 122 c 0xfd80
 311 98 322 73 363 73 c 0
 414 73 437 112 443 140 c 2
 490 360 l 2
 490 362 491 365 491 367 c 0
 491 384 479 403 464 420 c 1
EndSplineSet
Substitution2: "Ascent Substitute" uni0E0B.alt
EndChar

StartChar: uni0E02
Encoding: 3586 3586 53
Width: 555
VWidth: 0
Flags: W
HStem: -12 85<292.427 398.552> 326 55<192.263 267.591> 471 52<219.247 274.912> 551 55<233.407 352.614>
VStem: 136 55<383.659 459.168> 192 95<78.4232 226.431> 277 53<391.708 469.502> 370 71<394.536 532.756>
LayerCount: 2
Fore
SplineSet
318 606 m 0xfb
 396 606 441 547 441 478 c 0
 441 467 439 455 437 444 c 0
 409 313 321 288 301 194 c 2
 289 140 l 2
 288 134 287 129 287 123 c 0
 287 98 299 73 340 73 c 0
 391 73 413 112 419 140 c 2
 515 590 l 1
 608 590 l 1
 512 140 l 2
 504 102 469 -12 322 -12 c 0
 212 -12 192 52 192 100 c 0xfd
 192 116 194 130 196 140 c 2
 208 194 l 2
 234 318 346 347 367 444 c 0
 369 454 370 463 370 472 c 0
 370 517 343 551 298 551 c 0
 264 551 235 532 219 511 c 1
 219 511 238 523 258 523 c 0
 298 523 330 500 330 453 c 0
 330 445 329 436 327 426 c 0
 315 371 263 326 212 326 c 0
 168 326 136 364 136 415 c 0
 136 423 137 432 139 441 c 0
 160 540 242 606 318 606 c 0xfb
243 471 m 0
 221 471 197 450 192 426 c 0xfd
 191 423 191 420 191 417 c 0
 191 397 205 381 224 381 c 0
 246 381 271 402 276 426 c 0
 277 429 277 432 277 435 c 0xfb
 277 455 262 471 243 471 c 0
EndSplineSet
EndChar

StartChar: uni0E0A
Encoding: 3594 3594 54
Width: 565
VWidth: 0
Flags: W
HStem: -12 85<292.427 398.552> 326 55<192.263 267.591> 471 52<219.247 274.912> 551 55<233.407 352.378>
VStem: 136 55<383.659 459.168> 192 95<79.0233 168.35> 277 53<391.708 469.502> 467 93<321.5 418.561> 590 93<617.292 680>
LayerCount: 2
Fore
SplineSet
590 680 m 1xfb80
 683 680 l 1
 657 557 555 497 495 475 c 1
 495 475 560 424 560 372 c 0
 560 368 560 364 559 360 c 2
 512 140 l 2
 504 102 469 -12 322 -12 c 0
 212 -12 192 52 192 100 c 0xfd80
 192 116 194 130 196 140 c 2
 208 194 l 2
 234 318 346 347 367 444 c 0
 369 454 370 463 370 472 c 0
 370 517 343 551 298 551 c 0
 264 551 235 532 219 511 c 1
 219 511 238 523 258 523 c 0
 298 523 330 500 330 453 c 0
 330 445 329 436 327 426 c 0
 315 371 263 326 212 326 c 0
 168 326 136 364 136 415 c 0
 136 423 137 432 139 441 c 0
 160 540 242 606 318 606 c 0
 382 606 424 566 436 514 c 1
 510 548 573 600 590 680 c 1xfb80
243 471 m 0
 221 471 197 450 192 426 c 0xfd80
 191 423 191 420 191 417 c 0
 191 397 205 381 224 381 c 0
 246 381 271 402 276 426 c 0
 277 429 277 432 277 435 c 0xfb80
 277 455 262 471 243 471 c 0
432 427 m 1
 401 311 320 284 301 194 c 2
 289 140 l 2
 288 134 287 129 287 123 c 0
 287 98 299 73 340 73 c 0
 391 73 413 112 419 140 c 2
 466 360 l 2
 466 362 467 364 467 366 c 0
 467 386 452 410 432 427 c 1
EndSplineSet
Substitution2: "Ascent Substitute" uni0E0A.alt
EndChar

StartChar: uni0E19
Encoding: 3609 3609 55
Width: 602
VWidth: 0
Flags: W
HStem: -6 70<423.032 497.295> 386 65<203.408 230> 541 65<210.781 285.81>
VStem: 139 62<453.279 531.376> 287 62<459.261 538.721> 354 67<65.3315 101.5> 507 67<74.6216 152.736>
LayerCount: 2
Fore
SplineSet
268 606 m 0
 317 606 349 570 349 521 c 0
 349 513 348 505 346 496 c 2
 262 100 l 1
 316 154 406 209 466 225 c 1
 543 590 l 1
 636 590 l 1
 557 216 l 1
 541 207 l 1
 561 191 574 165 574 135 c 0
 574 126 573 118 571 109 c 0
 557 45 500 -6 440 -6 c 0
 389 -6 354 31 354 82 c 0
 354 87 354 91 355 96 c 1
 319 69 265 22 240 -6 c 1
 192 -6 164 17 164 62 c 0
 164 71 165 80 167 90 c 2
 230 386 l 1
 221 386 l 2
 172 386 139 422 139 471 c 0
 139 479 140 487 142 496 c 0
 155 557 211 606 268 606 c 0
254 541 m 0
 231 541 207 521 202 496 c 0
 201 493 201 490 201 487 c 0
 201 466 215 451 235 451 c 0
 258 451 281 471 286 496 c 0
 287 499 287 503 287 506 c 0
 287 526 274 541 254 541 c 0
474 154 m 0
 451 154 427 134 422 109 c 0
 421 106 421 103 421 100 c 0
 421 79 435 64 455 64 c 0
 478 64 501 84 506 109 c 0
 507 112 507 116 507 119 c 0
 507 139 494 154 474 154 c 0
EndSplineSet
EndChar

StartChar: uni0E23
Encoding: 3619 3619 56
Width: 509
VWidth: 0
Flags: W
HStem: -6 70<290.995 359.386> 144 70<296.95 361> 515 85<539.856 583> 537 75<278.339 439.429>
VStem: 223 67<65.5805 136.803> 384 96<281.287 357.306>
LayerCount: 2
Fore
SplineSet
380 612 m 0xdc
 451 612 485 575 505 544 c 1
 529 571 572 600 601 600 c 1
 583 515 l 1xec
 554 515 510 486 487 459 c 1
 447 515 414 537 364 537 c 0
 295 537 243 491 236 459 c 1
 381 443 480 430 480 350 c 0
 480 343 479 334 477 325 c 2
 430 104 l 2
 417 43 362 -6 305 -6 c 0
 256 -6 223 30 223 79 c 0
 223 87 224 95 226 104 c 0
 239 165 294 214 351 214 c 2
 361 214 l 1
 383 320 l 2
 383 322 384 324 384 327 c 0
 384 385 203 387 129 395 c 1
 157 529 268 612 380 612 c 0xdc
337 144 m 0
 317 144 296 126 291 104 c 0
 290 101 290 98 290 95 c 0
 290 77 303 64 320 64 c 0
 340 64 360 82 365 104 c 0
 366 107 366 110 366 113 c 0
 366 131 354 144 337 144 c 0
EndSplineSet
EndChar

StartChar: uni0E07
Encoding: 3591 3591 57
Width: 528
VWidth: 0
Flags: W
HStem: 386 65<417.408 445> 541 65<425.185 499.831>
VStem: 353 63<453.279 531.376> 501 63<459.261 538.721>
LayerCount: 2
Fore
SplineSet
482 606 m 0
 531 606 564 570 564 521 c 0
 564 513 563 505 561 496 c 2
 480 114 l 2
 465 45 409 -12 323 -12 c 1
 104 448 l 1
 216 448 l 1
 382 94 l 1
 445 386 l 1
 435 386 l 2
 386 386 353 422 353 471 c 0
 353 479 354 487 356 496 c 0
 369 557 425 606 482 606 c 0
468 541 m 0
 445 541 422 521 417 496 c 0
 416 493 416 489 416 486 c 0
 416 466 429 451 449 451 c 0
 472 451 495 471 500 496 c 0
 501 499 501 503 501 506 c 0
 501 526 488 541 468 541 c 0
EndSplineSet
EndChar

StartChar: uni0E0E
Encoding: 3598 3598 58
Width: 583
VWidth: 0
Flags: W
HStem: -340 60<90.8986 172.187> -180 60<100.763 181.683> -6 70<114.63 182.471> 144 70<120.697 184> 527 85<319.768 473.942>
VStem: 31 58<-276.929 -192.079> 47 67<65.0917 136.803> 503 94<334.349 496.39>
LayerCount: 2
Fore
SplineSet
418 612 m 0xfb
 523 612 597 552 597 438 c 0
 597 418 595 396 590 372 c 2
 456 -260 l 2
 440 -333 336 -340 336 -340 c 1
 336 -340 280 -295 233 -255 c 1
 206 -302 168 -340 113 -340 c 0
 64 -340 31 -304 31 -255 c 0xfd
 31 -247 32 -239 34 -230 c 0
 47 -169 103 -120 160 -120 c 0
 222 -120 232 -168 232 -168 c 1
 232 -168 255 -132 262 -100 c 1
 327 -100 l 1
 320 -134 290 -183 274 -198 c 1
 318 -235 359 -275 359 -275 c 1
 497 372 l 2
 501 390 503 406 503 421 c 0
 503 492 461 527 400 527 c 0
 346 527 289 493 260 440 c 1
 367 415 l 1
 367 415 308 352 294 290 c 1
 254 104 l 2
 241 43 190 -6 133 -6 c 0
 83 -6 47 31 47 81 c 0
 47 89 47 96 49 104 c 0
 62 165 118 214 175 214 c 2
 184 214 l 1
 196 270 l 2
 214 354 259 390 259 390 c 1
 152 410 l 1
 197 500 296 612 418 612 c 0xfb
160 144 m 0
 140 144 120 126 115 104 c 0
 114 101 114 98 114 95 c 0xfb
 114 77 126 64 143 64 c 0
 163 64 184 82 189 104 c 0
 190 107 190 110 190 113 c 0
 190 131 177 144 160 144 c 0
147 -180 m 0
 121 -180 96 -202 90 -230 c 0
 89 -234 89 -238 89 -242 c 0xfd
 89 -264 104 -280 126 -280 c 0
 152 -280 177 -258 183 -230 c 0
 184 -226 184 -222 184 -218 c 0
 184 -196 169 -180 147 -180 c 0
EndSplineSet
Substitution2: "Descent Shorten" uni0E0E.shorten
EndChar

StartChar: uni0E2B
Encoding: 3627 3627 59
Width: 584
VWidth: 0
Flags: W
HStem: 0 21G<148 254.364 427 524.23> 386 65<203.408 230> 541 65<210.781 285.81 520.703 589.169>
VStem: 139 62<453.279 531.376> 287 62<459.261 538.721> 444 63<446.042 525.376> 593 62<454.256 532.721>
LayerCount: 2
Fore
SplineSet
573 600 m 0
 622 600 655 564 655 515 c 0
 655 507 654 499 652 490 c 0
 643 448 613 411 576 392 c 1
 601 383 l 1
 520 0 l 1
 427 0 l 1
 505 368 l 1
 505 368 310 279 274 110 c 2
 250 0 l 1
 148 0 l 1
 230 386 l 1
 221 386 l 2
 172 386 139 422 139 471 c 0
 139 479 140 487 142 496 c 0
 155 557 211 606 268 606 c 0
 317 606 349 570 349 521 c 0
 349 513 348 505 346 496 c 2
 304 295 l 1
 348 350 411 379 458 415 c 1
 449 429 444 447 444 466 c 0
 444 474 445 482 447 490 c 0
 460 551 516 600 573 600 c 0
559 535 m 0
 536 535 513 515 508 490 c 0
 507 487 507 483 507 480 c 0
 507 460 520 445 540 445 c 0
 563 445 587 465 592 490 c 0
 593 493 593 496 593 499 c 0
 593 520 579 535 559 535 c 0
254 541 m 0
 231 541 207 521 202 496 c 0
 201 493 201 490 201 487 c 0
 201 466 215 451 235 451 c 0
 258 451 281 471 286 496 c 0
 287 499 287 503 287 506 c 0
 287 526 274 541 254 541 c 0
EndSplineSet
EndChar

StartChar: uni0E3A
Encoding: 3642 3642 60
Width: 3
VWidth: 0
Flags: W
HStem: -230 160<-209.748 -122.954>
VStem: -243 153<-196.453 -103.333>
LayerCount: 2
Fore
SplineSet
-92 -150 m 0
 -102 -195 -142 -230 -184 -230 c 0
 -220 -230 -243 -205 -243 -169 c 0
 -243 -163 -242 -157 -241 -150 c 0
 -231 -105 -192 -70 -150 -70 c 0
 -114 -70 -90 -96 -90 -131 c 0
 -90 -137 -91 -143 -92 -150 c 0
EndSplineSet
Position2: "Vowel Below-Low" dx=0 dy=-200 dh=0 dv=0
EndChar

StartChar: uni0E53
Encoding: 3667 3667 61
Width: 741
VWidth: 0
Flags: W
HStem: -6 80<259.93 359.2> 214 80<277.844 377.267> 500 100<307.713 397.245>
VStem: 107 144<81.7873 214.5> 385 76<99.3362 205.112> 417 71<459 482.374> 651 96<277.312 496.974>
LayerCount: 2
Fore
SplineSet
602 606 m 1xf6
 648 606 l 1
 718 578 747 512 747 424 c 0
 747 388 742 348 733 306 c 2
 668 0 l 1
 566 0 l 1
 631 306 l 2
 642 357 651 401 651 435 c 0
 651 467 643 489 621 500 c 1
 490 319 l 1
 410 319 l 1
 414 339 417 362 417 385 c 0xf6
 417 443 401 500 356 500 c 0
 308 500 246 416 221 300 c 0
 216 276 211 242 208 212 c 1
 242 261 296 294 350 294 c 0
 416 294 461 245 461 178 c 0xfa
 461 167 460 156 457 144 c 0
 439 61 354 -6 277 -6 c 0
 167 -6 107 74 107 199 c 0
 107 230 110 264 118 300 c 0
 153 466 265 600 377 600 c 0
 485 600 488 473 488 460 c 0
 488 459 488 459 488 459 c 1
 602 606 l 1xf6
333 214 m 0
 297 214 261 183 253 144 c 0
 252 139 251 133 251 128 c 0
 251 97 272 74 303 74 c 0
 339 74 375 105 383 144 c 0
 384 149 385 155 385 160 c 0xfa
 385 191 364 214 333 214 c 0
EndSplineSet
EndChar

StartChar: uni0E24
Encoding: 3620 3620 62
Width: 564
VWidth: 0
Flags: W
HStem: -6 70<178.995 247.951> 144 70<230 253.345> 527 85<300.768 454.942>
VStem: 111 67<65.5805 137.676> 255 67<71.197 142.42> 484 94<334.147 496.39>
LayerCount: 2
Fore
SplineSet
230 214 m 1
 240 214 l 2
 289 214 322 178 322 129 c 0
 322 121 321 113 319 104 c 0
 306 43 250 -6 193 -6 c 0
 144 -6 111 30 111 79 c 0
 111 87 112 95 114 104 c 2
 149 270 l 2
 167 354 221 390 221 390 c 1
 133 410 l 1
 178 500 277 612 399 612 c 0
 504 612 578 552 578 438 c 0
 578 418 576 396 571 372 c 2
 420 -340 l 1
 327 -340 l 1
 478 372 l 2
 482 390 484 406 484 421 c 0
 484 492 442 527 381 527 c 0
 327 527 270 493 241 440 c 1
 329 415 l 1
 329 415 260 352 247 290 c 2
 230 214 l 1
225 144 m 0
 205 144 184 126 179 104 c 0
 178 101 178 98 178 95 c 0
 178 77 191 64 208 64 c 0
 228 64 249 82 254 104 c 0
 255 107 255 110 255 113 c 0
 255 131 242 144 225 144 c 0
EndSplineSet
EndChar

StartChar: uni0E26
Encoding: 3622 3622 63
Width: 583
VWidth: 0
Flags: W
HStem: -6 70<114.483 182.951> 144 70<120.697 184> 527 85<319.768 473.942>
VStem: 46 68<65.5805 136.803> 503 94<334.147 496.39>
LayerCount: 2
Fore
SplineSet
418 612 m 0
 523 612 597 552 597 438 c 0
 597 418 595 396 590 372 c 2
 439 -340 l 1
 346 -340 l 1
 497 372 l 2
 501 390 503 406 503 421 c 0
 503 492 461 527 400 527 c 0
 346 527 289 493 260 440 c 1
 367 415 l 1
 367 415 308 352 294 290 c 1
 254 104 l 2
 241 43 185 -6 128 -6 c 0
 79 -6 46 30 46 79 c 0
 46 87 47 95 49 104 c 0
 62 165 118 214 175 214 c 2
 184 214 l 1
 196 270 l 2
 214 354 259 390 259 390 c 1
 152 410 l 1
 197 500 296 612 418 612 c 0
160 144 m 0
 140 144 120 126 115 104 c 0
 114 101 114 98 114 95 c 0
 114 77 126 64 143 64 c 0
 163 64 184 82 189 104 c 0
 190 107 190 110 190 113 c 0
 190 131 177 144 160 144 c 0
EndSplineSet
EndChar

StartChar: uni0E45
Encoding: 3653 3653 64
Width: 253
VWidth: 0
Flags: W
HStem: 527 85<48.2476 181.347>
VStem: -90 98<434 484.393> 197 95<320.844 511.647>
LayerCount: 2
Fore
SplineSet
34 -340 m 1
 192 402 l 2
 195 417 197 431 197 445 c 0
 197 492 176 527 121 527 c 0
 51 527 17 475 8 434 c 1
 -90 434 l 1
 -73 515 6 612 139 612 c 0
 247 612 292 547 292 462 c 0
 292 443 289 423 285 402 c 2
 127 -340 l 1
 34 -340 l 1
EndSplineSet
EndChar

StartChar: uni0E50
Encoding: 3664 3664 65
Width: 689
VWidth: 0
Flags: W
HStem: -12 90<279.887 452.356> 522 90<364.644 537.113>
VStem: 110 105<146.686 355.148> 602 105<244.852 453.314>
LayerCount: 2
Fore
SplineSet
475 612 m 0
 613 612 707 508 707 370 c 0
 707 347 704 324 699 300 c 0
 662 128 502 -12 342 -12 c 0
 204 -12 110 92 110 230 c 0
 110 253 113 276 118 300 c 0
 155 472 315 612 475 612 c 0
456 522 m 0
 352 522 247 423 221 300 c 0
 217 281 215 263 215 245 c 0
 215 149 273 78 361 78 c 0
 465 78 570 177 596 300 c 0
 600 319 602 337 602 355 c 0
 602 451 544 522 456 522 c 0
EndSplineSet
EndChar

StartChar: uni0E27
Encoding: 3623 3623 66
Width: 500
VWidth: 0
Flags: W
HStem: -6 70<309.995 378.513> 144 70<316.697 380> 527 85<251.803 403.874>
VStem: 110 98<434 483.327> 242 67<65.5805 136.803> 424 95<366.109 507.759>
LayerCount: 2
Fore
SplineSet
353 612 m 0
 470 612 519 544 519 458 c 0
 519 440 517 421 513 402 c 2
 450 104 l 2
 437 43 381 -6 324 -6 c 0
 275 -6 242 30 242 79 c 0
 242 87 243 95 245 104 c 0
 258 165 314 214 371 214 c 2
 380 214 l 1
 420 402 l 2
 423 415 424 428 424 440 c 0
 424 490 399 527 335 527 c 0
 256 527 217 475 208 434 c 1
 110 434 l 1
 127 515 211 612 353 612 c 0
356 144 m 0
 336 144 315 126 310 104 c 0
 309 101 309 98 309 95 c 0
 309 77 322 64 339 64 c 0
 359 64 379 82 384 104 c 0
 385 107 385 110 385 113 c 0
 385 131 373 144 356 144 c 0
EndSplineSet
EndChar

StartChar: uni0E17
Encoding: 3607 3607 67
Width: 592
VWidth: 0
Flags: W
HStem: 0 21G<148 254.364 427 524.261> 386 65<203.408 230> 541 65<210.781 285.81>
VStem: 139 62<453.279 531.376> 287 62<459.261 538.721> 427 93<0 39.3514>
LayerCount: 2
Fore
SplineSet
268 606 m 0
 317 606 349 570 349 521 c 0
 349 513 348 505 346 496 c 2
 308 315 l 1
 370 411 428 495 526 596 c 1
 588 596 623 564 623 504 c 0
 623 491 621 476 618 460 c 2
 520 0 l 1
 427 0 l 1
 538 520 l 1
 465 445 299 227 274 110 c 2
 250 0 l 1
 148 0 l 1
 230 386 l 1
 221 386 l 2
 172 386 139 422 139 471 c 0
 139 479 140 487 142 496 c 0
 155 557 211 606 268 606 c 0
254 541 m 0
 231 541 207 521 202 496 c 0
 201 493 201 490 201 487 c 0
 201 466 215 451 235 451 c 0
 258 451 281 471 286 496 c 0
 287 499 287 503 287 506 c 0
 287 526 274 541 254 541 c 0
EndSplineSet
EndChar

StartChar: uni0E2C
Encoding: 3628 3628 68
Width: 650
VWidth: 0
Flags: W
HStem: 386 65<194.408 221> 430 60<549.188 565> 541 65<201.418 276.331> 570 60<554.466 624.239>
VStem: 130 62<453.279 531.376> 278 62<459.897 538.721> 491 57<491.729 561.984> 625 57<536.141 568.875>
LayerCount: 2
Fore
SplineSet
608 630 m 0x5f
 652 630 682 596 682 552 c 0
 682 547 682 541 681 536 c 1
 726 558 767 590 767 590 c 1
 747 500 l 1
 747 500 711 475 664 460 c 1
 586 91 l 2
 568 6 507 -6 449 -6 c 1
 417 300 l 1
 254 -6 l 1
 204 -6 155 5 155 62 c 0
 155 71 156 80 158 91 c 2
 221 386 l 1
 212 386 l 2
 163 386 130 422 130 471 c 0
 130 479 131 487 133 496 c 0
 146 557 201 606 258 606 c 0xaf
 307 606 340 570 340 521 c 0
 340 513 339 505 337 496 c 2
 255 110 l 1
 415 400 l 1
 461 400 l 1
 497 110 l 1
 565 430 l 1
 521 430 491 463 491 508 c 0
 491 515 491 522 493 530 c 0
 505 585 557 630 608 630 c 0x5f
595 570 m 0x5f
 575 570 554 552 549 530 c 0
 548 527 548 524 548 521 c 0
 548 503 561 490 578 490 c 0
 598 490 619 508 624 530 c 0
 625 533 625 536 625 539 c 0
 625 557 612 570 595 570 c 0x5f
245 541 m 0xaf
 222 541 198 521 193 496 c 0
 192 493 192 489 192 486 c 0
 192 466 205 451 225 451 c 0
 248 451 272 471 277 496 c 0
 278 499 278 503 278 506 c 0
 278 526 265 541 245 541 c 0xaf
EndSplineSet
EndChar

StartChar: uni0E18
Encoding: 3608 3608 69
Width: 536
VWidth: 0
Flags: W
HStem: -12 85<215.122 373.736> 515 85<548.856 592> 537 75<286.639 448.429>
VStem: 109 95<86.6047 176.615> 440 95<281.231 354.413>
LayerCount: 2
Fore
SplineSet
389 612 m 0xb8
 460 612 494 575 514 544 c 1
 538 571 581 600 610 600 c 1
 592 515 l 1xd8
 563 515 519 486 496 459 c 1
 456 515 423 537 373 537 c 0
 304 537 253 494 246 462 c 1
 394 445 535 434 535 342 c 0
 535 335 534 328 532 320 c 2
 494 140 l 2
 484 92 436 -12 271 -12 c 0
 136 -12 109 58 109 109 c 0
 109 121 110 131 112 140 c 2
 148 310 l 1
 241 310 l 1
 205 140 l 2
 204 137 204 133 204 130 c 0
 204 103 225 73 289 73 c 0
 362 73 395 112 401 140 c 2
 439 320 l 2
 439 322 440 324 440 325 c 0
 440 385 214 387 139 395 c 1
 167 529 277 612 389 612 c 0xb8
EndSplineSet
EndChar

StartChar: uni0E10
Encoding: 3600 3600 70
Width: 537
VWidth: 0
Flags: W
HStem: -340 50<29.9022 97.1328> -210 50<36.2119 104.087> -210 40<352.722 368> -100 40<358.583 416.599> 140 60<184.761 253.204> 280 60<190.466 259.385> 515 85<549.517 592> 537 75<288.339 449.429>
VStem: -19 48<-287.941 -218.937> 127 57<201.729 271.984> 169 56<-189.196 -120> 313 38<-168.927 -108.74> 403 96<281.938 356.309> 418 38<-161.146 -101.312>
LayerCount: 2
Fore
SplineSet
390 612 m 0x9dd8
 461 612 495 575 515 544 c 1
 539 571 581 600 610 600 c 1
 592 515 l 1x9ed8
 563 515 520 486 497 459 c 1
 457 515 424 537 374 537 c 0
 305 537 253 491 246 459 c 1
 392 443 499 429 499 349 c 0
 499 341 498 334 496 325 c 2
 440 60 l 2
 427 -2 314 -6 314 -6 c 1
 324 40 l 2
 327 54 329 70 329 86 c 0
 329 126 319 169 298 199 c 1
 277 164 239 140 201 140 c 0
 157 140 127 173 127 218 c 0
 127 225 127 232 129 240 c 0
 141 295 193 340 244 340 c 0
 310 340 355 266 371 175 c 1
 402 320 l 2
 402 322 403 324 403 326 c 0
 403 385 213 387 139 395 c 1
 167 529 278 612 390 612 c 0x9dd8
231 280 m 0
 211 280 190 262 185 240 c 0
 184 237 184 234 184 231 c 0
 184 213 197 200 214 200 c 0
 234 200 254 218 259 240 c 0
 260 243 260 246 260 249 c 0
 260 267 248 280 231 280 c 0
400 -60 m 0
 433 -60 456 -85 456 -118 c 0
 456 -124 455 -129 454 -135 c 2
 428 -260 l 2
 412 -333 322 -340 322 -340 c 1
 263 -255 l 1
 210 -334 l 1
 166 -334 l 1
 135 -287 l 1
 115 -318 82 -340 48 -340 c 0
 8 -340 -19 -310 -19 -270 c 0
 -19 -264 -19 -257 -17 -250 c 0
 -6 -200 40 -160 86 -160 c 0xdcb4
 111 -160 131 -172 143 -191 c 1
 154 -172 164 -145 169 -120 c 1
 225 -120 l 1
 215 -166 187 -214 167 -240 c 1
 194 -285 l 1
 250 -200 l 1
 290 -200 l 1
 352 -287 l 1
 368 -210 l 1xbcb4
 337 -210 313 -184 313 -151 c 0
 313 -146 314 -140 315 -135 c 0
 324 -94 362 -60 400 -60 c 0
392 -100 m 0
 374 -100 356 -116 352 -135 c 0
 351 -138 351 -140 351 -143 c 0
 351 -158 361 -170 377 -170 c 0xbc94
 395 -170 413 -154 417 -135 c 0
 418 -132 418 -130 418 -127 c 0
 418 -112 408 -100 392 -100 c 0
75 -210 m 0xdc90
 55 -210 35 -228 30 -250 c 0
 29 -253 29 -256 29 -259 c 0
 29 -277 41 -290 58 -290 c 0
 78 -290 99 -272 104 -250 c 0
 105 -247 105 -244 105 -241 c 0
 105 -223 92 -210 75 -210 c 0xdc90
EndSplineSet
Substitution2: "Descent Substitute" uni0E10.descless
EndChar

StartChar: uni0E2F
Encoding: 3631 3631 71
Width: 481
VWidth: 0
Flags: W
HStem: -60 90<164 246.589> 340 70<243.206 370.023> 535 55<197.439 259.17>
VStem: 139 54<415.5 531.278> 260 52<468.753 534.349> 455 75<502.9 570>
LayerCount: 2
Fore
SplineSet
246 590 m 0
 285 590 312 561 312 521 c 0
 312 514 312 507 310 500 c 0
 302 464 269 427 243 425 c 1
 248 415 276 410 296 410 c 0
 374 410 436 482 455 570 c 1
 530 570 l 1
 530 570 505 453 455 220 c 0
 422 67 297 -60 145 -60 c 1
 164 30 l 1
 254 30 340 117 362 220 c 0
 393 365 366 240 397 385 c 1
 374 365 333 340 281 340 c 0
 230 340 139 368 139 463 c 0
 139 474 140 486 143 500 c 0
 154 550 200 590 246 590 c 0
234 535 m 0
 216 535 198 519 194 500 c 0
 193 497 193 495 193 492 c 0
 193 477 203 465 219 465 c 0
 237 465 255 481 259 500 c 0
 260 503 260 505 260 508 c 0
 260 523 250 535 234 535 c 0
EndSplineSet
EndChar

StartChar: uni0E5A
Encoding: 3674 3674 72
Width: 647
VWidth: 0
Flags: W
HStem: -60 80<180 264.589> 340 70<261.206 394.238> 535 55<215.439 277.17>
VStem: 157 54<415.5 531.278> 278 52<468.753 534.349>
LayerCount: 2
Fore
SplineSet
264 590 m 0
 303 590 330 561 330 521 c 0
 330 514 330 507 328 500 c 0
 320 464 287 427 261 425 c 1
 266 415 294 410 314 410 c 0
 392 410 464 482 483 570 c 1
 548 570 l 1
 473 220 l 2
 440 67 315 -60 163 -60 c 1
 180 20 l 1
 270 20 377 117 399 220 c 2
 434 385 l 1
 411 365 351 340 299 340 c 0
 248 340 157 368 157 463 c 0
 157 474 158 486 161 500 c 0
 172 550 218 590 264 590 c 0
604 570 m 1
 678 570 l 1
 589 150 l 2
 566 40 480 -32 418 -60 c 1
 401 13 l 1
 443 37 498 77 514 150 c 2
 604 570 l 1
252 535 m 0
 234 535 216 519 212 500 c 0
 211 497 211 495 211 492 c 0
 211 477 221 465 237 465 c 0
 255 465 273 481 277 500 c 0
 278 503 278 505 278 508 c 0
 278 523 268 535 252 535 c 0
EndSplineSet
EndChar

StartChar: uni0E13
Encoding: 3603 3603 73
Width: 806
VWidth: 0
Flags: W
HStem: -6 70<178.995 247.951 627.852 701.295> 144 70<230 253.345> 527 85<300.768 454.942>
VStem: 111 67<65.5805 137.676> 255 67<71.197 142.42> 484 94<336.109 496.39> 711 67<74.6216 152.736>
LayerCount: 2
Fore
SplineSet
399 612 m 0
 504 612 578 552 578 438 c 0
 578 418 576 396 571 372 c 0
 552 283 534 199 515 110 c 1
 542 151 614 217 672 235 c 1
 748 590 l 1
 841 590 l 1
 761 216 l 1
 745 207 l 1
 765 191 778 165 778 135 c 0
 778 126 777 118 775 109 c 0
 761 45 704 -6 644 -6 c 0
 596 -6 562 28 559 75 c 1
 540 57 513 23 491 -6 c 1
 443 -6 415 17 415 62 c 0
 415 71 416 80 418 90 c 0
 438 184 458 278 478 372 c 0
 482 390 484 406 484 421 c 0
 484 492 442 527 381 527 c 0
 327 527 270 493 241 440 c 1
 329 415 l 1
 329 415 260 352 247 290 c 2
 230 214 l 1
 240 214 l 2
 289 214 322 178 322 129 c 0
 322 121 321 113 319 104 c 0
 306 43 250 -6 193 -6 c 0
 144 -6 111 30 111 79 c 0
 111 87 112 95 114 104 c 2
 149 270 l 2
 167 354 221 390 221 390 c 1
 133 410 l 1
 178 500 277 612 399 612 c 0
678 154 m 0
 655 154 632 134 627 109 c 0
 626 106 626 102 626 99 c 0
 626 79 639 64 659 64 c 0
 682 64 705 84 710 109 c 0
 711 112 711 116 711 119 c 0
 711 139 698 154 678 154 c 0
225 144 m 0
 205 144 184 126 179 104 c 0
 178 101 178 98 178 95 c 0
 178 77 191 64 208 64 c 0
 228 64 249 82 254 104 c 0
 255 107 255 110 255 113 c 0
 255 131 242 144 225 144 c 0
EndSplineSet
EndChar

StartChar: uni0E08
Encoding: 3592 3592 74
Width: 536
VWidth: 0
Flags: W
HStem: 200 60<222.546 297.854> 350 60<230.007 304.839> 527 85<276.172 433.091>
VStem: 129 97<434 480.505> 164 57<260.935 341.103> 460 96<365.635 500.351>
LayerCount: 2
Fore
SplineSet
380 612 m 0xf4
 500 612 556 541 556 453 c 0
 556 436 554 419 550 402 c 2
 477 60 l 2
 464 -2 356 -6 356 -6 c 1
 365 36 l 2
 370 58 372 83 372 108 c 0
 372 158 362 211 336 257 c 1
 320 232 286 200 242 200 c 0
 195 200 164 235 164 282 c 0xec
 164 289 164 297 166 305 c 0
 178 363 232 410 286 410 c 0
 364 410 405 304 418 220 c 1
 457 402 l 2
 459 413 460 423 460 433 c 0
 460 487 429 527 362 527 c 0
 283 527 235 475 226 434 c 1
 129 434 l 1
 146 515 238 612 380 612 c 0xf4
274 350 m 0
 251 350 227 330 222 305 c 0
 221 302 221 298 221 295 c 0
 221 275 234 260 254 260 c 0
 277 260 301 280 306 305 c 0
 307 308 307 312 307 315 c 0
 307 335 294 350 274 350 c 0
EndSplineSet
EndChar

StartChar: uni0E0D
Encoding: 3597 3597 75
Width: 788
VWidth: 0
Flags: W
HStem: -320 70<438.178 559.624> -125 55<382.439 444.17> -12 85<523.332 633.735> -6 70<178.995 247.951> 144 70<230 253.345> 527 85<300.768 454.942>
VStem: 111 67<65.5805 137.676> 255 67<71.197 142.42> 324 54<-243.5 -128.722> 422 97<77.1856 229.469> 445 52<-191.235 -125.651> 484 94<281.312 496.803> 640 84<-152.923 -90>
LayerCount: 2
Fore
SplineSet
478 372 m 2xefc8
 482 390 484 406 484 421 c 0
 484 492 442 527 381 527 c 0
 327 527 270 493 241 440 c 1
 329 415 l 1
 329 415 260 352 247 290 c 2
 230 214 l 1
 240 214 l 2
 289 214 322 178 322 129 c 0
 322 121 321 113 319 104 c 0
 306 43 250 -6 193 -6 c 0
 144 -6 111 30 111 79 c 0
 111 87 112 95 114 104 c 2
 149 270 l 2
 167 354 221 390 221 390 c 1
 133 410 l 1
 178 500 277 612 399 612 c 0
 504 612 578 552 578 438 c 0xdf98
 578 418 576 396 571 372 c 2
 522 140 l 2
 520 132 519 124 519 116 c 0
 519 94 529 73 573 73 c 0
 633 73 646 112 652 140 c 2
 748 590 l 1
 841 590 l 1
 743 130 l 2
 735 92 707 -12 554 -12 c 0
 443 -12 422 43 422 88 c 0
 422 104 425 120 427 130 c 2
 478 372 l 2xefc8
225 144 m 0
 205 144 184 126 179 104 c 0
 178 101 178 98 178 95 c 0
 178 77 191 64 208 64 c 0
 228 64 249 82 254 104 c 0
 255 107 255 110 255 113 c 0
 255 131 242 144 225 144 c 0
431 -70 m 0
 470 -70 497 -99 497 -139 c 0xcfa8
 497 -146 497 -153 495 -160 c 0
 488 -191 463 -222 437 -238 c 1
 442 -248 470 -250 490 -250 c 0
 574 -250 628 -145 640 -90 c 1
 724 -90 l 1
 703 -189 616 -320 475 -320 c 0
 424 -320 324 -292 324 -195 c 0
 324 -184 325 -173 328 -160 c 0
 339 -110 385 -70 431 -70 c 0
419 -125 m 0
 401 -125 383 -141 379 -160 c 0
 378 -163 378 -165 378 -168 c 0
 378 -183 388 -195 404 -195 c 0
 422 -195 440 -179 444 -160 c 0
 445 -157 445 -155 445 -152 c 0
 445 -137 435 -125 419 -125 c 0
EndSplineSet
Substitution2: "Descent Substitute" uni0E0D.descless
EndChar

StartChar: uni0E0F
Encoding: 3599 3599 76
Width: 584
VWidth: 0
Flags: W
HStem: -340 55<-7.06624 73.8031> -185 55<2.55347 84.3994> -6 70<115.142 183.471> 144 70<121.697 185> 527 85<320.672 474.942>
VStem: -61 52<-283.02 -196.495> 48 66<65.0917 136.803> 160 60<-173.749 -120> 504 94<334.614 496.39>
LayerCount: 2
Fore
SplineSet
419 612 m 0
 524 612 598 552 598 438 c 0
 598 418 596 396 591 372 c 2
 456 -260 l 2
 440 -333 328 -340 328 -340 c 1
 285 -215 l 1
 194 -334 l 1
 143 -334 l 1
 116 -282 l 1
 93 -316 54 -340 16 -340 c 0
 -31 -340 -61 -305 -61 -258 c 0
 -61 -251 -61 -243 -59 -235 c 0
 -47 -177 7 -130 61 -130 c 0
 94 -130 120 -148 132 -176 c 1
 147 -160 155 -144 160 -120 c 1
 220 -120 l 1
 210 -168 187 -199 158 -224 c 1
 180 -270 l 1
 288 -130 l 1
 317 -130 l 1
 363 -260 l 1
 498 372 l 2
 502 390 504 406 504 421 c 0
 504 492 462 527 401 527 c 0
 347 527 290 493 261 440 c 1
 367 415 l 1
 367 415 308 352 294 290 c 1
 255 104 l 2
 242 43 191 -6 134 -6 c 0
 84 -6 48 31 48 81 c 0
 48 89 48 96 50 104 c 0
 63 165 119 214 176 214 c 2
 185 214 l 1
 197 270 l 2
 215 354 260 390 260 390 c 1
 152 410 l 1
 197 500 297 612 419 612 c 0
161 144 m 0
 141 144 120 126 115 104 c 0
 114 101 114 98 114 95 c 0
 114 77 127 64 144 64 c 0
 164 64 185 82 190 104 c 0
 191 107 191 110 191 113 c 0
 191 131 178 144 161 144 c 0
49 -185 m 0
 23 -185 -2 -207 -8 -235 c 0
 -9 -239 -9 -243 -9 -247 c 0
 -9 -269 6 -285 28 -285 c 0
 54 -285 79 -263 85 -235 c 0
 86 -231 86 -227 86 -223 c 0
 86 -201 71 -185 49 -185 c 0
EndSplineSet
Substitution2: "Descent Shorten" uni0E0F.shorten
EndChar

StartChar: uni0E4B
Encoding: 3659 3659 77
Width: 4
VWidth: 0
Flags: W
HStem: 1050 50<-21 43 128 192>
VStem: -32 234
LayerCount: 2
Fore
SplineSet
70 1180 m 1
 145 1180 l 1
 128 1100 l 1
 202 1100 l 1
 192 1050 l 1
 117 1050 l 1
 96 950 l 1
 30 990 l 1
 43 1050 l 1
 -32 1050 l 1
 -21 1100 l 1
 53 1100 l 1
 70 1180 l 1
EndSplineSet
Position2: "Nikhahit & Tone High-Left" dx=-180 dy=0 dh=0 dv=0
Position2: "Mai Han-Akat & Tone High-Left" dx=-220 dy=0 dh=0 dv=0
Position2: "Tone High-Left" dx=-130 dy=0 dh=0 dv=0
MultipleSubs2: "Tone High-Low" uni0E4B.low
EndChar

StartChar: uni0E0F.shorten
Encoding: 63290 63290 78
Width: 584
VWidth: 0
Flags: W
HStem: -240 55<14.3945 95.0414> -85 55<23.5535 105.399> -6 70<115.142 183.471> 144 70<121.697 185> 527 85<320.672 474.942>
VStem: -40 52<-183.02 -96.495> 48 66<65.0917 136.803> 181 60<-73.7492 -20> 504 94<334.76 496.39>
LayerCount: 2
Fore
SplineSet
419 612 m 0
 524 612 598 552 598 438 c 0
 598 418 596 396 591 372 c 2
 478 -160 l 2
 462 -233 349 -240 349 -240 c 1
 306 -115 l 1
 216 -234 l 1
 164 -234 l 1
 137 -182 l 1
 114 -216 76 -240 38 -240 c 0
 -9 -240 -40 -205 -40 -158 c 0
 -40 -151 -40 -143 -38 -135 c 0
 -26 -77 28 -30 82 -30 c 0
 115 -30 141 -48 153 -76 c 1
 168 -60 176 -44 181 -20 c 1
 241 -20 l 1
 231 -68 208 -99 179 -124 c 1
 201 -170 l 1
 309 -30 l 1
 338 -30 l 1
 385 -160 l 1
 498 372 l 2
 502 390 504 406 504 421 c 0
 504 492 462 527 401 527 c 0
 347 527 290 493 261 440 c 1
 367 415 l 1
 367 415 308 352 294 290 c 1
 255 104 l 2
 242 43 191 -6 134 -6 c 0
 84 -6 48 31 48 81 c 0
 48 89 48 96 50 104 c 0
 63 165 119 214 176 214 c 2
 185 214 l 1
 197 270 l 2
 215 354 260 390 260 390 c 1
 152 410 l 1
 197 500 297 612 419 612 c 0
161 144 m 0
 141 144 120 126 115 104 c 0
 114 101 114 98 114 95 c 0
 114 77 127 64 144 64 c 0
 164 64 185 82 190 104 c 0
 191 107 191 110 191 113 c 0
 191 131 178 144 161 144 c 0
70 -85 m 0
 44 -85 19 -107 13 -135 c 0
 12 -139 12 -143 12 -147 c 0
 12 -169 27 -185 49 -185 c 0
 75 -185 100 -163 106 -135 c 0
 107 -131 107 -127 107 -123 c 0
 107 -101 92 -85 70 -85 c 0
EndSplineSet
EndChar

StartChar: uni0E0E.shorten
Encoding: 63291 63291 79
Width: 583
VWidth: 0
Flags: W
HStem: -240 60<111.899 193.368> -80 60<121.763 202.683> -20 20G<279.5 348> -6 70<114.63 182.471> 144 70<120.697 184> 527 85<319.768 473.942>
VStem: 47 67<-178.997 -89.5633 65.0917 136.803> 503 94<334.76 496.39>
LayerCount: 2
Fore
SplineSet
418 612 m 0x9f
 523 612 597 552 597 438 c 0
 597 418 595 396 590 372 c 2
 477 -160 l 2
 461 -233 358 -240 358 -240 c 1
 358 -240 302 -195 255 -155 c 1
 228 -202 189 -240 134 -240 c 0
 85 -240 52 -204 52 -155 c 0
 52 -147 53 -139 55 -130 c 0
 68 -69 124 -20 181 -20 c 0xdf
 243 -20 253 -68 253 -68 c 1
 253 -68 276 -32 283 0 c 1
 348 0 l 1xaf
 341 -34 311 -83 295 -98 c 1
 339 -135 381 -175 381 -175 c 1
 497 372 l 2
 501 390 503 406 503 421 c 0
 503 492 461 527 400 527 c 0
 346 527 289 493 260 440 c 1
 367 415 l 1
 367 415 308 352 294 290 c 1
 254 104 l 2
 241 43 190 -6 133 -6 c 0
 83 -6 47 31 47 81 c 0
 47 89 47 96 49 104 c 0
 62 165 118 214 175 214 c 2
 184 214 l 1
 196 270 l 2
 214 354 259 390 259 390 c 1
 152 410 l 1
 197 500 296 612 418 612 c 0x9f
160 144 m 0
 140 144 120 126 115 104 c 0
 114 101 114 98 114 95 c 0
 114 77 126 64 143 64 c 0
 163 64 184 82 189 104 c 0
 190 107 190 110 190 113 c 0
 190 131 177 144 160 144 c 0
168 -80 m 0
 142 -80 117 -102 111 -130 c 0
 110 -134 110 -138 110 -142 c 0
 110 -164 125 -180 147 -180 c 0
 173 -180 198 -158 204 -130 c 0
 205 -126 205 -122 205 -118 c 0
 205 -96 190 -80 168 -80 c 0
EndSplineSet
EndChar

StartChar: uni0E5B
Encoding: 3675 3675 80
Width: 1241
VWidth: 0
Flags: W
HStem: -12 70<249.234 412.703> 149 57<320.013 414.139> 240 70<947.665 1129> 381 45<308.087 362.583> 543 69<319.248 456.348>
VStem: 109 77<127.64 360.363> 249 48<240.5 373.556> 364 44<300.006 379.665> 478 75<317.123 522.515> 678 54<210 400>
LayerCount: 2
Fore
SplineSet
408 612 m 0
 510 612 553 543 553 452 c 0
 553 429 550 405 545 380 c 0
 515 237 447 149 351 149 c 0
 280 149 249 205 249 276 c 0
 249 295 252 315 256 336 c 0
 267 386 309 426 350 426 c 0
 384 426 408 398 408 359 c 0
 408 352 407 344 405 336 c 0
 395 288 354 248 315 246 c 1
 319 225 332 206 363 206 c 0
 417 206 447 271 470 380 c 0
 475 405 478 427 478 446 c 0
 478 508 451 543 393 543 c 0
 303 543 221 431 193 300 c 0
 188 276 186 254 186 233 c 0
 186 128 245 58 327 58 c 0
 511 58 607 366 662 560 c 1
 732 560 l 1
 732 210 l 1
 868 500 l 1
 914 500 l 1
 914 417 929 310 985 310 c 2
 1143 310 l 1
 1129 240 l 1
 971 240 l 2
 881 240 868 370 868 370 c 1
 739 90 l 1
 678 89 l 1
 679 400 l 1
 640 281 544 -12 312 -12 c 0
 164 -12 109 94 109 212 c 0
 109 241 112 271 118 300 c 0
 153 466 278 612 408 612 c 0
340 381 m 0
 322 381 303 361 298 336 c 0
 297 332 297 327 297 324 c 0
 297 305 306 291 321 291 c 0
 339 291 358 311 363 336 c 0
 364 340 364 345 364 348 c 0
 364 367 355 381 340 381 c 0
EndSplineSet
EndChar

StartChar: uni0E4E
Encoding: 3662 3662 81
Width: 7
VWidth: 0
Flags: W
HStem: 680 60<-228.085 -198> 870 21G<-111 -91.8> 1080 60<-83.3323 11.269>
VStem: -302 66<748.29 867.618> -180 66<948.547 1048.66> 20 66<1000 1072.65>
LayerCount: 2
Fore
SplineSet
-17 1140 m 0
 45 1140 86 1093 86 1031 c 0
 86 1021 85 1011 83 1000 c 1
 18 1000 l 1
 19 1007 20 1014 20 1020 c 0
 20 1054 0 1080 -30 1080 c 0
 -66 1080 -103 1044 -112 1000 c 0
 -114 993 -114 986 -114 980 c 0
 -114 947 -96 923 -69 920 c 1
 -107 870 l 1
 -115 888 -132 900 -152 900 c 0
 -188 900 -225 864 -234 820 c 0
 -235 813 -236 806 -236 800 c 0
 -236 766 -216 740 -186 740 c 1
 -198 680 l 1
 -260 680 -302 727 -302 789 c 0
 -302 799 -301 810 -299 820 c 0
 -286 883 -236 936 -179 954 c 1
 -180 959 -180 964 -180 970 c 0
 -180 979 -179 990 -177 1000 c 0
 -161 1077 -89 1140 -17 1140 c 0
EndSplineSet
EndChar

StartChar: uni0E4F
Encoding: 3663 3663 82
Width: 703
VWidth: 0
Flags: W
HStem: 0 80<280.091 466.396> 170 70<363.823 452.722> 360 70<378.278 467.177> 520 80<364.682 550.955>
VStem: 130 76<156.212 360.404> 292 67<245.018 341.773> 472 67<258.227 354.982> 625 77<239.596 443.401>
LayerCount: 2
Fore
SplineSet
479 600 m 0
 612 600 702 500 702 367 c 0
 702 345 700 323 695 300 c 0
 660 134 506 0 352 0 c 0
 219 0 130 99 130 233 c 0
 130 254 132 277 137 300 c 0
 172 466 325 600 479 600 c 0
462 520 m 0
 349 520 237 422 211 300 c 0
 207 283 206 266 206 251 c 0
 206 153 272 80 369 80 c 0
 482 80 594 178 620 300 c 0
 624 317 625 334 625 349 c 0
 625 447 559 520 462 520 c 0
443 430 m 0
 501 430 539 387 539 329 c 0
 539 320 538 310 536 300 c 0
 521 228 455 170 388 170 c 0
 330 170 292 213 292 271 c 0
 292 280 293 290 295 300 c 0
 310 372 376 430 443 430 c 0
428 360 m 0
 397 360 367 333 360 300 c 0
 359 295 359 291 359 287 c 0
 359 260 376 240 403 240 c 0
 434 240 464 267 471 300 c 0
 472 305 472 309 472 313 c 0
 472 340 455 360 428 360 c 0
EndSplineSet
EndChar

StartChar: uni0E51
Encoding: 3665 3665 83
Width: 689
VWidth: 0
Flags: W
HStem: -60 90<351 438.765> 80 85<230.271 355.188> 350 75<371.187 451.44> 522 90<356.174 541.078>
VStem: 112 99<185.605 362.062> 287 72<252.812 337.158> 454 72<264.571 348.246> 607 100<237.009 453.525>
LayerCount: 2
Fore
SplineSet
473 612 m 0
 611 612 707 515 707 373 c 0
 707 350 704 325 699 300 c 0
 657 104 538 -60 332 -60 c 1
 351 30 l 1
 446 30 563 120 601 300 c 0
 605 319 607 338 607 357 c 0
 607 446 558 522 454 522 c 0
 328 522 239 410 216 300 c 0
 212 283 211 268 211 254 c 0
 211 194 243 165 294 165 c 0
 319 165 340 171 357 178 c 1
 315 188 287 225 287 272 c 0
 287 281 288 291 290 300 c 0
 305 369 369 425 433 425 c 0
 488 425 526 384 526 328 c 0
 526 319 525 310 523 300 c 0
 500 192 402 80 276 80 c 0
 160 80 112 154 112 242 c 0
 112 261 114 280 118 300 c 0
 155 472 313 612 473 612 c 0
417 350 m 0
 391 350 366 328 360 300 c 0
 359 296 359 292 359 288 c 0
 359 266 374 250 396 250 c 0
 422 250 447 272 453 300 c 0
 454 304 454 308 454 312 c 0
 454 334 439 350 417 350 c 0
EndSplineSet
EndChar

StartChar: uni0E52
Encoding: 3666 3666 84
Width: 816
VWidth: 0
Flags: W
HStem: 0 90<195 660> 139 80<444.806 525.216> 319 80<454.736 535.38> 521 85<445.665 548.306>
VStem: 208 103<512.344 809.949> 301 78<287.082 434.613> 537 76<230.28 317.045> 735 102<317.578 520.977>
LayerCount: 2
Fore
SplineSet
500 319 m 0xf3
 474 319 449 297 443 269 c 0
 442 265 442 261 442 257 c 0
 442 235 457 219 479 219 c 0
 505 219 530 241 536 269 c 0
 537 273 537 277 537 281 c 0
 537 303 522 319 500 319 c 0xf3
689 606 m 1
 724 606 l 1
 781 595 837 561 837 467 c 0
 837 447 834 425 829 400 c 2
 763 90 l 2
 750 31 714 0 660 0 c 2
 158 0 l 2
 112 0 89 20 89 60 c 0
 89 69 91 79 93 90 c 2
 202 600 l 2
 206 620 208 642 208 664 c 0
 208 737 190 810 190 810 c 1
 293 810 l 1
 293 810 311 743 311 670 c 0xfb
 311 647 309 623 304 600 c 2
 195 90 l 1
 660 90 l 1
 720 370 l 2
 729 413 735 445 735 468 c 0
 735 499 725 515 702 525 c 1
 624 424 l 1
 554 424 l 1
 556 434 558 445 558 455 c 0
 558 489 544 521 501 521 c 0
 450 521 403 456 388 385 c 0
 382 354 379 335 379 320 c 0
 379 307 381 297 383 285 c 1
 392 325 445 399 517 399 c 0
 575 399 613 356 613 298 c 0
 613 289 612 279 610 269 c 0
 595 197 524 139 457 139 c 0
 338 139 301 226 301 313 c 0xf7
 301 338 304 362 309 385 c 0
 334 501 436 606 519 606 c 0
 615 606 616 516 616 512 c 1
 689 606 l 1
EndSplineSet
EndChar

StartChar: uni0E54
Encoding: 3668 3668 85
Width: 771
VWidth: 0
Flags: W
HStem: 0 90<266.097 450 514.457 696> 144 75<501.161 586.425> 329 75<513.086 598.951> 504 90<353.251 746.108>
VStem: 108 108<147.151 349.342> 405 93<158.19 306.192> 602 72<235.267 326.419> 868 103<735.984 810>
LayerCount: 2
Fore
SplineSet
868 810 m 1
 971 810 l 1
 926 598 781 504 627 504 c 2
 441 504 l 2
 339 504 244 410 219 294 c 1
 217 283 216 271 216 258 c 0
 216 187 247 90 325 90 c 2
 450 90 l 1
 425 114 405 151 405 203 c 0
 405 219 407 236 411 254 c 0
 429 337 503 404 578 404 c 0
 636 404 674 361 674 303 c 0
 674 294 673 284 671 274 c 0
 656 202 589 144 522 144 c 0
 502 144 487 155 487 155 c 1
 495 103 575 90 623 90 c 2
 715 90 l 1
 696 0 l 1
 696 0 420 0 306 0 c 0
 178 0 108 88 108 213 c 0
 108 239 111 266 117 294 c 0
 152 460 306 594 460 594 c 2
 646 594 l 2
 748 594 836 659 868 810 c 1
562 329 m 0
 534 329 505 304 499 274 c 0
 498 270 498 266 498 262 c 0
 498 238 514 219 538 219 c 0
 566 219 595 244 601 274 c 0
 602 278 602 282 602 286 c 0
 602 310 586 329 562 329 c 0
EndSplineSet
EndChar

StartChar: uni0E55
Encoding: 3669 3669 86
Width: 771
VWidth: 0
Flags: W
HStem: 0 90<257.097 441 505.457 687> 144 75<492.161 577.425> 329 75<505.319 589.473> 504 116<551.437 633.126> 504 90<344.251 494> 720 70<561.686 642.756>
VStem: 99 108<147.151 349.342> 396 93<158.19 306.718> 483 67<621.478 708.544> 593 72<235.267 326.419> 645 67<632.063 717.878> 859 103<735.984 810>
LayerCount: 2
Fore
SplineSet
859 810 m 1xeeb0
 962 810 l 1
 917 598 772 504 618 504 c 2xf6b0
 432 504 l 2
 330 504 235 410 210 294 c 1
 208 283 207 271 207 258 c 0
 207 187 238 90 316 90 c 2
 441 90 l 1
 416 114 396 151 396 203 c 0
 396 219 398 236 402 254 c 0
 420 337 493 404 568 404 c 0
 626 404 665 361 665 303 c 0xef50
 665 293 664 284 662 274 c 0
 647 202 580 144 513 144 c 0
 493 144 478 155 478 155 c 1
 486 103 566 90 614 90 c 2
 706 90 l 1
 687 0 l 1
 297 0 l 2
 169 0 99 88 99 213 c 0
 99 239 102 266 108 294 c 0
 143 460 297 594 451 594 c 2
 494 594 l 1
 487 608 483 624 483 642 c 0
 483 651 484 660 486 670 c 0
 500 736 562 790 623 790 c 0
 676 790 712 750 712 696 c 0
 712 688 711 679 709 670 c 0
 703 642 689 617 670 596 c 1
 757 609 830 675 859 810 c 1xeeb0
608 720 m 0
 582 720 557 698 551 670 c 0
 550 666 550 662 550 658 c 0
 550 636 564 620 586 620 c 0
 612 620 638 642 644 670 c 0
 645 674 645 678 645 682 c 0
 645 704 630 720 608 720 c 0
553 329 m 0
 525 329 496 304 490 274 c 0
 489 270 489 266 489 262 c 0
 489 238 505 219 529 219 c 0
 557 219 586 244 592 274 c 0
 593 278 593 282 593 286 c 0xe750
 593 310 577 329 553 329 c 0
EndSplineSet
EndChar

StartChar: uni0E56
Encoding: 3670 3670 87
Width: 714
VWidth: 0
Flags: W
HStem: -12 90<311.225 500.565> 124 75<295.546 359.116> 309 75<286.325 371.951> 504 90<398 565.949> 710 100<209 247.882>
VStem: 183 88<137.5 285.845> 307 91<594 637.885> 375 72<215.267 306.419> 626 103<233.191 442.989>
LayerCount: 2
Fore
SplineSet
187 710 m 1xfe80
 209 810 l 1
 302 810 393 735 398 594 c 1xfe80
 398 594 474 594 507 594 c 0
 640 594 729 495 729 361 c 0
 729 340 727 317 722 294 c 0
 687 128 571 -12 392 -12 c 0
 240 -12 183 90 183 185 c 0
 183 202 185 218 188 234 c 0
 204 307 276 384 351 384 c 0
 409 384 447 341 447 283 c 0xfd80
 447 274 446 264 444 254 c 0
 429 182 362 124 295 124 c 1
 310 90 366 78 411 78 c 0
 533 78 599 195 620 294 c 0
 624 313 626 331 626 348 c 0
 626 438 574 504 488 504 c 0
 307 504 l 1
 307 508 307 513 307 517 c 0
 307 590 277 710 187 710 c 1xfe80
335 309 m 0
 307 309 278 284 272 254 c 0
 271 250 271 246 271 242 c 0
 271 218 287 199 311 199 c 0
 339 199 368 224 374 254 c 0
 375 258 375 262 375 266 c 0xfd80
 375 290 359 309 335 309 c 0
EndSplineSet
EndChar

StartChar: uni0E57
Encoding: 3671 3671 88
Width: 917
VWidth: 0
Flags: W
HStem: -6 80<259.93 359.2> 0 21G<570.222 643> 214 80<277.844 377.267> 500 100<307.713 397.245>
VStem: 107 144<81.7873 214.5> 385 76<99.3362 205.112> 417 71<459 482.374> 651 96<277.969 496.974>
LayerCount: 2
Fore
SplineSet
602 606 m 1xbb
 648 606 l 1
 718 578 747 512 747 424 c 0
 747 388 742 348 733 306 c 2
 694 120 l 1
 747 153 788 213 808 306 c 2
 868 590 l 1
 971 590 l 1
 910 306 l 2
 865 94 720 0 566 0 c 1
 585 90 l 1
 631 306 l 2
 642 357 651 401 651 435 c 0
 651 467 643 489 621 500 c 1
 490 319 l 1
 410 319 l 1
 414 339 417 362 417 385 c 0x7b
 417 443 401 500 356 500 c 0
 308 500 246 416 221 300 c 0
 216 276 211 242 208 212 c 1
 242 261 296 294 350 294 c 0
 416 294 461 245 461 178 c 0x7d
 461 167 460 156 457 144 c 0
 439 61 354 -6 277 -6 c 0
 167 -6 107 74 107 199 c 0
 107 230 110 264 118 300 c 0
 153 466 265 600 377 600 c 0
 485 600 488 473 488 460 c 0
 488 459 488 459 488 459 c 1
 602 606 l 1xbb
333 214 m 0
 297 214 261 183 253 144 c 0
 252 139 251 133 251 128 c 0
 251 97 272 74 303 74 c 0
 339 74 375 105 383 144 c 0
 384 149 385 155 385 160 c 0xbd
 385 191 364 214 333 214 c 0
EndSplineSet
EndChar

StartChar: uni0E58
Encoding: 3672 3672 89
Width: 798
VWidth: 0
Flags: W
HStem: -12 90<510.288 638.789> 144 75<622.049 682.657> 329 75<634.201 719.088> 504 90<353.251 746.108>
VStem: 108 105<149.108 349.342> 547 72<221.581 312.733> 723 77<235.311 325.303> 868 103<735.984 810>
LayerCount: 2
Fore
SplineSet
868 810 m 1
 971 810 l 1
 926 598 781 504 627 504 c 2
 441 504 l 2
 339 504 244 410 219 294 c 0
 215 275 213 257 213 241 c 0
 213 172 246 127 282 109 c 1
 382 294 l 1
 483 294 l 1
 478 270 475 245 475 221 c 0
 475 146 502 78 567 78 c 0
 615 78 652 103 683 155 c 1
 683 155 663 144 643 144 c 0
 585 144 547 187 547 245 c 0
 547 254 548 264 550 274 c 0
 565 346 631 404 698 404 c 0
 762 404 800 348 800 286 c 0
 800 276 799 265 797 254 c 0
 769 121 691 -12 534 -12 c 0
 432 -12 394 70 388 154 c 1
 304 -6 l 1
 177 -6 108 86 108 212 c 0
 108 238 111 265 117 294 c 0
 152 460 306 594 460 594 c 2
 646 594 l 2
 748 594 836 659 868 810 c 1
683 329 m 0
 655 329 626 304 620 274 c 0
 619 270 619 266 619 262 c 0
 619 238 635 219 659 219 c 0
 687 219 716 244 722 274 c 0
 723 278 723 282 723 286 c 0
 723 310 707 329 683 329 c 0
EndSplineSet
EndChar

StartChar: uni0E59
Encoding: 3673 3673 90
Width: 808
VWidth: 0
Flags: W
HStem: -6 80<268.397 348.176> 174 80<277.963 359.38> 500 100<307.713 401.68>
VStem: 106 101<155.792 343.829> 361 76<85.293 171.456> 645 82<450 497.022> 887 102<709.818 810>
LayerCount: 2
Fore
SplineSet
887 810 m 1
 989 810 l 1
 950 626 858 320 634 320 c 1
 641 355 645 386 645 413 c 0
 645 452 637 481 621 500 c 1
 535 400 l 1
 603 0 l 1
 501 0 l 1
 428 400 l 1
 428 400 417 500 356 500 c 0
 308 500 246 416 221 300 c 0
 215 270 207 222 207 189 c 0
 207 173 209 161 213 155 c 1
 234 205 283 254 341 254 c 0
 399 254 437 211 437 153 c 0
 437 144 436 134 434 124 c 0
 419 52 353 -6 286 -6 c 0
 164 -6 106 72 106 195 c 0
 106 227 110 262 118 300 c 0
 153 466 265 600 377 600 c 0
 491 600 514 500 514 500 c 1
 602 606 l 1
 648 606 l 1
 697 580 726 535 727 450 c 1
 794 484 851 642 887 810 c 1
324 174 m 0
 298 174 273 152 267 124 c 0
 266 120 266 116 266 112 c 0
 266 90 281 74 303 74 c 0
 329 74 354 96 360 124 c 0
 361 128 361 132 361 136 c 0
 361 158 346 174 324 174 c 0
EndSplineSet
EndChar

StartChar: uni0E4A
Encoding: 3658 3658 91
Width: 7
VWidth: 0
Flags: W
HStem: 970 46<-66.2022 -12.7765 68 75.406> 1076 44<-48.5456 -9.60344> 1160 46<-41.1146 22.2292>
VStem: -120 155<1004 1046 1062 1109.23> 98 59<1030.43 1158.71> 211 70<1109.8 1200>
LayerCount: 2
Fore
SplineSet
-2 1206 m 0
 28 1206 47 1188 55 1166 c 1
 89 1206 l 1
 117 1206 l 1
 142 1195 157 1160 157 1120 c 0
 157 1109 155 1097 153 1086 c 0
 145 1048 132 1030 132 1030 c 1
 159 1050 185 1078 211 1200 c 1
 281 1200 l 1
 259 1104 228 974 68 974 c 1
 59 1010 l 1
 76 1010 82 1046 91 1086 c 0
 95 1105 98 1121 98 1133 c 0
 98 1147 95 1156 89 1160 c 1
 55 1122 l 1
 27 1122 l 1
 27 1123 27 1123 27 1124 c 0
 27 1135 11 1160 -10 1160 c 0
 -29 1160 -44 1140 -49 1116 c 1
 -39 1118 -31 1120 -22 1120 c 0
 12 1120 35 1095 35 1062 c 0
 35 1057 34 1052 33 1046 c 0
 24 1004 -15 970 -54 970 c 0
 -85 970 -120 988 -120 1045 c 0
 -120 1056 -119 1068 -116 1082 c 0
 -102 1148 -52 1206 -2 1206 c 0
-32 1076 m 0
 -47 1076 -63 1062 -66 1046 c 0
 -70 1028 -59 1016 -44 1016 c 0
 -27 1016 -14 1028 -10 1046 c 0
 -7 1062 -15 1076 -32 1076 c 0
EndSplineSet
Position2: "Nikhahit & Tone High-Left" dx=-150 dy=0 dh=0 dv=0
Position2: "Mai Han-Akat & Tone High-Left" dx=-180 dy=0 dh=0 dv=0
Position2: "Tone High-Left" dx=-120 dy=0 dh=0 dv=0
MultipleSubs2: "Tone High-Low" uni0E4A.low
EndChar

StartChar: uni0E3F
Encoding: 3647 3647 92
Width: 593
VWidth: 0
Flags: W
HStem: 0 100<169 213 297 413.297> 400 90<252 457.586> 770 90<311 396 479 503>
VStem: 501 106<187.718 357.312> 546 104<575.719 733.366>
LayerCount: 2
Fore
SplineSet
434 1040 m 1xf0
 518 1040 l 1
 479 856 l 1
 602 840 650 775 650 686 c 0xe8
 650 665 647 643 642 620 c 0
 630 564 588 492 513 450 c 1
 585 422 607 365 607 306 c 0
 607 284 604 262 599 240 c 0
 562 65 442 0 315 0 c 2
 297 0 l 1
 258 -180 l 1
 175 -180 l 1
 213 0 l 1
 46 0 l 1
 228 860 l 1
 396 860 l 1
 434 1040 l 1xf0
311 770 m 1
 252 490 l 1
 373 490 l 2
 454 490 525 548 542 630 c 0
 545 642 546 654 546 665 c 0
 546 728 503 770 404 770 c 2
 311 770 l 1
233 400 m 1
 169 100 l 1
 309 100 l 2
 382 100 473 134 496 240 c 0
 499 255 501 270 501 283 c 0xf0
 501 360 445 400 363 400 c 2
 233 400 l 1
EndSplineSet
EndChar

StartChar: uni0E11
Encoding: 3601 3601 93
Width: 630
VWidth: 0
Flags: W
HStem: 0 21G<181 287.222 464 561.261> 298 55<184.873 254.379> 433 50<191.5 259.877> 551 55<213.571 283.969>
VStem: 118 66<354.332 426.676> 261 47<361.324 431.876> 397 68<459 554.96> 464 93<0 39.2523>
LayerCount: 2
Fore
SplineSet
267 606 m 0xfe
 323 606 323 543 323 543 c 1
 371 606 l 1
 397 606 l 1
 437 592 465 549 465 489 c 0xfe
 465 479 465 469 463 459 c 1
 582 596 l 0
 639 596 662 570 662 519 c 0
 662 502 660 482 655 460 c 2
 557 0 l 1
 464 0 l 1xfd
 571 500 l 1
 438 348 331 229 321 180 c 2
 283 0 l 1
 181 0 l 1
 181 0 208 129 222 194 c 0
 243 291 370 347 391 444 c 0
 395 464 397 481 397 495 c 0
 397 519 391 537 381 556 c 1
 328 484 l 1
 289 484 l 1
 287 507 290 551 253 551 c 0
 218 551 188 492 179 449 c 1
 194 466 216 483 242 483 c 0
 281 483 308 454 308 414 c 0
 308 407 308 400 306 393 c 0
 295 343 248 298 202 298 c 0
 149 298 118 336 118 399 c 0
 118 414 119 430 123 448 c 1
 134 497 185 606 267 606 c 0xfe
231 433 m 0
 211 433 190 415 185 393 c 0
 184 390 184 387 184 384 c 0
 184 366 197 353 214 353 c 0
 234 353 255 371 260 393 c 0
 261 396 261 399 261 402 c 0
 261 420 248 433 231 433 c 0
EndSplineSet
EndChar

StartChar: uni0E12
Encoding: 3602 3602 94
Width: 819
VWidth: 0
Flags: W
HStem: -6 70<431.414 505.421> 154 70<439.694 492> 372 55<331.886 406.805>
VStem: 270 53<283.104 363.573> 363 67<65.7982 145.003> 408 53<291.936 371.033> 532 88<359.893 515.438>
LayerCount: 2
Fore
SplineSet
524 615 m 1xf6
 587 594 620 539 620 462 c 0
 620 441 617 417 612 392 c 2
 575 220 l 1
 616 186 654 144 674 95 c 1
 779 590 l 1
 872 590 l 1
 764 80 l 2
 751 17 710 -6 653 -6 c 1
 643 34 602 94 581 115 c 1
 580 109 l 2
 566 45 508 -6 448 -6 c 0
 397 -6 363 31 363 82 c 0xfa
 363 91 364 100 366 109 c 0
 379 171 434 221 492 224 c 1
 528 392 l 2
 531 406 532 419 532 431 c 0
 532 472 518 505 500 523 c 1
 398 458 l 1
 323 523 l 1
 283 499 253 451 240 392 c 0
 227 332 223 280 223 233 c 0
 223 199 225 168 226 138 c 1
 262 166 300 195 329 228 c 1
 294 235 270 265 270 304 c 0
 270 311 271 319 273 327 c 0
 285 382 336 427 387 427 c 0
 431 427 461 394 461 349 c 0
 461 342 461 335 459 327 c 0
 426 172 220 88 201 0 c 1
 101 0 l 1
 114 38 123 69 128 96 c 0
 149 216 127 262 156 392 c 0
 178 492 247 581 347 612 c 1
 416 543 l 1
 524 615 l 1xf6
375 372 m 0
 352 372 329 352 324 327 c 0
 323 324 323 320 323 317 c 0
 323 297 336 282 356 282 c 0
 379 282 402 302 407 327 c 0
 408 330 408 334 408 337 c 0xf6
 408 357 395 372 375 372 c 0
482 154 m 0
 459 154 436 134 431 109 c 0
 430 106 430 102 430 99 c 0xfa
 430 79 443 64 463 64 c 0
 486 64 509 84 514 109 c 0
 515 112 515 116 515 119 c 0
 515 139 502 154 482 154 c 0
EndSplineSet
EndChar

StartChar: uni0E0C
Encoding: 3596 3596 95
Width: 787
VWidth: 0
Flags: W
HStem: -6 70<178.995 247.951 413.414 487.421> 144 70<230 253.345> 527 85<300.768 454.942>
VStem: 111 67<65.5805 137.623> 255 67<71.197 142.42> 345 67<65.7982 143.835> 484 94<339.262 496.39>
LayerCount: 2
Fore
SplineSet
399 612 m 0
 504 612 578 552 578 438 c 0
 578 418 576 396 571 372 c 2
 539 220 l 1
 582 196 624 134 640 85 c 1
 748 590 l 1
 841 590 l 1
 732 80 l 2
 719 17 669 -6 612 -6 c 1
 604 23 583 83 562 109 c 1
 548 45 490 -6 430 -6 c 0
 379 -6 345 31 345 82 c 0
 345 91 346 100 348 109 c 0
 359 161 398 204 445 219 c 1
 478 372 l 2
 482 390 484 406 484 421 c 0
 484 492 442 527 381 527 c 0
 327 527 270 493 241 440 c 1
 329 415 l 1
 329 415 260 352 247 290 c 0
 242 265 235 239 230 214 c 1
 240 214 l 2
 289 214 322 178 322 129 c 0
 322 121 321 113 319 104 c 0
 306 43 250 -6 193 -6 c 0
 144 -6 111 30 111 79 c 0
 111 87 112 95 114 104 c 0
 126 159 137 215 149 270 c 0
 167 354 221 390 221 390 c 1
 133 410 l 1
 178 500 277 612 399 612 c 0
464 154 m 0
 441 154 418 134 413 109 c 0
 412 106 412 102 412 99 c 0
 412 79 425 64 445 64 c 0
 468 64 491 84 496 109 c 0
 497 112 497 116 497 119 c 0
 497 139 484 154 464 154 c 0
225 144 m 0
 205 144 184 126 179 104 c 0
 178 101 178 98 178 95 c 0
 178 77 191 64 208 64 c 0
 228 64 249 82 254 104 c 0
 255 107 255 110 255 113 c 0
 255 131 242 144 225 144 c 0
EndSplineSet
EndChar

StartChar: uni0E09
Encoding: 3593 3593 96
Width: 583
VWidth: 0
Flags: W
HStem: -6 70<403.852 477.825> 190 55<177.461 197> 335 55<184.324 259.805> 527 85<304.085 460.627>
VStem: 123 52<245.967 324.292> 156 98<434 480.505> 261 53<253.261 332.735> 487 96<368.035 500.722> 488 67<74.6216 152.736>
LayerCount: 2
Fore
SplineSet
408 612 m 0xf7
 528 612 583 542 583 453 c 0xf7
 583 437 581 419 577 402 c 2
 537 216 l 1
 522 207 l 1
 542 191 555 165 555 135 c 0
 555 126 554 118 552 109 c 0
 538 45 480 -6 420 -6 c 0
 372 -6 338 28 335 75 c 1
 314 57 275 23 248 -6 c 1
 200 -6 174 21 174 67 c 0
 174 76 175 86 177 96 c 2
 197 190 l 1
 153 190 123 223 123 268 c 0xfa80
 123 275 123 282 125 290 c 0
 137 345 189 390 240 390 c 0
 284 390 314 357 314 313 c 0
 314 305 313 298 311 290 c 2
 270 96 l 1
 305 137 393 203 446 225 c 1
 484 402 l 2
 486 413 487 424 487 434 c 0
 487 487 456 527 390 527 c 0
 311 527 263 475 254 434 c 1
 156 434 l 1
 173 515 266 612 408 612 c 0xf7
228 335 m 0
 205 335 181 315 176 290 c 0
 175 287 175 284 175 281 c 0xfa
 175 260 189 245 209 245 c 0
 232 245 255 265 260 290 c 0
 261 293 261 297 261 300 c 0
 261 320 248 335 228 335 c 0
454 154 m 0
 431 154 408 134 403 109 c 0
 402 106 402 102 402 99 c 0
 402 79 415 64 435 64 c 0
 458 64 482 84 487 109 c 0xf3
 488 112 488 115 488 118 c 0xf280
 488 139 474 154 454 154 c 0
EndSplineSet
EndChar

StartChar: uni0E0A.alt
Encoding: 3681 3681 97
Width: 566
VWidth: 0
Flags: W
HStem: -12 85<288.806 400.128> 326 55<192.263 267.591> 471 52<219.247 274.912> 535 95<570.087 671> 551 55<233.407 352.381>
VStem: 136 55<383.659 459.168> 192 94<79.0233 168.35> 277 53<391.708 469.502> 467 94<322.286 422.354>
LayerCount: 2
Fore
SplineSet
691 630 m 1xf580
 671 535 l 1
 605 535 540 510 485 470 c 1
 485 470 561 436 561 376 c 0
 561 371 560 365 559 360 c 2
 512 140 l 2
 504 102 469 -12 322 -12 c 0
 212 -12 192 52 192 100 c 0xf680
 192 116 194 130 196 140 c 2
 208 194 l 2
 234 318 346 347 367 444 c 0
 369 454 370 463 370 472 c 0
 370 517 343 551 298 551 c 0
 264 551 235 532 219 511 c 1
 219 511 238 523 258 523 c 0
 298 523 330 500 330 453 c 0
 330 445 329 436 327 426 c 0
 315 371 263 326 212 326 c 0
 168 326 136 364 136 415 c 0
 136 423 137 432 139 441 c 0
 160 540 242 606 318 606 c 0xed80
 382 606 424 566 437 514 c 1
 506 587 605 630 691 630 c 1xf580
243 471 m 0
 221 471 197 450 192 426 c 0xe680
 191 423 191 420 191 417 c 0
 191 397 205 381 224 381 c 0
 246 381 271 402 276 426 c 0
 277 429 277 432 277 435 c 0xe580
 277 455 262 471 243 471 c 0
434 431 m 1
 403 311 320 285 301 194 c 2
 289 140 l 2
 287 132 286 124 286 116 c 0
 286 94 296 73 340 73 c 0
 400 73 413 112 419 140 c 2
 466 360 l 2
 467 363 467 366 467 368 c 0
 467 389 452 413 434 431 c 1
EndSplineSet
EndChar

StartChar: uni0E0B.alt
Encoding: 3682 3682 98
Width: 594
VWidth: 0
Flags: W
HStem: -12 85<315.917 421.879> 298 55<193.873 263.379> 433 50<200.5 268.877> 535 95<593.938 694> 551 55<222.571 292.969>
VStem: 127 66<354.332 426.676> 215 96<78.077 168.35> 270 47<361.324 431.876> 491 94<321.5 420.277>
LayerCount: 2
Fore
SplineSet
714 630 m 1xf580
 694 535 l 1
 628 535 563 510 508 470 c 1
 508 470 585 436 585 376 c 0
 585 371 584 365 583 360 c 2
 536 140 l 2
 528 102 492 -12 345 -12 c 0
 236 -12 215 51 215 99 c 0xf680
 215 115 218 130 220 140 c 2
 231 194 l 2
 252 291 379 347 400 444 c 0
 404 464 406 481 406 495 c 0
 406 519 400 537 390 556 c 1
 337 484 l 1
 298 484 l 1
 296 507 299 551 262 551 c 0
 227 551 197 492 188 449 c 1
 203 466 225 483 251 483 c 0
 290 483 317 454 317 414 c 0
 317 407 317 400 315 393 c 0
 304 343 257 298 211 298 c 0
 158 298 127 336 127 399 c 0
 127 414 128 430 132 448 c 1
 143 497 194 606 276 606 c 0
 332 606 332 543 332 543 c 1
 380 606 l 1
 406 606 l 1xed80
 437 595 462 566 471 525 c 1
 540 591 633 630 714 630 c 1xf580
240 433 m 0
 220 433 199 415 194 393 c 0
 193 390 193 387 193 384 c 0
 193 366 206 353 223 353 c 0
 243 353 264 371 269 393 c 0
 270 396 270 399 270 402 c 0xe580
 270 420 257 433 240 433 c 0
465 422 m 1
 431 307 338 258 324 194 c 2
 313 140 l 2
 312 134 311 128 311 122 c 0xe680
 311 98 322 73 363 73 c 0
 414 73 437 112 443 140 c 2
 490 360 l 2
 490 362 491 365 491 368 c 0
 491 386 479 405 465 422 c 1
EndSplineSet
EndChar

StartChar: uni0E28.alt
Encoding: 3683 3683 99
Width: 602
VWidth: 0
Flags: W
HStem: 0 21G<101 216.5 431 523.247> 227 55<324.348 398.19> 372 55<332.404 406.805> 527 85<324.049 482.767> 535 95<629.567 707>
VStem: 408 53<290.427 371.033> 515 91<336.083 492.249>
LayerCount: 2
Fore
SplineSet
728 630 m 1xee
 707 535 l 1xee
 658 534 625 517 599 493 c 1
 603 477 606 459 606 439 c 0
 606 419 603 396 598 372 c 2
 519 0 l 1
 431 0 l 1
 510 372 l 2
 514 389 515 404 515 418 c 0
 515 491 469 527 408 527 c 0
 335 527 257 471 236 372 c 0
 227 330 221 274 220 240 c 1
 239 284 262 343 292 377 c 0
 317 407 352 427 387 427 c 0
 431 427 461 394 461 349 c 0
 461 342 461 335 459 327 c 0
 447 272 395 227 344 227 c 0
 320 227 300 237 287 253 c 1
 247 171 225 79 208 0 c 1
 101 0 l 1
 114 38 123 69 128 96 c 0
 148 213 125 252 152 372 c 0
 182 505 302 612 426 612 c 0xf6
 485 612 534 594 565 558 c 1
 602 597 667 630 728 630 c 1xee
375 372 m 0
 352 372 329 352 324 327 c 0
 323 324 323 320 323 317 c 0
 323 297 336 282 356 282 c 0
 379 282 402 302 407 327 c 0
 408 330 408 334 408 337 c 0
 408 357 395 372 375 372 c 0
EndSplineSet
EndChar

StartChar: uni0E2A.alt
Encoding: 3684 3684 100
Width: 575
VWidth: 0
Flags: W
HStem: -6 65<229.863 296.697> 139 65<234.954 302.725> 330 75<259.627 401.57> 527 85<304.085 461.334> 535 95<601.113 680>
VStem: 90 94<131.454 249.648> 304 62<65.3195 136.961> 487 96<367.56 497.343>
LayerCount: 2
Fore
SplineSet
700 630 m 1xef
 680 535 l 1xef
 635 534 602 519 577 498 c 1
 581 484 583 469 583 453 c 0
 583 437 581 420 577 402 c 2
 504 60 l 2
 490 -4 397 -6 397 -6 c 1
 437 180 l 2
 439 188 440 197 440 207 c 0
 440 259 413 330 334 330 c 0
 268 330 206 277 188 190 c 0
 186 179 184 168 184 158 c 0
 184 148 186 139 189 130 c 1
 200 162 241 204 289 204 c 0
 336 204 366 169 366 122 c 0
 366 115 366 107 364 99 c 0
 352 41 298 -6 244 -6 c 0
 153 -5 90 49 90 141 c 0
 90 156 91 173 95 190 c 0
 121 314 222 405 341 405 c 0
 425 405 461 347 467 320 c 1
 484 402 l 2
 486 413 487 424 487 434 c 0
 487 487 456 527 390 527 c 0
 311 527 263 475 254 434 c 1
 156 434 l 1
 173 515 266 612 408 612 c 0xf7
 470 612 514 593 543 563 c 1
 581 600 641 630 700 630 c 1xef
275 139 m 0
 255 139 234 121 229 99 c 0
 228 96 228 93 228 90 c 0
 228 72 241 59 258 59 c 0
 278 59 298 77 303 99 c 0
 304 102 304 105 304 108 c 0
 304 126 292 139 275 139 c 0
EndSplineSet
EndChar

StartChar: uni0E2E.alt
Encoding: 3686 3686 101
Width: 575
VWidth: 0
Flags: W
HStem: -12 85<217.952 395.569> 190 65<216 281.721> 345 65<215.185 289.831> 527 85<304.085 461.334> 535 95<601.113 680>
VStem: 114 92<88.0847 189.641> 156 98<434 480.505> 291 63<264.624 342.721> 487 96<367.431 497.343>
LayerCount: 2
Fore
SplineSet
700 630 m 1xeb80
 680 535 l 1
 635 534 602 519 577 498 c 1
 581 484 583 469 583 453 c 0
 583 437 581 420 577 402 c 2
 531 188 l 2
 497 26 408 -12 284 -12 c 0
 181 -12 114 14 114 117 c 0
 114 137 116 161 122 188 c 1
 146 300 l 2
 159 361 215 410 272 410 c 0
 321 410 354 374 354 325 c 0
 354 317 353 309 351 300 c 0
 338 239 282 190 225 190 c 2
 216 190 l 1
 209 160 l 1
 207 151 206 143 206 136 c 0xed80
 206 80 257 73 302 73 c 0
 353 73 415 82 433 160 c 1
 484 402 l 2
 486 413 487 424 487 434 c 0
 487 487 456 527 390 527 c 0
 311 527 263 475 254 434 c 1
 156 434 l 1
 173 515 266 612 408 612 c 0xf380
 470 612 514 593 543 563 c 1
 581 600 641 630 700 630 c 1xeb80
258 345 m 0
 235 345 212 325 207 300 c 0
 206 297 206 293 206 290 c 0
 206 270 219 255 239 255 c 0
 262 255 285 275 290 300 c 0
 291 303 291 307 291 310 c 0
 291 330 278 345 258 345 c 0
EndSplineSet
EndChar

StartChar: B
Encoding: 66 66 102
Width: 704
VWidth: 0
Flags: W
HStem: 0 100<178 506.297> 400 90<261 550.586> 770 90<321 599.521>
VStem: 594 106<187.718 357.312> 639 107<586.12 733.284>
LayerCount: 2
Fore
SplineSet
55 0 m 1xf0
 237 860 l 1
 507 860 l 2
 680 860 746 802 746 702 c 0xe8
 746 683 744 662 739 640 c 0
 727 584 681 492 606 450 c 1
 678 422 700 365 700 306 c 0
 700 284 697 262 692 240 c 0
 655 65 535 0 408 0 c 2
 55 0 l 1xf0
242 400 m 1
 178 100 l 1
 401 100 l 2
 474 100 566 134 589 240 c 0
 592 255 594 270 594 283 c 0xf0
 594 360 538 400 456 400 c 2
 242 400 l 1
261 490 m 1
 466 490 l 2
 547 490 618 548 635 630 c 0
 638 642 639 654 639 665 c 0xe8
 639 728 596 770 497 770 c 2
 321 770 l 1
 261 490 l 1
EndSplineSet
EndChar

StartChar: period
Encoding: 46 46 103
Width: 276
VWidth: 0
Flags: W
HStem: 0 160<103.252 188.748>
VStem: 70 152<33.5468 126.453>
LayerCount: 2
Fore
SplineSet
220 80 m 0
 210 35 171 0 129 0 c 0
 93 0 70 25 70 61 c 0
 70 67 71 73 72 80 c 0
 82 125 121 160 163 160 c 0
 199 160 222 135 222 99 c 0
 222 93 221 87 220 80 c 0
EndSplineSet
EndChar

StartChar: x
Encoding: 120 120 104
Width: 495
VWidth: 0
Flags: W
HStem: 0 21G<0 118.889 385.556 495> 600 20G<159 264.818 485.727 600>
LayerCount: 2
Fore
SplineSet
260 335 m 1
 159 620 l 1
 258 620 l 1
 333 400 l 1
 501 620 l 1
 600 620 l 1
 377 335 l 1
 495 0 l 1
 392 0 l 1
 305 270 l 1
 104 0 l 1
 0 0 l 1
 260 335 l 1
EndSplineSet
EndChar

StartChar: i
Encoding: 105 105 105
Width: 269
VWidth: 0
Flags: W
HStem: 0 21G<81 174.258> 600 20G<208.742 302> 720 160<254.842 337.158>
VStem: 223 146<751.865 848.135>
LayerCount: 2
Fore
SplineSet
367 800 m 0
 357 755 319 720 279 720 c 0
 245 720 223 745 223 780 c 0
 223 786 223 793 225 800 c 0
 235 845 273 880 313 880 c 0
 347 880 369 855 369 820 c 0
 369 814 369 807 367 800 c 0
213 620 m 1
 302 620 l 1
 170 0 l 1
 81 0 l 1
 213 620 l 1
EndSplineSet
EndChar

StartChar: o
Encoding: 111 111 106
Width: 593
VWidth: 0
Flags: W
HStem: -18 90<225.05 393.263> 548 90<313.737 481.95>
VStem: 92 91<114.86 341.078> 524 91<278.922 505.14>
LayerCount: 2
Fore
SplineSet
423 638 m 0
 544 638 615 557 615 436 c 0
 615 411 612 385 606 358 c 0
 595 306 596 314 585 262 c 0
 550 99 430 -18 284 -18 c 0
 163 -18 92 63 92 184 c 0
 92 209 95 235 101 262 c 0
 112 314 111 306 122 358 c 0
 157 521 277 638 423 638 c 0
404 548 m 0
 308 548 235 471 211 358 c 0
 200 306 201 314 190 262 c 0
 186 241 183 221 183 203 c 0
 183 123 225 72 303 72 c 0
 399 72 472 149 496 262 c 0
 507 314 506 306 517 358 c 0
 521 379 524 399 524 417 c 0
 524 497 482 548 404 548 c 0
EndSplineSet
EndChar

StartChar: O
Encoding: 79 79 107
Width: 778
VWidth: 0
Flags: W
HStem: -18 100<305.994 497.908> 778 100<445.646 637.38>
VStem: 110 111<175.387 425.625> 722 111<432.188 687.012>
LayerCount: 2
Fore
SplineSet
567 878 m 0
 738 878 833 768 833 605 c 0
 833 572 829 537 821 500 c 2
 792 360 l 2
 745 141 581 -18 376 -18 c 0
 205 -18 110 92 110 255 c 0
 110 288 114 323 122 360 c 2
 152 500 l 2
 199 719 362 878 567 878 c 0
546 778 m 0
 412 778 291 652 259 500 c 2
 229 360 l 2
 224 335 221 310 221 287 c 0
 221 170 286 82 398 82 c 0
 532 82 653 208 685 360 c 2
 714 500 l 2
 719 525 722 550 722 574 c 0
 722 691 658 778 546 778 c 0
EndSplineSet
EndChar

StartChar: I
Encoding: 73 73 108
Width: 247
VWidth: 0
Flags: W
HStem: 0 21G<64 170.256> 840 20G<241.767 349>
VStem: 64 285
LayerCount: 2
Fore
SplineSet
246 860 m 1
 349 860 l 1
 166 0 l 1
 64 0 l 1
 246 860 l 1
EndSplineSet
EndChar

StartChar: X
Encoding: 88 88 109
Width: 706
VWidth: 0
Flags: W
HStem: 0 21G<0 141.844 564.675 698> 840 20G<220 353.742 701.742 843>
LayerCount: 2
Fore
SplineSet
220 860 m 1
 346 860 l 1
 466 550 l 1
 718 860 l 1
 843 860 l 1
 514 470 l 1
 698 0 l 1
 572 0 l 1
 431 385 l 1
 126 0 l 1
 0 0 l 1
 384 470 l 1
 220 860 l 1
EndSplineSet
EndChar

StartChar: H
Encoding: 72 72 110
Width: 722
VWidth: 0
Flags: W
HStem: 0 21G<55 161.25 548 654.256> 400 100<263 633> 840 20G<232.767 340 725.778 833>
LayerCount: 2
Fore
SplineSet
237 860 m 1
 340 860 l 1
 263 500 l 1
 654 500 l 1
 730 860 l 1
 833 860 l 1
 650 0 l 1
 548 0 l 1
 633 400 l 1
 242 400 l 1
 157 0 l 1
 55 0 l 1
 237 860 l 1
EndSplineSet
EndChar

StartChar: P
Encoding: 80 80 111
Width: 658
VWidth: 0
Flags: W
HStem: 0 21G<64 170.278> 360 90<262 552.948> 770 90<330 609.538>
VStem: 653 104<553.956 726.896>
LayerCount: 2
Fore
SplineSet
246 860 m 1
 525 860 l 2
 695 860 757 776 757 670 c 0
 757 647 754 624 749 600 c 0
 722 471 604 360 466 360 c 2
 243 360 l 1
 166 0 l 1
 64 0 l 1
 246 860 l 1
330 770 m 1
 262 450 l 1
 476 450 l 2
 557 450 632 528 649 610 c 0
 652 623 653 636 653 649 c 0
 653 715 614 770 516 770 c 2
 330 770 l 1
EndSplineSet
EndChar

StartChar: p
Encoding: 112 112 112
Width: 602
VWidth: 0
Flags: W
HStem: -18 90<240.682 395.925> 548 90<337.463 487.806> 600 20G<181.75 266>
VStem: 532 92<278.5 501.401>
LayerCount: 2
Fore
SplineSet
297 -18 m 0xd0
 205 -18 168 43 163 90 c 1
 71 -340 l 1
 -18 -340 l 1
 186 620 l 1
 266 620 l 1xb0
 243 510 l 1
 264 547 321 638 436 638 c 0
 557 638 624 558 624 438 c 0
 624 413 621 386 615 358 c 2
 594 262 l 2
 559 99 443 -18 297 -18 c 0xd0
312 72 m 0
 399 72 481 149 505 262 c 2
 526 358 l 2
 530 377 532 395 532 412 c 0
 532 495 485 548 413 548 c 0xd0
 326 548 242 461 220 358 c 2
 199 262 l 2
 195 245 194 229 194 213 c 0
 194 133 239 72 312 72 c 0
EndSplineSet
EndChar

StartChar: K
Encoding: 75 75 113
Width: 686
VWidth: 0
Flags: W
HStem: 0 21G<55 161.25 538.3 678> 400 100<263 338> 840 20G<232.767 340 646.833 786>
LayerCount: 2
Fore
SplineSet
237 860 m 1
 340 860 l 1
 263 500 l 1
 338 500 l 1
 665 860 l 1
 786 860 l 1
 436 480 l 1
 678 0 l 1
 548 0 l 1
 354 400 l 1
 242 400 l 1
 157 0 l 1
 55 0 l 1
 237 860 l 1
EndSplineSet
EndChar

StartChar: j
Encoding: 106 106 114
Width: 268
VWidth: 0
Flags: W
HStem: -340 90<-126 -47.1357> 600 20G<207.735 301> 720 160<252.842 335.54>
VStem: 221 147<753.333 847.788>
LayerCount: 2
Fore
SplineSet
366 800 m 0
 356 755 317 720 277 720 c 0
 243 720 221 745 221 780 c 0
 221 786 221 793 223 800 c 0
 233 845 271 880 311 880 c 0
 345 880 368 855 368 819 c 0
 368 813 367 807 366 800 c 0
212 620 m 1
 301 620 l 1
 301 620 204 167 156 -60 c 0
 123 -213 1 -340 -145 -340 c 1
 -126 -250 l 1
 -39 -250 45 -163 67 -60 c 0
 212 620 l 1
EndSplineSet
EndChar

StartChar: D
Encoding: 68 68 115
Width: 750
VWidth: 0
Flags: W
HStem: 0 100<178 468.578> 770 90<321 574.122>
VStem: 680 112<386.618 666.366>
LayerCount: 2
Fore
SplineSet
237 860 m 1
 470 860 l 2
 693 860 792 735 792 556 c 0
 792 516 787 474 778 430 c 0
 728 196 590 0 343 0 c 2
 55 0 l 1
 237 860 l 1
321 770 m 1
 178 100 l 1
 355 100 l 2
 522 100 627 241 667 430 c 0
 675 469 680 506 680 541 c 0
 680 675 615 770 460 770 c 2
 321 770 l 1
EndSplineSet
EndChar

StartChar: E
Encoding: 69 69 116
Width: 657
VWidth: 0
Flags: W
HStem: 0 105<179 594> 400 100<263 605> 760 100<318 737>
LayerCount: 2
Fore
SplineSet
237 860 m 1
 758 860 l 1
 737 760 l 1
 318 760 l 1
 263 500 l 1
 626 500 l 1
 605 400 l 1
 242 400 l 1
 179 105 l 1
 616 105 l 1
 594 0 l 1
 55 0 l 1
 237 860 l 1
EndSplineSet
EndChar

StartChar: L
Encoding: 76 76 117
Width: 575
VWidth: 0
Flags: W
HStem: 0 100<178 557> 840 20G<232.767 340>
LayerCount: 2
Fore
SplineSet
237 860 m 1
 340 860 l 1
 178 100 l 1
 578 100 l 1
 557 0 l 1
 55 0 l 1
 237 860 l 1
EndSplineSet
EndChar

StartChar: F
Encoding: 70 70 118
Width: 602
VWidth: 0
Flags: W
HStem: 0 21G<55 161.25> 400 100<263 605> 760 100<318 737>
LayerCount: 2
Fore
SplineSet
237 860 m 1
 758 860 l 1
 737 760 l 1
 318 760 l 1
 263 500 l 1
 626 500 l 1
 605 400 l 1
 242 400 l 1
 157 0 l 1
 55 0 l 1
 237 860 l 1
EndSplineSet
EndChar

StartChar: J
Encoding: 74 74 119
Width: 583
VWidth: 0
Flags: W
HStem: -18 100<226.802 373.85>
VStem: 91 104<113.453 252>
LayerCount: 2
Fore
SplineSet
589 850 m 1
 691 850 l 1
 564 252 l 2
 531 98 413 -18 274 -18 c 0
 158 -18 91 63 91 179 c 0
 91 202 94 226 99 252 c 1
 201 252 l 1
 197 233 195 215 195 199 c 0
 195 128 230 82 295 82 c 0
 375 82 441 153 462 252 c 2
 589 850 l 1
EndSplineSet
EndChar

StartChar: T
Encoding: 84 84 120
Width: 584
VWidth: 0
Flags: W
HStem: 0 21G<237 343.263> 760 100<201 398 501 719>
LayerCount: 2
Fore
SplineSet
201 860 m 1
 740 860 l 1
 719 760 l 1
 501 760 l 1
 339 0 l 1
 237 0 l 1
 398 760 l 1
 180 760 l 1
 201 860 l 1
EndSplineSet
EndChar

StartChar: N
Encoding: 78 78 121
Width: 722
VWidth: 0
Flags: W
HStem: 0 21G<55 161.261 531.217 654.256> 840 20G<232.767 355.812 725.768 833>
LayerCount: 2
Fore
SplineSet
237 860 m 1
 349 860 l 1
 584 170 l 1
 730 860 l 1
 833 860 l 1
 650 0 l 1
 538 0 l 1
 304 690 l 1
 157 0 l 1
 55 0 l 1
 237 860 l 1
EndSplineSet
EndChar

StartChar: M
Encoding: 77 77 122
Width: 871
VWidth: 0
Flags: W
HStem: 0 21G<55 161.261 382.652 478.87 696 803.233> 840 20G<232.767 379.282 831.183 981>
LayerCount: 2
Fore
SplineSet
385 0 m 1
 304 690 l 1
 157 0 l 1
 55 0 l 1
 237 860 l 1
 377 860 l 1
 458 150 l 1
 842 860 l 1
 981 860 l 1
 799 0 l 1
 696 0 l 1
 843 690 l 1
 468 0 l 1
 385 0 l 1
EndSplineSet
EndChar

StartChar: U
Encoding: 85 85 123
Width: 741
VWidth: 0
Flags: W
HStem: -18 100<292.389 475.417>
VStem: 117 110<150.315 413.594>
LayerCount: 2
Fore
SplineSet
235 850 m 1
 342 850 l 1
 238 360 l 2
 231 327 227 295 227 266 c 0
 227 159 274 82 379 82 c 0
 513 82 606 208 638 360 c 2
 742 850 l 1
 849 850 l 1
 745 360 l 2
 698 141 563 -18 358 -18 c 0
 194 -18 117 84 117 237 c 0
 117 275 122 316 131 360 c 2
 235 850 l 1
EndSplineSet
EndChar

StartChar: b
Encoding: 98 98 124
Width: 602
VWidth: 0
Flags: W
HStem: -18 90<241.133 395.925> 0 21G<55 139.182> 548 90<338.345 487.806> 940 20G<254.75 348>
VStem: 532 92<278.5 501.401>
LayerCount: 2
Fore
SplineSet
436 638 m 0x78
 557 638 624 558 624 438 c 0
 624 413 621 386 615 358 c 2
 594 262 l 2
 559 99 443 -18 297 -18 c 0xb8
 182 -18 164 73 158 110 c 1
 135 0 l 1
 55 0 l 1
 259 960 l 1
 348 960 l 1
 256 530 l 1
 281 577 344 638 436 638 c 0x78
413 548 m 0
 326 548 242 461 220 358 c 2
 199 262 l 2
 195 245 194 229 194 213 c 0
 194 133 239 72 312 72 c 0
 399 72 481 149 505 262 c 2
 526 358 l 2
 530 377 532 395 532 412 c 0
 532 495 485 548 413 548 c 0
EndSplineSet
EndChar

StartChar: R
Encoding: 82 82 125
Width: 667
VWidth: 0
Flags: W
HStem: 0 21G<55 161.256 521.812 640> 390 90<259 479.713> 770 90<321 579.027>
VStem: 506 105<1.2872 257.873> 529 104<73.725 340.034> 619 107<574.601 731.554>
LayerCount: 2
Fore
SplineSet
237 860 m 1xe8
 498 860 l 2
 662 860 726 792 726 691 c 0xe4
 726 670 723 648 718 625 c 0
 700 539 624 468 546 430 c 1
 597 415 633 360 633 270 c 0xe8
 633 243 630 213 623 180 c 0
 614 138 611 106 611 81 c 0xf0
 611 8 640 0 640 0 c 1
 529 0 l 1xe8
 529 0 506 1 506 64 c 0xf0
 506 91 510 128 521 180 c 0
 526 204 529 227 529 248 c 0
 529 335 483 390 389 390 c 2
 240 390 l 1
 157 0 l 1
 55 0 l 1
 237 860 l 1xe8
321 770 m 1
 259 480 l 1
 426 480 l 2
 507 480 598 543 615 625 c 0
 618 637 619 649 619 661 c 0
 619 725 577 770 479 770 c 2
 321 770 l 1
EndSplineSet
EndChar

StartChar: V
Encoding: 86 86 126
Width: 761
VWidth: 0
Flags: W
HStem: 0 21G<304.535 447.953> 840 20G<201 324.027 776.459 908>
VStem: 201 121<791.849 860>
LayerCount: 2
Fore
SplineSet
201 860 m 1
 322 860 l 1
 397 120 l 1
 787 860 l 1
 908 860 l 1
 437 0 l 1
 307 0 l 1
 201 860 l 1
EndSplineSet
EndChar

StartChar: Y
Encoding: 89 89 127
Width: 678
VWidth: 0
Flags: W
HStem: 0 21G<279 394.278> 840 20G<192 327.795 698.744 843>
LayerCount: 2
Fore
SplineSet
192 860 m 1
 322 860 l 1
 435 470 l 1
 713 860 l 1
 843 860 l 1
 467 360 l 1
 390 0 l 1
 279 0 l 1
 355 360 l 1
 192 860 l 1
EndSplineSet
EndChar

StartChar: A
Encoding: 65 65 128
Width: 779
VWidth: 0
Flags: W
HStem: 0 21G<27 154.417 634.083 753> 240 90<316 604> 840 20G<505.605 631.884>
LayerCount: 2
Fore
SplineSet
517 860 m 1
 629 860 l 1
 753 0 l 1
 636 0 l 1
 613 240 l 1
 269 240 l 1
 144 0 l 1
 27 0 l 1
 517 860 l 1
547 740 m 1
 316 330 l 1
 604 330 l 1
 547 740 l 1
EndSplineSet
EndChar

StartChar: Q
Encoding: 81 81 129
Width: 779
VWidth: 0
Flags: W
HStem: -18 100<305.994 498.003> 778 100<445.646 637.38>
VStem: 110 111<175.387 425.625> 722 111<432.188 687.012>
LayerCount: 2
Fore
SplineSet
567 878 m 0
 738 878 833 768 833 605 c 0
 833 572 829 537 821 500 c 2
 792 360 l 2
 770 256 720 165 653 99 c 1
 753 -40 l 1
 662 -120 l 1
 556 27 l 1
 501 -2 441 -18 376 -18 c 0
 205 -18 110 92 110 255 c 0
 110 288 114 323 122 360 c 2
 152 500 l 2
 199 719 362 878 567 878 c 0
546 778 m 0
 412 778 291 652 259 500 c 2
 229 360 l 2
 224 335 221 310 221 287 c 0
 221 170 286 82 398 82 c 0
 433 82 468 91 500 106 c 1
 411 230 l 1
 502 310 l 1
 595 180 l 1
 638 229 671 292 685 360 c 2
 714 500 l 2
 719 525 722 550 722 574 c 0
 722 691 658 778 546 778 c 0
EndSplineSet
EndChar

StartChar: Z
Encoding: 90 90 130
Width: 722
VWidth: 0
Flags: W
HStem: 0 100<206 650> 760 100<247 672>
LayerCount: 2
Fore
SplineSet
247 860 m 1
 814 860 l 1
 793 760 l 1
 206 100 l 1
 671 100 l 1
 650 0 l 1
 55 0 l 1
 76 100 l 1
 672 760 l 1
 225 760 l 1
 247 860 l 1
EndSplineSet
EndChar

StartChar: W
Encoding: 87 87 131
Width: 993
VWidth: 0
Flags: W
HStem: 0 21G<203.93 343.143 640.397 780.558> 840 20G<201 313 620.014 712.479 1020.55 1140>
VStem: 204 106<150 860> 622 90<509.176 630> 641 88<150 278.526>
LayerCount: 2
Fore
SplineSet
629 860 m 1xf0
 712 860 l 1xf0
 729 150 l 1
 1029 860 l 1
 1140 860 l 1
 772 0 l 1
 641 0 l 1xe8
 622 630 l 1
 334 0 l 1
 204 0 l 1
 201 860 l 1
 313 860 l 1
 310 150 l 1
 629 860 l 1xf0
EndSplineSet
EndChar

StartChar: S
Encoding: 83 83 132
Width: 722
VWidth: 0
Flags: W
HStem: -18 100<262.07 493.291> 788 90<411.949 607.552>
VStem: 95 109<137.5 270> 192 110<547.02 683.59> 609 110<192.906 345.736> 658 109<600 738.781>
LayerCount: 2
Fore
SplineSet
530 878 m 0xd8
 693 878 767 787 767 669 c 0
 767 647 764 624 759 600 c 1
 652 600 l 1
 656 619 658 637 658 654 c 0
 658 737 609 788 511 788 c 0
 393 788 319 696 305 630 c 0
 303 621 302 612 302 604 c 0xd4
 302 541 360 512 468 500 c 0
 595 485 719 448 719 311 c 0
 719 292 717 272 712 250 c 0
 672 63 529 -18 349 -18 c 0
 194 -18 95 60 95 198 c 0
 95 220 98 244 103 270 c 1
 210 270 l 1
 206 252 204 235 204 220 c 0xe8
 204 131 266 82 370 82 c 0
 492 82 581 138 605 250 c 0
 608 263 609 275 609 285 c 0
 609 362 537 379 410 400 c 0
 307 417 192 452 192 577 c 0
 192 593 194 611 198 630 c 0
 222 745 336 878 530 878 c 0xd8
EndSplineSet
EndChar

StartChar: u
Encoding: 117 117 133
Width: 575
VWidth: 0
Flags: W
HStem: -12 90<232.69 386.909> 600 20G<190.801 284 549.801 643>
VStem: 110 90<108.068 337.188>
LayerCount: 2
Fore
SplineSet
195 620 m 1
 284 620 l 1
 208 258 l 2
 203 234 200 212 200 193 c 0
 200 120 235 78 304 78 c 0
 391 78 454 145 478 258 c 2
 554 620 l 1
 643 620 l 1
 567 258 l 2
 534 105 431 -12 285 -12 c 0
 167 -12 110 65 110 175 c 0
 110 201 113 229 119 258 c 2
 195 620 l 1
EndSplineSet
EndChar

StartChar: C
Encoding: 67 67 134
Width: 751
VWidth: 0
Flags: W
HStem: -18 100<298.627 495.152> 778 100<437.498 623.862>
VStem: 110 110<164.606 425.625> 633 121<213.168 270> 692 122<590 704.791>
LayerCount: 2
Fore
SplineSet
558 878 m 0xf0
 725 878 814 773 814 616 c 0
 814 607 814 599 813 590 c 1
 692 590 l 1
 692 594 692 597 692 601 c 0xe8
 692 704 638 778 536 778 c 0
 402 778 291 652 259 500 c 2
 229 360 l 2
 223 332 220 306 220 280 c 0
 220 166 278 82 388 82 c 0
 494 82 597 151 633 270 c 1
 754 270 l 1
 686 84 543 -18 367 -18 c 0
 198 -18 110 90 110 250 c 0
 110 284 114 321 122 360 c 2
 152 500 l 2
 199 719 353 878 558 878 c 0xf0
EndSplineSet
EndChar

StartChar: d
Encoding: 100 100 135
Width: 602
VWidth: 0
Flags: W
HStem: -18 90<228.194 378.537> 0 21G<449 534.25> 548 90<320.075 475.318> 940 20G<640.721 734>
VStem: 92 92<118.599 341.5>
LayerCount: 2
Fore
SplineSet
419 638 m 0xb8
 511 638 548 577 553 530 c 1
 645 960 l 1
 734 960 l 1
 530 0 l 1
 449 0 l 1x78
 473 110 l 1
 452 73 395 -18 280 -18 c 0
 159 -18 92 62 92 182 c 0
 92 207 95 234 101 262 c 2
 122 358 l 2
 157 521 273 638 419 638 c 0xb8
404 548 m 0
 317 548 235 471 211 358 c 2
 190 262 l 2
 186 243 184 225 184 208 c 0
 184 125 231 72 303 72 c 0xb8
 390 72 474 159 496 262 c 2
 517 358 l 2
 521 375 522 391 522 407 c 0
 522 487 477 548 404 548 c 0
EndSplineSet
EndChar

StartChar: G
Encoding: 71 71 136
Width: 750
VWidth: 0
Flags: W
HStem: -18 100<291.83 516.129> 360 100<469 643> 778 100<429.317 614.225>
VStem: 109 110<159.152 421.25> 682 122<590 704.791>
LayerCount: 2
Fore
SplineSet
548 878 m 0
 715 878 804 773 804 616 c 0
 804 607 804 599 803 590 c 1
 682 590 l 1
 682 594 682 598 682 601 c 0
 682 704 629 778 527 778 c 0
 393 778 291 652 259 500 c 2
 229 360 l 2
 223 330 219 301 219 273 c 0
 219 163 272 82 379 82 c 0
 514 82 577 143 600 160 c 1
 643 360 l 1
 448 360 l 1
 469 460 l 1
 766 460 l 1
 690 100 l 1
 539 0 496 -18 358 -18 c 0
 191 -18 109 87 109 244 c 0
 109 280 113 319 122 360 c 2
 152 500 l 2
 199 719 343 878 548 878 c 0
EndSplineSet
EndChar

StartChar: g
Encoding: 103 103 137
Width: 602
VWidth: 0
Flags: W
HStem: -340 90<158.298 340.424> -18 90<230.331 377.155> 548 90<320.075 474.698> 600 20G<576.818 661>
VStem: 35 92<-219.169 -91.1232> 92 92<118.331 341.5>
LayerCount: 2
Fore
SplineSet
419 638 m 0xe4
 534 638 552 547 558 510 c 1
 581 620 l 1
 661 620 l 1
 510 -90 l 2
 477 -243 379 -340 224 -340 c 0
 97 -340 35 -275 35 -167 c 0
 35 -143 38 -118 44 -90 c 1
 133 -90 l 1
 129 -110 127 -128 127 -145 c 0xd8
 127 -213 164 -250 243 -250 c 0
 341 -250 399 -193 421 -90 c 2
 459 90 l 1
 434 43 371 -18 279 -18 c 0
 159 -18 92 62 92 181 c 0
 92 206 95 233 101 262 c 2
 122 358 l 2
 157 521 273 638 419 638 c 0xe4
404 548 m 0xe4
 317 548 235 471 211 358 c 2
 190 262 l 2
 186 243 184 225 184 208 c 0
 184 125 231 72 303 72 c 0
 390 72 474 159 496 262 c 2
 516 358 l 2
 520 375 521 392 521 407 c 0
 521 487 477 548 404 548 c 0xe4
EndSplineSet
EndChar

StartChar: l
Encoding: 108 108 138
Width: 252
VWidth: 0
Flags: W
HStem: 0 21G<73 166.25> 940 20G<272.75 366>
VStem: 73 293
LayerCount: 2
Fore
SplineSet
277 960 m 1
 366 960 l 1
 162 0 l 1
 73 0 l 1
 277 960 l 1
EndSplineSet
EndChar

StartChar: n
Encoding: 110 110 139
Width: 575
VWidth: 0
Flags: W
HStem: 0 21G<55 148.242 414 507.25> 542 90<360.052 482.997> 600 20G<181.774 266>
VStem: 414 89<0 39.4909> 501 96<320.578 522.776>
LayerCount: 2
Fore
SplineSet
186 620 m 1xa8
 266 620 l 1xa8
 239 490 l 1
 261 526 340 632 457 632 c 0
 541 632 597 585 597 481 c 0xc8
 597 457 594 430 588 400 c 2
 503 0 l 1
 414 0 l 1xd0
 491 362 l 2
 498 395 501 423 501 447 c 0
 501 511 475 542 421 542 c 0xc8
 306 542 236 434 214 330 c 2
 144 0 l 1
 55 0 l 1
 186 620 l 1xa8
EndSplineSet
EndChar

StartChar: m
Encoding: 109 109 140
Width: 835
VWidth: 0
Flags: W
HStem: 0 21G<55 148.222 369 462.222 674 767.244> 542 90<336.547 433.297 638.584 741.324> 600 20G<181.774 266>
VStem: 674 89<0 39.5862> 762 97<332.812 521.289>
LayerCount: 2
Fore
SplineSet
426 632 m 0xc8
 508 632 540 562 544 490 c 1
 569 545 629 632 722 632 c 0
 802 632 859 591 859 489 c 0xc8
 859 466 856 440 850 410 c 2
 763 0 l 1
 674 0 l 1xd0
 754 380 l 2
 760 406 762 428 762 446 c 0
 762 525 718 542 681 542 c 0
 616 542 555 460 534 360 c 1
 458 0 l 1
 369 0 l 1
 449 380 l 2
 454 402 456 422 456 439 c 0
 456 516 414 542 376 542 c 0xc8
 303 542 238 443 220 360 c 2
 144 0 l 1
 55 0 l 1
 186 620 l 1
 266 620 l 1xa8
 239 490 l 1
 251 520 309 632 426 632 c 0xc8
EndSplineSet
EndChar

StartChar: q
Encoding: 113 113 141
Width: 602
VWidth: 0
Flags: W
HStem: -18 90<228.194 377.655> 548 90<320.075 474.867> 600 20G<576.818 661>
VStem: 92 92<118.599 341.5>
LayerCount: 2
Fore
SplineSet
280 -18 m 0xb0
 159 -18 92 62 92 182 c 0
 92 207 95 234 101 262 c 2
 122 358 l 2
 157 521 273 638 419 638 c 0xd0
 534 638 552 547 558 510 c 1
 581 620 l 1
 661 620 l 1
 457 -340 l 1
 368 -340 l 1
 460 90 l 1
 435 43 372 -18 280 -18 c 0xb0
303 72 m 0
 390 72 474 159 496 262 c 2
 517 358 l 2
 521 375 522 391 522 407 c 0
 522 487 477 548 404 548 c 0
 317 548 235 471 211 358 c 2
 190 262 l 2
 186 243 184 225 184 208 c 0
 184 125 231 72 303 72 c 0
EndSplineSet
EndChar

StartChar: a
Encoding: 97 97 142
Width: 574
VWidth: 0
Flags: W
HStem: -18 90<184.623 342.534> 0 21G<438.983 529> 290 80<232.131 466> 548 90<310.376 477.156>
VStem: 77 91<90.5891 229.174> 155 98<430 489.993> 437 83<0.0277328 110> 500 91<400.353 523.516>
LayerCount: 2
Fore
SplineSet
418 638 m 0xb5
 534 638 591 568 591 480 c 0xb5
 591 464 589 447 585 430 c 2
 527 160 l 2
 522 135 520 110 520 88 c 0
 520 38 529 0 529 0 c 1
 440 0 l 1x72
 440 0 437 28 437 59 c 0
 437 76 438 95 441 110 c 1
 441 110 378 -18 248 -18 c 0
 120 -18 77 50 77 125 c 0xba
 77 142 79 159 83 175 c 0
 109 299 220 370 339 370 c 2
 483 370 l 1
 496 430 l 2
 498 441 500 452 500 462 c 0
 500 513 469 548 399 548 c 0
 315 548 267 498 253 430 c 1
 155 430 l 1
 178 540 281 638 418 638 c 0xb5
322 290 m 2
 258 290 190 262 172 175 c 0
 170 164 168 154 168 145 c 0xb8
 168 90 211 72 267 72 c 0
 358 72 434 142 461 268 c 2
 466 290 l 1
 322 290 l 2
EndSplineSet
EndChar

StartChar: h
Encoding: 104 104 143
Width: 575
VWidth: 0
Flags: W
HStem: 0 21G<55 148.242 414 507.25> 542 90<361.095 482.997> 940 20G<254.75 348>
VStem: 414 89<0 39.4909> 501 96<320.578 522.776>
LayerCount: 2
Fore
SplineSet
259 960 m 1xe8
 348 960 l 1
 248 490 l 1
 270 526 340 632 457 632 c 0
 541 632 597 585 597 481 c 0xe8
 597 457 594 430 588 400 c 2
 503 0 l 1
 414 0 l 1xf0
 491 362 l 2
 498 395 501 423 501 447 c 0
 501 511 475 542 421 542 c 0
 306 542 236 434 214 330 c 2
 144 0 l 1
 55 0 l 1
 259 960 l 1xe8
EndSplineSet
EndChar

StartChar: e
Encoding: 101 101 144
Width: 584
VWidth: 0
Flags: W
HStem: -18 90<223.989 386.19> 280 90<213 516.466> 548 90<315.079 480.761>
VStem: 92 91<115.581 279.859> 517 86<370.574 509.138>
LayerCount: 2
Fore
SplineSet
423 638 m 0
 547 638 603 548 603 431 c 0
 603 402 600 371 593 340 c 2
 580 280 l 1
 194 280 l 1
 190 262 l 2
 186 241 183 221 183 203 c 0
 183 123 225 72 303 72 c 0
 378 72 423 121 463 190 c 1
 561 190 l 1
 509 71 416 -18 284 -18 c 0
 157 -18 92 61 92 179 c 0
 92 205 95 233 101 262 c 2
 122 358 l 2
 153 506 268 638 423 638 c 0
404 548 m 0
 299 548 241 463 213 370 c 1
 514 370 l 1
 516 385 517 400 517 414 c 0
 517 486 492 548 404 548 c 0
EndSplineSet
EndChar

StartChar: c
Encoding: 99 99 145
Width: 556
VWidth: 0
Flags: W
HStem: -18 90<221.594 383.651> 548 90<310.269 470.475>
VStem: 92 91<109.711 341.5> 506 93<430 512.694>
LayerCount: 2
Fore
SplineSet
419 638 m 0
 533 638 599 562 599 457 c 0
 599 448 599 439 598 430 c 1
 505 430 l 1
 505 435 506 439 506 443 c 0
 506 505 461 548 399 548 c 0
 303 548 235 471 211 358 c 2
 190 262 l 2
 185 239 183 218 183 199 c 0
 183 121 221 72 298 72 c 0
 368 72 427 116 454 190 c 1
 552 190 l 1
 508 61 402 -18 279 -18 c 0
 159 -18 92 62 92 181 c 0
 92 206 95 233 101 262 c 2
 122 358 l 2
 157 521 273 638 419 638 c 0
EndSplineSet
EndChar

StartChar: w
Encoding: 119 119 146
Width: 711
VWidth: 0
Flags: W
HStem: 0 21G<152.903 260.565 449.957 557.613> 600 20G<150 240 433.64 523 717.8 816>
VStem: 153 80<120 620> 450 71<120 460>
LayerCount: 2
Fore
SplineSet
150 620 m 1
 240 620 l 1
 233 120 l 1
 442 620 l 1
 523 620 l 1
 521 120 l 1
 726 620 l 1
 816 620 l 1
 549 0 l 1
 450 0 l 1
 449 460 l 1
 252 0 l 1
 153 0 l 1
 150 620 l 1
EndSplineSet
EndChar

StartChar: v
Encoding: 118 118 147
Width: 567
VWidth: 0
Flags: W
HStem: 0 21G<227.419 340.065> 600 20G<150 246.154 566.346 672>
LayerCount: 2
Fore
SplineSet
150 620 m 1
 244 620 l 1
 300 100 l 1
 577 620 l 1
 672 620 l 1
 329 0 l 1
 230 0 l 1
 150 620 l 1
EndSplineSet
EndChar

StartChar: z
Encoding: 122 122 148
Width: 504
VWidth: 0
Flags: W
HStem: 0 90<154 459> 530 90<177 446>
LayerCount: 2
Fore
SplineSet
177 620 m 1
 573 620 l 1
 554 530 l 1
 154 90 l 1
 478 90 l 1
 459 0 l 1
 27 0 l 1
 46 90 l 1
 446 530 l 1
 158 530 l 1
 177 620 l 1
EndSplineSet
EndChar

StartChar: y
Encoding: 121 121 149
Width: 567
VWidth: 0
Flags: W
HStem: 600 20G<150 251.465 562.374 672>
LayerCount: 2
Fore
SplineSet
150 620 m 1
 249 620 l 1
 310 125 l 1
 573 620 l 1
 672 620 l 1
 149 -340 l 1
 51 -340 l 1
 234 0 l 1
 150 620 l 1
EndSplineSet
EndChar

StartChar: r
Encoding: 114 114 150
Width: 377
VWidth: 0
Flags: W
HStem: 0 21G<64 157.214> 532 100<395.349 464> 600 20G<190.774 284>
LayerCount: 2
Fore
SplineSet
464 532 m 1xc0
 340 532 238 402 212 280 c 2
 153 0 l 1
 64 0 l 1
 195 620 l 1
 284 620 l 1xa0
 253 470 l 1
 277 525 383 632 485 632 c 1
 464 532 l 1xc0
EndSplineSet
EndChar

StartChar: numbersign
Encoding: 35 35 151
Width: 862
VWidth: 0
Flags: W
HStem: 280 90<133 252 396 498 642 849> 520 90<184 375 519 622 766 900> 940 20G<590.714 699 836.771 945>
LayerCount: 2
Fore
SplineSet
601 960 m 1
 699 960 l 1
 519 610 l 1
 668 610 l 1
 847 960 l 1
 945 960 l 1
 766 610 l 1
 919 610 l 1
 900 520 l 1
 719 520 l 1
 642 370 l 1
 868 370 l 1
 849 280 l 1
 596 280 l 1
 380 -140 l 1
 282 -140 l 1
 498 280 l 1
 349 280 l 1
 134 -140 l 1
 36 -140 l 1
 252 280 l 1
 114 280 l 1
 133 370 l 1
 298 370 l 1
 375 520 l 1
 165 520 l 1
 184 610 l 1
 421 610 l 1
 601 960 l 1
473 520 m 1
 396 370 l 1
 544 370 l 1
 622 520 l 1
 473 520 l 1
EndSplineSet
EndChar

StartChar: asterisk
Encoding: 42 42 152
Width: 426
VWidth: 0
Flags: W
HStem: 480 380
VStem: 128 372
LayerCount: 2
Fore
SplineSet
316 860 m 1
 385 860 l 1
 354 712 l 1
 494 758 l 1
 500 688 l 1
 360 642 l 1
 415 523 l 1
 351 480 l 1
 295 599 l 1
 189 480 l 1
 143 523 l 1
 248 642 l 1
 128 688 l 1
 164 758 l 1
 285 712 l 1
 316 860 l 1
EndSplineSet
EndChar

StartChar: s
Encoding: 115 115 153
Width: 556
VWidth: 0
Flags: W
HStem: -18 90<207.662 379.573> 553 85<295.601 455.907>
VStem: 80 101<98.3379 189.344> 145 91<384.685 494.916> 436 99<126.67 245.756> 481 91<430 527.519>
LayerCount: 2
Fore
SplineSet
396 638 m 0xd8
 513 638 572 566 572 476 c 0
 572 461 570 446 567 430 c 1
 478 430 l 1
 480 441 481 451 481 461 c 0
 481 514 449 553 378 553 c 0
 294 553 248 493 238 445 c 0
 237 439 236 433 236 428 c 0xd4
 236 388 273 369 345 360 c 0
 426 350 535 324 535 218 c 0
 535 207 534 194 531 180 c 0
 502 43 393 -18 266 -18 c 0
 156 -18 80 38 80 140 c 0
 80 155 82 172 86 190 c 1
 184 190 l 1
 182 180 181 170 181 161 c 0xe8
 181 105 221 72 285 72 c 0
 359 72 418 104 434 180 c 0
 435 186 436 191 436 197 c 0
 436 252 371 275 312 285 c 0
 244 297 145 311 145 407 c 0
 145 419 146 431 149 445 c 0
 167 529 259 638 396 638 c 0xd8
EndSplineSet
EndChar

StartChar: f
Encoding: 102 102 154
Width: 395
VWidth: 0
Flags: W
HStem: 0 21G<117 210.259> 540 80<159 232 338 465> 882 90<467.997 547>
LayerCount: 2
Fore
SplineSet
566 972 m 1
 547 882 l 1
 460 882 375 795 353 692 c 2
 338 620 l 1
 482 620 l 1
 465 540 l 1
 321 540 l 1
 206 0 l 1
 117 0 l 1
 232 540 l 1
 142 540 l 1
 159 620 l 1
 249 620 l 1
 264 692 l 2
 297 845 420 972 566 972 c 1
EndSplineSet
EndChar

StartChar: t
Encoding: 116 116 155
Width: 341
VWidth: 0
Flags: W
HStem: 0 21G<131 215.259> 540 80<150 245 343 438> 840 20G<308.75 394>
VStem: 131 324
LayerCount: 2
Fore
SplineSet
394 860 m 1
 343 620 l 1
 455 620 l 1
 438 540 l 1
 326 540 l 1
 211 0 l 1
 131 0 l 1
 245 540 l 1
 133 540 l 1
 150 620 l 1
 262 620 l 1
 313 860 l 1
 394 860 l 1
EndSplineSet
EndChar

StartChar: k
Encoding: 107 107 156
Width: 521
VWidth: 0
Flags: W
HStem: 0 21G<55 148.174 401.369 504> 600 20G<475.709 599> 940 20G<254.75 348>
LayerCount: 2
Fore
SplineSet
259 960 m 1
 348 960 l 1
 217 345 l 1
 496 620 l 1
 599 620 l 1
 350 380 l 1
 504 0 l 1
 409 0 l 1
 285 325 l 1
 192 230 l 1
 144 0 l 1
 55 0 l 1
 259 960 l 1
EndSplineSet
EndChar

StartChar: hyphen
Encoding: 45 45 157
Width: 592
VWidth: 0
Flags: W
HStem: 280 90<133 579>
LayerCount: 2
Fore
SplineSet
133 370 m 1
 598 370 l 1
 579 280 l 1
 114 280 l 1
 133 370 l 1
EndSplineSet
EndChar

StartChar: bar
Encoding: 124 124 158
Width: 256
VWidth: 0
Flags: W
HStem: 940 20G<272.754 370>
VStem: 1 369
LayerCount: 2
Fore
SplineSet
277 960 m 1
 370 960 l 1
 94 -340 l 1
 1 -340 l 1
 277 960 l 1
EndSplineSet
EndChar

StartChar: slash
Encoding: 47 47 159
Width: 397
VWidth: 0
Flags: W
HStem: 940 20G<529.738 638>
LayerCount: 2
Fore
SplineSet
540 960 m 1
 638 960 l 1
 -29 -340 l 1
 -127 -340 l 1
 540 960 l 1
EndSplineSet
EndChar

StartChar: colon
Encoding: 58 58 160
Width: 294
VWidth: 0
Flags: W
HStem: 0 160<121.252 208.046> 410 160<208.252 295.046>
VStem: 88 153<33.5468 126.667> 175 153<443.547 536.667>
LayerCount: 2
Fore
SplineSet
326 490 m 0xd0
 316 445 276 410 234 410 c 0
 198 410 175 435 175 471 c 0
 175 477 176 483 177 490 c 0
 187 535 226 570 268 570 c 0
 304 570 328 544 328 509 c 0
 328 503 327 497 326 490 c 0xd0
239 80 m 0
 229 35 189 0 147 0 c 0
 111 0 88 25 88 61 c 0
 88 67 89 73 90 80 c 0
 100 125 139 160 181 160 c 0
 217 160 241 134 241 99 c 0xe0
 241 93 240 87 239 80 c 0
EndSplineSet
EndChar

StartChar: backslash
Encoding: 92 92 161
Width: 397
VWidth: 0
Flags: W
HStem: 940 20G<149 248.754>
VStem: 149 212
LayerCount: 2
Fore
SplineSet
247 960 m 1
 361 -340 l 1
 264 -340 l 1
 149 960 l 1
 247 960 l 1
EndSplineSet
EndChar

StartChar: seven
Encoding: 55 55 162
Width: 611
Flags: W
HStem: 0 21G<203 319.222> 760 100<237 579>
LayerCount: 2
Fore
SplineSet
203 0 m 1
 242 180 l 2
 306 480 579 760 579 760 c 1
 216 760 l 1
 237 860 l 1
 721 860 l 1
 700 760 l 1
 700 760 418 486 353 180 c 2
 315 0 l 1
 203 0 l 1
EndSplineSet
EndChar

StartChar: exclam
Encoding: 33 33 163
Width: 276
VWidth: 0
Flags: W
HStem: 0 160<103.252 188.748> 940 20G<272.767 389>
VStem: 70 152<33.5468 126.453> 138 84<240 265.846>
LayerCount: 2
Fore
SplineSet
220 80 m 0xe0
 210 35 171 0 129 0 c 0
 93 0 70 25 70 61 c 0
 70 67 71 73 72 80 c 0
 82 125 121 160 163 160 c 0
 199 160 222 135 222 99 c 0
 222 93 221 87 220 80 c 0xe0
277 960 m 1
 389 960 l 1
 261 360 l 1
 222 240 l 1
 138 240 l 1xd0
 150 360 l 1
 277 960 l 1
EndSplineSet
EndChar

StartChar: quotedbl
Encoding: 34 34 164
Width: 387
VWidth: 0
Flags: W
HStem: 680 280<268 292 435 459>
VStem: 218 74<680 708.8> 385 74<680 708.8>
LayerCount: 2
Fore
SplineSet
268 960 m 1
 361 960 l 1
 327 800 l 1
 292 680 l 1
 218 680 l 1
 234 800 l 1
 268 960 l 1
435 960 m 1
 528 960 l 1
 494 800 l 1
 459 680 l 1
 385 680 l 1
 401 800 l 1
 435 960 l 1
EndSplineSet
EndChar

StartChar: dollar
Encoding: 36 36 165
Width: 593
Flags: W
HStem: -10 94<234 244 327 394.118> 768 94<374.95 433 516 520.83>
VStem: 82 105<124.381 250> 194 104<534.92 687.492> 486 105<170.259 319.476> 559 104<600 732.578>
LayerCount: 2
Fore
SplineSet
483 220 m 0xf8
 485 230 486 240 486 249 c 0xf8
 486 323 420 361 368 380 c 0
 269 416 194 483 194 584 c 0
 194 600 195 615 199 632 c 0
 227 763 327 847 433 862 c 1
 470 1040 l 1
 554 1040 l 1
 516 862 l 1
 620 844 663 759 663 665 c 0
 663 643 661 622 657 600 c 1
 555 600 l 1
 558 615 559 630 559 644 c 0xf4
 559 714 523 768 460 768 c 0
 378 768 317 706 301 632 c 0
 299 622 298 612 298 603 c 0
 298 525 372 490 425 470 c 0
 522 435 591 369 591 271 c 0
 591 255 589 238 585 220 c 0
 554 80 437 3 327 -10 c 1
 291 -180 l 1
 207 -180 l 1
 244 -10 l 1
 135 4 82 78 82 178 c 0
 82 201 85 225 90 250 c 1
 192 250 l 1
 188 234 187 218 187 204 c 0
 187 129 234 84 305 84 c 0
 391 84 469 152 483 220 c 0xf8
EndSplineSet
EndChar

StartChar: percent
Encoding: 37 37 166
Width: 909
VWidth: 0
Flags: W
HStem: 0 90<628.576 758.355> 310 90<664.539 794.391> 460 90<279.609 409.461> 770 90<315.645 445.424>
VStem: 172 85<572.288 709.831> 468 86<610.169 747.712> 520 86<112.288 249.831> 817 85<150.169 287.712>
LayerCount: 2
Fore
SplineSet
405 860 m 0xfd
 493 860 554 793 554 704 c 0
 554 690 552 675 549 660 c 0
 526 550 422 460 320 460 c 0
 232 460 172 527 172 616 c 0
 172 630 174 645 177 660 c 0
 200 770 303 860 405 860 c 0xfd
805 860 m 1
 907 860 l 1
 269 0 l 1
 167 0 l 1
 805 860 l 1
386 770 m 0
 329 770 273 721 260 660 c 0
 258 651 257 643 257 635 c 0
 257 586 290 550 339 550 c 0
 396 550 452 599 465 660 c 0
 467 669 468 677 468 685 c 0
 468 734 435 770 386 770 c 0
754 400 m 0
 842 400 902 333 902 244 c 0
 902 230 900 215 897 200 c 0
 874 90 771 0 669 0 c 0
 581 0 520 67 520 156 c 0xfb
 520 170 522 185 525 200 c 0
 548 310 652 400 754 400 c 0
735 310 m 0
 678 310 622 261 609 200 c 0
 607 191 606 183 606 175 c 0
 606 126 639 90 688 90 c 0
 745 90 801 139 814 200 c 0
 816 209 817 217 817 225 c 0
 817 274 784 310 735 310 c 0
EndSplineSet
EndChar

StartChar: ampersand
Encoding: 38 38 167
Width: 745
VWidth: 0
Flags: W
HStem: -18 90<247.044 439.674> 0 21G<552.037 691> 793 85<417.226 548.95>
VStem: 96 105<118.055 274.415> 262 95<566.342 730.233> 565 95<646.59 776.846> 659 102<307.604 388>
LayerCount: 2
Fore
SplineSet
509 878 m 0xbc
 599 878 660 820 660 736 c 0xbc
 660 724 659 711 656 697 c 0
 631 581 523 522 433 465 c 1
 572 201 l 1
 616 258 646 326 659 388 c 1
 761 388 l 1xba
 740 291 686 197 617 128 c 1
 691 0 l 1
 565 0 l 1x7c
 530 54 l 1
 457 6 380 -18 308 -18 c 0
 184 -18 96 60 96 173 c 0
 96 189 98 206 102 224 c 0
 125 334 237 430 318 480 c 1
 289 529 262 578 262 633 c 0
 262 646 263 659 266 672 c 0
 294 806 406 878 509 878 c 0xbc
493 793 m 0
 425 793 373 741 359 673 c 0
 357 665 357 658 357 651 c 0
 357 604 386 562 403 530 c 1
 472 573 547 624 563 697 c 0
 565 705 565 712 565 719 c 0
 565 764 534 793 493 793 c 0
351 406 m 1
 292 363 220 294 205 224 c 0
 202 212 201 200 201 189 c 0
 201 113 262 72 328 72 c 0
 385 72 444 95 494 128 c 1
 351 406 l 1
EndSplineSet
EndChar

StartChar: quotesingle
Encoding: 39 39 168
Width: 220
VWidth: 0
Flags: W
HStem: 680 280<259 283>
VStem: 208 75<680 708.8>
LayerCount: 2
Fore
SplineSet
259 960 m 1
 352 960 l 1
 318 800 l 1
 283 680 l 1
 208 680 l 1
 225 800 l 1
 259 960 l 1
EndSplineSet
EndChar

StartChar: parenleft
Encoding: 40 40 169
Width: 453
VWidth: 0
Flags: W
HStem: -340 60<293.687 346.82> 990 60<551.201 628>
VStem: 82 95<-140.12 250.442>
LayerCount: 2
Fore
SplineSet
345 -340 m 1
 151 -312 82 -168 82 22 c 0
 82 99 94 183 112 270 c 2
 148 440 l 2
 212 743 350 1010 640 1050 c 1
 628 990 l 1
 411 950 293 684 241 440 c 2
 205 270 l 2
 188 190 177 108 177 32 c 0
 177 -124 223 -253 358 -280 c 1
 345 -340 l 1
EndSplineSet
EndChar

StartChar: parenright
Encoding: 41 41 170
Width: 453
VWidth: 0
Flags: W
HStem: -340 60<-23 53.7559> 990 60<258.18 311.313>
VStem: 428 95<459.558 850.12>
LayerCount: 2
Fore
SplineSet
-36 -340 m 1
 -23 -280 l 1
 194 -240 311 26 363 270 c 2
 400 440 l 2
 417 520 428 602 428 678 c 0
 428 834 382 963 247 990 c 1
 260 1050 l 1
 454 1022 523 878 523 688 c 0
 523 611 511 527 493 440 c 2
 456 270 l 2
 392 -33 254 -300 -36 -340 c 1
EndSplineSet
EndChar

StartChar: plus
Encoding: 43 43 171
Width: 592
VWidth: 0
Flags: W
HStem: 280 90<133 300 412 579>
LayerCount: 2
Fore
SplineSet
363 575 m 1
 456 575 l 1
 412 370 l 1
 598 370 l 1
 579 280 l 1
 393 280 l 1
 350 75 l 1
 257 75 l 1
 300 280 l 1
 114 280 l 1
 133 370 l 1
 319 370 l 1
 363 575 l 1
EndSplineSet
EndChar

StartChar: comma
Encoding: 44 44 172
Width: 276
VWidth: 0
Flags: W
HStem: -150 310
VStem: 79 152<14.4069 126.667>
LayerCount: 2
Fore
SplineSet
173 160 m 0
 211 160 231 129 231 93 c 0
 231 86 230 78 228 70 c 0
 204 -44 124 -123 79 -150 c 1
 14 -150 l 1
 60 -114 120 -47 131 7 c 1
 102 7 79 29 79 63 c 0
 79 69 80 74 81 80 c 0
 91 125 131 160 173 160 c 0
EndSplineSet
EndChar

StartChar: zero
Encoding: 48 48 173
Width: 592
Flags: W
HStem: -18 100<233.724 387.796> 778 100<369.645 523.373>
VStem: 93 104<119.906 297.28> 560 104<562.273 740.094>
LayerCount: 2
Fore
SplineSet
474 878 m 0
 596 878 664 791 664 672 c 0
 664 648 661 624 656 598 c 2
 585 262 l 2
 552 107 429 -18 283 -18 c 0
 161 -18 93 69 93 188 c 0
 93 212 96 236 101 262 c 2
 173 598 l 2
 206 753 328 878 474 878 c 0
453 778 m 0
 363 778 296 697 275 598 c 2
 203 262 l 2
 199 243 197 224 197 207 c 0
 197 135 232 82 305 82 c 0
 395 82 461 163 482 262 c 2
 554 598 l 2
 558 617 560 636 560 654 c 0
 560 726 525 778 453 778 c 0
EndSplineSet
EndChar

StartChar: one
Encoding: 49 49 174
Width: 589
Flags: W
HStem: 0 21G<346 457.256> 580 100<254 363.512> 840 20G<505 636>
LayerCount: 2
Fore
SplineSet
515 860 m 1
 636 860 l 1
 453 0 l 1
 346 0 l 1
 492 683 l 1
 425 602 332 580 232 580 c 1
 254 680 l 1
 362 680 495 766 515 860 c 1
EndSplineSet
EndChar

StartChar: two
Encoding: 50 50 175
Width: 593
Flags: W
HStem: 0 100<216 538> 778 100<369.645 527.48>
VStem: 173 102<598 668.097> 562 104<559.108 741.719>
LayerCount: 2
Fore
SplineSet
474 878 m 0
 596 878 666 797 666 680 c 0
 666 657 663 633 658 608 c 0
 632 486 545 408 497 362 c 1
 216 100 l 1
 560 100 l 1
 538 0 l 1
 55 0 l 1
 76 100 l 1
 371 374 l 1
 422 423 536 514 556 608 c 0
 560 627 562 645 562 661 c 0
 562 731 526 778 453 778 c 0
 363 778 296 697 275 598 c 1
 173 598 l 1
 206 753 328 878 474 878 c 0
EndSplineSet
EndChar

StartChar: three
Encoding: 51 51 176
Width: 593
Flags: W
HStem: -18 100<225.476 397.489> 380 100<278 441.076> 628 21G<179 290.5> 778 100<366.256 528.463>
VStem: 79 105<120.682 232> 179 102<628 692.457> 489 105<173.693 330.832> 564 106<570.694 741.945>
LayerCount: 2
Fore
SplineSet
474 878 m 0xf5
 592 878 670 800 670 687 c 0xf5
 670 668 667 648 663 628 c 0
 641 526 578 464 514 430 c 1
 554 401 594 355 594 282 c 0
 594 267 592 250 588 232 c 0
 557 88 438 -18 284 -18 c 0
 153 -18 79 59 79 170 c 0
 79 190 81 211 86 232 c 1
 188 232 l 1
 185 220 184 208 184 197 c 0
 184 126 234 82 305 82 c 0
 387 82 467 141 486 232 c 0
 488 241 489 249 489 258 c 0xfa
 489 325 431 380 368 380 c 2
 257 380 l 1
 278 480 l 1
 390 480 l 2
 463 480 539 530 560 628 c 0
 563 642 564 656 564 668 c 0
 564 736 522 778 453 778 c 0
 371 778 300 719 281 628 c 1
 179 628 l 1
 210 772 336 878 474 878 c 0xf5
EndSplineSet
EndChar

StartChar: four
Encoding: 52 52 177
Width: 593
Flags: W
HStem: 0 21G<362 468.3> 200 90<205 405 526 609> 840 20G<519.933 647>
LayerCount: 2
Fore
SplineSet
526 290 m 1
 628 290 l 1
 609 200 l 1
 507 200 l 1
 464 0 l 1
 362 0 l 1
 405 200 l 1
 70 200 l 1
 83 260 l 1
 535 860 l 1
 647 860 l 1
 526 290 l 1
205 290 m 1
 424 290 l 1
 511 700 l 1
 205 290 l 1
EndSplineSet
EndChar

StartChar: five
Encoding: 53 53 178
Width: 592
Flags: W
HStem: -18 100<217.925 388.355> 442 100<311.588 452.276> 760 100<351 654>
VStem: 79 106<117.626 220> 489 104<205.467 404.094>
LayerCount: 2
Fore
SplineSet
289 860 m 1
 675 860 l 1
 654 760 l 1
 351 760 l 1
 249 463 l 1
 274 497 332 542 403 542 c 0
 525 542 593 455 593 336 c 0
 593 312 590 288 585 262 c 0
 552 107 430 -18 284 -18 c 0
 140 -18 79 62 79 171 c 0
 79 187 81 203 83 220 c 1
 185 220 l 1
 185 215 185 210 185 206 c 0
 185 121 220 82 305 82 c 0
 395 82 462 163 483 262 c 0
 487 281 489 300 489 317 c 0
 489 389 454 442 381 442 c 0
 303 442 259 393 232 350 c 1
 131 380 l 1
 289 860 l 1
EndSplineSet
EndChar

StartChar: six
Encoding: 54 54 179
Width: 592
Flags: W
HStem: -18 100<233.724 387.796> 442 100<301.311 451.873> 778 100<369.645 523.373>
VStem: 93 104<119.906 297.28> 488 105<205.467 404.094> 560 104<598 740.503>
LayerCount: 2
Fore
SplineSet
283 -18 m 0xf8
 161 -18 93 69 93 188 c 0
 93 212 96 236 101 262 c 2
 173 598 l 2
 206 753 328 878 474 878 c 0
 596 878 664 791 664 672 c 0
 664 648 661 624 656 598 c 1
 554 598 l 1
 558 617 560 636 560 654 c 0xf4
 560 726 525 778 453 778 c 0
 363 778 296 697 275 598 c 2
 249 475 l 1
 286 515 340 542 403 542 c 0
 525 542 593 455 593 336 c 0
 593 312 590 288 585 262 c 0
 552 107 429 -18 283 -18 c 0xf8
305 82 m 0
 395 82 461 163 482 262 c 0
 486 281 488 300 488 318 c 0xf8
 488 390 453 442 381 442 c 0
 291 442 224 361 203 262 c 0
 199 243 197 224 197 207 c 0
 197 135 232 82 305 82 c 0
EndSplineSet
EndChar

StartChar: eight
Encoding: 56 56 180
Width: 593
Flags: W
HStem: -18 100<217.756 400.455> 397 86<310.467 451.109> 783 95<362.775 532.123>
VStem: 70 105<125.309 287.881> 175 98<520.156 688.199> 499 106<179.914 348.704> 570 100<575.926 743.435>
LayerCount: 2
Fore
SplineSet
474 878 m 0xe8
 592 878 670 801 670 689 c 0xea
 670 670 667 650 663 630 c 0
 645 547 586 480 522 445 c 1
 562 417 605 380 605 298 c 0
 605 279 602 257 597 232 c 0
 566 88 449 -18 284 -18 c 0
 144 -18 70 59 70 170 c 0xf4
 70 190 72 210 77 232 c 0
 102 351 179 410 243 445 c 1
 203 473 175 522 175 584 c 0
 175 599 177 614 180 630 c 0
 211 774 336 878 474 878 c 0xe8
454 783 m 0
 370 783 297 725 277 630 c 0
 274 618 273 606 273 594 c 0
 273 528 317 483 390 483 c 0
 476 483 547 540 566 630 c 0
 569 644 570 657 570 669 c 0
 570 738 526 783 454 783 c 0
372 397 m 0
 282 397 198 321 179 232 c 0
 177 220 175 209 175 198 c 0
 175 127 228 82 305 82 c 0
 394 82 476 141 495 232 c 0
 498 245 499 257 499 269 c 0xf4
 499 342 450 397 372 397 c 0
EndSplineSet
EndChar

StartChar: nine
Encoding: 57 57 181
Width: 592
Flags: W
HStem: -18 100<233.724 387.796> 318 100<305.627 456.189> 778 100<369.645 523.373>
VStem: 93 104<119.759 262> 165 104<455.906 654.533> 560 104<562.273 740.094>
LayerCount: 2
Fore
SplineSet
474 878 m 0xec
 596 878 664 791 664 672 c 0
 664 648 661 624 656 598 c 2
 585 262 l 2
 552 107 429 -18 283 -18 c 0
 161 -18 93 69 93 188 c 0
 93 212 96 236 101 262 c 1
 203 262 l 1
 199 243 197 224 197 207 c 0xf4
 197 135 232 82 305 82 c 0
 395 82 461 163 482 262 c 2
 509 385 l 1
 472 345 418 318 355 318 c 0
 233 318 165 405 165 524 c 0
 165 548 168 572 173 598 c 0
 206 753 328 878 474 878 c 0xec
453 778 m 0
 363 778 296 697 275 598 c 0
 271 579 269 560 269 542 c 0xec
 269 470 304 418 376 418 c 0
 466 418 533 499 554 598 c 0
 558 617 560 636 560 654 c 0
 560 726 525 778 453 778 c 0
EndSplineSet
EndChar

StartChar: semicolon
Encoding: 59 59 182
Width: 294
VWidth: 0
Flags: W
HStem: 410 160<207.954 294.748>
VStem: 97 152<14.4069 126.667> 175 153<443.333 536.453>
LayerCount: 2
Fore
SplineSet
191 160 m 0xc0
 229 160 249 129 249 93 c 0
 249 86 248 78 246 70 c 0
 222 -44 142 -123 97 -150 c 1
 32 -150 l 1
 78 -114 138 -47 149 7 c 1
 120 7 97 29 97 63 c 0
 97 69 98 74 99 80 c 0
 109 125 149 160 191 160 c 0xc0
269 570 m 0
 305 570 328 545 328 509 c 0
 328 503 327 497 326 490 c 0
 316 445 277 410 235 410 c 0
 199 410 175 436 175 471 c 0xa0
 175 477 176 483 177 490 c 0
 187 535 227 570 269 570 c 0
EndSplineSet
EndChar

StartChar: less
Encoding: 60 60 183
Width: 518
VWidth: 0
Flags: W
LayerCount: 2
Fore
SplineSet
97 285 m 1
 114 365 l 1
 590 590 l 1
 568 490 l 1
 208 325 l 1
 498 160 l 1
 477 60 l 1
 97 285 l 1
EndSplineSet
EndChar

StartChar: equal
Encoding: 61 61 184
Width: 592
VWidth: 0
Flags: W
HStem: 160 90<108 554> 400 90<159 605>
LayerCount: 2
Fore
SplineSet
108 250 m 1
 573 250 l 1
 554 160 l 1
 89 160 l 1
 108 250 l 1
159 490 m 1
 624 490 l 1
 605 400 l 1
 140 400 l 1
 159 490 l 1
EndSplineSet
EndChar

StartChar: greater
Encoding: 62 62 185
Width: 518
VWidth: 0
Flags: W
LayerCount: 2
Fore
SplineSet
525 285 m 1
 49 60 l 1
 70 160 l 1
 431 325 l 1
 141 490 l 1
 162 590 l 1
 542 365 l 1
 525 285 l 1
EndSplineSet
EndChar

StartChar: question
Encoding: 63 63 186
Width: 583
VWidth: 0
Flags: W
HStem: 0 160<269.954 356.748> 788 90<366.187 527.423>
VStem: 164 102<600 674.856> 237 153<33.3334 126.453> 565 104<574.879 748.796>
LayerCount: 2
Fore
SplineSet
474 878 m 0xe8
 613 878 669 784 669 686 c 0
 669 667 667 648 663 630 c 0
 623 442 425 430 385 240 c 1
 301 240 l 1
 356 499 529 478 561 630 c 0
 563 641 565 654 565 666 c 0
 565 725 535 788 455 788 c 0
 358 788 290 714 266 600 c 1
 164 600 l 1
 196 750 308 878 474 878 c 0xe8
331 160 m 0
 367 160 390 135 390 99 c 0
 390 93 389 87 388 80 c 0
 378 35 339 0 297 0 c 0
 261 0 237 26 237 61 c 0xd8
 237 67 238 73 239 80 c 0
 249 125 289 160 331 160 c 0
EndSplineSet
EndChar

StartChar: at
Encoding: 64 64 187
Width: 1150
VWidth: 0
Flags: W
HStem: -340 90<386.139 726> -18 90<487.607 640.819 839.555 946.239> 548 90<576.227 737.496> 600 20G<832.778 930> 870 90<615.065 879.545>
VStem: 86 104<-44.2331 269.375> 343 96<119.349 344.5> 1074 104<348.906 664.233>
LayerCount: 2
Fore
SplineSet
770 960 m 0xdf
 1013 960 1178 777 1178 532 c 0
 1178 493 1174 452 1165 410 c 2
 1129 240 l 2
 1101 108 1005 -18 869 -18 c 0
 774 -18 742 47 738 110 c 1
 716 73 658 -18 539 -18 c 0
 413 -18 343 63 343 183 c 0
 343 208 346 234 352 262 c 2
 372 358 l 2
 407 521 526 638 678 638 c 0xef
 774 638 812 577 818 530 c 1
 837 620 l 1
 930 620 l 1
 837 180 l 2
 833 163 832 148 832 135 c 0
 832 94 850 72 888 72 c 0
 953 72 1011 168 1026 240 c 2
 1062 410 l 2
 1070 448 1074 486 1074 522 c 0
 1074 716 958 870 751 870 c 0
 505 870 296 654 244 410 c 2
 202 210 l 2
 194 172 190 134 190 98 c 0
 190 -96 306 -250 513 -250 c 2
 745 -250 l 1
 726 -340 l 1
 494 -340 l 2
 251 -340 86 -157 86 88 c 0
 86 127 90 168 99 210 c 2
 142 410 l 2
 206 713 488 960 770 960 c 0xdf
664 548 m 0
 574 548 489 471 465 358 c 2
 445 262 l 2
 441 243 439 226 439 209 c 0
 439 126 488 72 563 72 c 0
 653 72 739 159 761 262 c 2
 782 358 l 2
 785 374 787 390 787 405 c 0
 787 486 740 548 664 548 c 0
EndSplineSet
EndChar

StartChar: bracketleft
Encoding: 91 91 188
Width: 406
VWidth: 0
Flags: W
HStem: -340 85<93 261> 965 85<353 539>
LayerCount: 2
Fore
SplineSet
278 1050 m 1
 557 1050 l 1
 539 965 l 1
 353 965 l 1
 93 -255 l 1
 279 -255 l 1
 261 -340 l 1
 -18 -340 l 1
 278 1050 l 1
EndSplineSet
EndChar

StartChar: bracketright
Encoding: 93 93 189
Width: 406
VWidth: 0
Flags: W
HStem: -340 85<0 186> 965 85<278 446>
LayerCount: 2
Fore
SplineSet
557 1050 m 1
 261 -340 l 1
 -18 -340 l 1
 0 -255 l 1
 186 -255 l 1
 446 965 l 1
 260 965 l 1
 278 1050 l 1
 557 1050 l 1
EndSplineSet
EndChar

StartChar: asciicircum
Encoding: 94 94 190
Width: 501
VWidth: 0
Flags: W
HStem: 840 20G<374.652 464.87>
LayerCount: 2
Fore
SplineSet
387 860 m 1
 461 860 l 1
 550 400 l 1
 457 400 l 1
 397 730 l 1
 196 400 l 1
 103 400 l 1
 387 860 l 1
EndSplineSet
EndChar

StartChar: underscore
Encoding: 95 95 191
Width: 798
VWidth: 0
Flags: W
HStem: -90 90<27 743>
LayerCount: 2
Fore
SplineSet
27 0 m 1
 762 0 l 1
 743 -90 l 1
 8 -90 l 1
 27 0 l 1
EndSplineSet
EndChar

StartChar: grave
Encoding: 96 96 192
Width: 222
VWidth: 0
Flags: W
HStem: 780 180<296 297>
VStem: 204 166
LayerCount: 2
Fore
SplineSet
204 960 m 1
 297 960 l 1
 370 780 l 1
 296 780 l 1
 204 960 l 1
EndSplineSet
EndChar

StartChar: braceleft
Encoding: 123 123 193
Width: 463
VWidth: 0
Flags: W
HStem: -340 80<170.363 318> 970 80<419.859 597>
LayerCount: 2
Fore
SplineSet
484 1050 m 2
 614 1050 l 1
 597 970 l 1
 467 970 l 2
 434 970 403 932 396 900 c 2
 311 500 l 2
 286 383 187 355 187 355 c 1
 187 355 254 334 254 250 c 0
 254 238 252 225 249 210 c 2
 164 -190 l 2
 163 -195 162 -200 162 -206 c 0
 162 -233 177 -260 205 -260 c 2
 335 -260 l 1
 318 -340 l 1
 188 -340 l 2
 110 -340 67 -294 67 -227 c 0
 67 -215 68 -203 71 -190 c 2
 156 210 l 2
 157 216 158 223 158 229 c 0
 158 286 102 327 73 345 c 1
 78 365 l 1
 119 385 204 433 218 500 c 2
 303 900 l 2
 321 986 393 1050 484 1050 c 2
EndSplineSet
EndChar

StartChar: braceright
Encoding: 125 125 194
Width: 463
VWidth: 0
Flags: W
HStem: -340 80<-1 176.984> 970 80<278 425.637>
VStem: 434 95<862.247 963.95>
LayerCount: 2
Fore
SplineSet
408 1050 m 2
 486 1050 529 1004 529 937 c 0
 529 925 528 913 525 900 c 2
 440 500 l 2
 439 494 438 487 438 481 c 0
 438 424 494 383 523 365 c 1
 519 345 l 1
 478 325 392 277 378 210 c 2
 293 -190 l 2
 275 -276 204 -340 113 -340 c 2
 -18 -340 l 1
 -1 -260 l 1
 130 -260 l 2
 163 -260 193 -222 200 -190 c 2
 285 210 l 2
 310 327 409 355 409 355 c 1
 409 355 342 376 342 460 c 0
 342 472 344 485 347 500 c 2
 432 900 l 2
 433 905 434 910 434 916 c 0
 434 943 419 970 391 970 c 2
 261 970 l 1
 278 1050 l 1
 408 1050 l 2
EndSplineSet
EndChar

StartChar: asciitilde
Encoding: 126 126 195
Width: 592
VWidth: 0
Flags: W
HStem: 250 90<403.428 528.397> 330 90<184.424 325.158>
LayerCount: 2
Fore
SplineSet
129 350 m 1x80
 177 397 221 420 277 420 c 0x40
 376 420 399 340 469 340 c 0x80
 520 340 565 379 609 420 c 1x40
 587 318 l 1
 535 274 489 250 440 250 c 0x80
 351 250 338 330 248 330 c 0x40
 192 330 153 288 108 250 c 0
 129 350 l 1x80
EndSplineSet
EndChar

StartChar: quotedblleft
Encoding: 8220 8220 196
Width: 462
VWidth: 0
Flags: W
HStem: 650 310
VStem: 209 152<683.333 795.593> 395 152<683.333 795.593>
LayerCount: 2
Fore
SplineSet
267 650 m 0
 229 650 209 681 209 717 c 0
 209 724 210 732 212 740 c 0
 236 854 316 933 361 960 c 1
 426 960 l 1
 380 924 320 857 309 803 c 1
 338 803 361 781 361 747 c 0
 361 741 360 736 359 730 c 0
 349 685 309 650 267 650 c 0
453 650 m 0
 415 650 395 681 395 717 c 0
 395 724 396 732 398 740 c 0
 422 854 502 933 547 960 c 1
 612 960 l 1
 566 924 506 857 495 803 c 1
 524 803 547 781 547 747 c 0
 547 741 546 736 545 730 c 0
 535 685 495 650 453 650 c 0
EndSplineSet
EndChar

StartChar: quotedblright
Encoding: 8221 8221 197
Width: 462
VWidth: 0
Flags: W
HStem: 650 310
VStem: 249 152<814.407 926.667> 435 152<814.407 926.667>
LayerCount: 2
Fore
SplineSet
343 960 m 0
 381 960 401 929 401 893 c 0
 401 886 400 878 398 870 c 0
 374 756 294 677 249 650 c 1
 184 650 l 1
 230 686 290 753 301 807 c 1
 272 807 249 829 249 863 c 0
 249 869 250 874 251 880 c 0
 261 925 301 960 343 960 c 0
529 960 m 0
 567 960 587 929 587 893 c 0
 587 886 586 878 584 870 c 0
 560 756 480 677 435 650 c 1
 370 650 l 1
 416 686 476 753 487 807 c 1
 458 807 435 829 435 863 c 0
 435 869 436 874 437 880 c 0
 447 925 487 960 529 960 c 0
EndSplineSet
EndChar

StartChar: quoteleft
Encoding: 8216 8216 198
Width: 276
VWidth: 0
Flags: W
HStem: 650 310
VStem: 209 152<683.333 795.593>
LayerCount: 2
Fore
SplineSet
267 650 m 0
 229 650 209 681 209 717 c 0
 209 724 210 732 212 740 c 0
 236 854 316 933 361 960 c 1
 426 960 l 1
 380 924 320 857 309 803 c 1
 338 803 361 781 361 747 c 0
 361 741 360 736 359 730 c 0
 349 685 309 650 267 650 c 0
EndSplineSet
EndChar

StartChar: quoteright
Encoding: 8217 8217 199
Width: 276
VWidth: 0
Flags: W
HStem: 650 310
VStem: 249 152<814.407 926.667>
LayerCount: 2
Fore
SplineSet
343 960 m 0
 381 960 401 929 401 893 c 0
 401 886 400 878 398 870 c 0
 374 756 294 677 249 650 c 1
 184 650 l 1
 230 686 290 753 301 807 c 1
 272 807 249 829 249 863 c 0
 249 869 250 874 251 880 c 0
 261 925 301 960 343 960 c 0
EndSplineSet
EndChar

StartChar: afii57929
Encoding: 700 700 200
Width: 276
VWidth: 0
Flags: W
HStem: 650 310
VStem: 249 152<814.407 926.667>
LayerCount: 2
Fore
SplineSet
343 960 m 0
 381 960 401 929 401 893 c 0
 401 886 400 878 398 870 c 0
 374 756 294 677 249 650 c 1
 184 650 l 1
 230 686 290 753 301 807 c 1
 272 807 249 829 249 863 c 0
 249 869 250 874 251 880 c 0
 261 925 301 960 343 960 c 0
EndSplineSet
EndChar

StartChar: Euro
Encoding: 8364 8364 201
Width: 592
Flags: W
HStem: -18 100<436.194 516> 310 80<137 207 328 548> 470 80<172 238 367 582> 778 100<575.016 685>
VStem: 205 111<206.616 310>
LayerCount: 2
Fore
SplineSet
706 878 m 1
 685 778 l 1
 566 778 420 679 367 550 c 1
 599 550 l 1
 582 470 l 1
 345 470 l 1
 328 390 l 1
 565 390 l 1
 548 310 l 1
 316 310 l 1
 316 309 316 308 316 306 c 0
 316 179 419 82 537 82 c 1
 516 -18 l 1
 338 -18 205 102 205 277 c 0
 205 287 206 299 207 310 c 1
 120 310 l 1
 137 390 l 1
 221 390 l 1
 238 470 l 1
 155 470 l 1
 172 550 l 1
 258 550 l 1
 322 743 517 878 706 878 c 1
EndSplineSet
EndChar

StartChar: yen
Encoding: 165 165 202
Width: 594
Flags: W
HStem: 0 21G<242 357.222> 180 80<102 280 408 587> 360 80<140 302 480 625> 840 20G<192 307.821 643.667 768>
LayerCount: 2
Fore
SplineSet
192 860 m 1
 303 860 l 1
 397 470 l 1
 657 860 l 1
 768 860 l 1
 480 440 l 1
 642 440 l 1
 625 360 l 1
 430 360 l 1
 408 260 l 1
 604 260 l 1
 587 180 l 1
 391 180 l 1
 353 0 l 1
 242 0 l 1
 280 180 l 1
 85 180 l 1
 102 260 l 1
 297 260 l 1
 318 360 l 1
 123 360 l 1
 140 440 l 1
 302 440 l 1
 192 860 l 1
EndSplineSet
EndChar

StartChar: sterling
Encoding: 163 163 203
Width: 593
Flags: W
HStem: 0 90<181 548> 370 80<123 194 309 506> 788 90<415.229 542.809>
VStem: 561 103<650 771.898>
LayerCount: 2
Fore
SplineSet
297 370 m 1
 276 269 239 159 181 90 c 1
 567 90 l 1
 548 0 l 1
 27 0 l 1
 46 90 l 1
 147 154 173 283 194 370 c 1
 106 370 l 1
 123 450 l 1
 207 450 l 1
 243 620 l 1
 278 779 366 878 502 878 c 0
 614 878 664 803 664 711 c 0
 664 691 661 671 657 650 c 1
 555 650 l 1
 558 667 561 684 561 701 c 0
 561 748 543 788 483 788 c 0
 397 788 361 691 345 620 c 1
 309 450 l 1
 523 450 l 1
 506 370 l 1
 297 370 l 1
EndSplineSet
EndChar

StartChar: cent
Encoding: 162 162 204
Width: 592
Flags: W
HStem: -16 88<238.034 256 339 401.16> 548 88<329.741 394 478 480>
VStem: 109 95<106.821 335.5> 519 98<430 517.635>
LayerCount: 2
Fore
SplineSet
429 800 m 1
 513 800 l 1
 478 635 l 1
 571 621 617 553 617 461 c 0
 617 451 616 440 615 430 c 1
 518 430 l 1
 519 435 519 440 519 445 c 0
 519 506 480 548 417 548 c 0
 317 548 257 471 233 358 c 2
 212 262 l 2
 207 237 204 214 204 193 c 0
 204 119 238 72 316 72 c 0
 389 72 439 116 467 190 c 1
 569 190 l 1
 529 74 448 -2 339 -16 c 1
 304 -180 l 1
 221 -180 l 1
 256 -16 l 1
 157 -2 109 71 109 174 c 0
 109 201 112 231 119 262 c 2
 140 358 l 2
 172 507 262 618 394 636 c 1
 429 800 l 1
EndSplineSet
EndChar

StartChar: copyright
Encoding: 169 169 205
Width: 908
Flags: W
HStem: -18 70<340.338 578.89> 180 70<431.771 573.764> 615 70<498.764 639.023> 808 70<494.11 732.662>
VStem: 134 67<201.793 475.143> 332 76<274.032 486.654> 660 74<525 593.657> 872 67<384.857 658.207>
LayerCount: 2
Fore
SplineSet
632 878 m 0
 830 878 939 729 939 541 c 0
 939 505 935 468 927 430 c 0
 877 193 677 -18 441 -18 c 0
 243 -18 134 131 134 319 c 0
 134 355 138 392 146 430 c 0
 196 667 396 878 632 878 c 0
617 808 m 0
 424 808 253 629 211 430 c 0
 204 399 201 368 201 338 c 0
 201 179 293 52 456 52 c 0
 649 52 820 231 862 430 c 0
 869 461 872 492 872 522 c 0
 872 681 780 808 617 808 c 0
591 685 m 0
 682 685 734 626 734 543 c 0
 734 537 734 531 733 525 c 1
 659 525 l 1
 659 529 660 532 660 536 c 0
 660 583 624 615 576 615 c 0
 500 615 447 557 429 470 c 2
 413 395 l 2
 409 378 408 362 408 347 c 0
 408 287 437 250 498 250 c 0
 554 250 599 283 620 340 c 1
 699 340 l 1
 664 241 581 180 483 180 c 0
 387 180 332 242 332 335 c 0
 332 354 334 374 339 395 c 2
 354 470 l 2
 381 595 475 685 591 685 c 0
EndSplineSet
EndChar

StartChar: registered
Encoding: 174 174 206
Width: 908
Flags: W
HStem: -18 70<340.338 578.89> 405 60<465 596.116> 625 60<499 640.447> 808 70<494.11 732.662>
VStem: 134 67<201.793 475.143> 590 76<190.011 350.818> 603 76<249.658 396.367> 652 72<500.599 613.39> 872 67<384.857 658.207>
LayerCount: 2
Fore
SplineSet
632 878 m 0xf880
 830 878 939 729 939 541 c 0
 939 505 935 468 927 430 c 0
 877 193 677 -18 441 -18 c 0
 243 -18 134 131 134 319 c 0
 134 355 138 392 146 430 c 0
 196 667 396 878 632 878 c 0xf880
617 808 m 0
 424 808 253 629 211 430 c 0
 204 399 201 368 201 338 c 0
 201 179 293 52 456 52 c 0
 649 52 820 231 862 430 c 0
 869 461 872 492 872 522 c 0
 872 681 780 808 617 808 c 0
442 685 m 1
 591 685 l 2
 682 685 724 645 724 584 c 0xf980
 724 573 723 562 720 550 c 0
 709 498 677 457 631 435 c 1
 660 426 679 403 679 356 c 0xfa80
 679 340 677 321 672 300 c 0
 668 280 666 263 666 249 c 0
 666 206 681 190 681 190 c 1
 602 190 l 1
 602 190 590 203 590 242 c 0xfc80
 590 257 592 276 597 300 c 0
 601 318 603 334 603 347 c 0xfa80
 603 387 583 405 531 405 c 2
 452 405 l 1
 407 190 l 1
 337 190 l 1
 442 685 l 1
650 550 m 0
 651 557 652 563 652 569 c 0
 652 606 625 625 559 625 c 0
 499 625 l 1
 465 465 l 1
 553 465 l 2
 600 465 640 502 650 550 c 0
EndSplineSet
EndChar

StartChar: guillemotleft
Encoding: 171 171 207
Width: 546
Flags: W
LayerCount: 2
Fore
SplineSet
216 320 m 1
 316 90 l 1
 241 90 l 1
 122 315 l 1
 124 325 l 1
 339 550 l 1
 413 550 l 1
 216 320 l 1
402 320 m 1
 502 90 l 1
 427 90 l 1
 308 315 l 1
 310 325 l 1
 525 550 l 1
 599 550 l 1
 402 320 l 1
EndSplineSet
EndChar

StartChar: guillemotright
Encoding: 187 187 208
Width: 546
Flags: W
LayerCount: 2
Fore
SplineSet
253 320 m 1
 153 550 l 1
 228 550 l 1
 347 325 l 1
 345 315 l 1
 130 90 l 1
 56 90 l 1
 253 320 l 1
439 320 m 1
 339 550 l 1
 414 550 l 1
 533 325 l 1
 531 315 l 1
 316 90 l 1
 242 90 l 1
 439 320 l 1
EndSplineSet
EndChar

StartChar: acute
Encoding: 180 180 209
Width: 222
VWidth: 0
Flags: W
HStem: 780 180
VStem: 166 243
LayerCount: 2
Fore
SplineSet
409 960 m 1
 240 780 l 1
 166 780 l 1
 316 960 l 1
 409 960 l 1
EndSplineSet
EndChar

StartChar: exclamdown
Encoding: 161 161 210
Width: 276
VWidth: 0
Flags: W
HStem: 460 160<199.954 286.748>
VStem: 167 153<493.333 586.453>
LayerCount: 2
Fore
SplineSet
318 540 m 0
 308 495 269 460 227 460 c 0
 191 460 167 486 167 521 c 0
 167 527 168 533 169 540 c 0
 179 585 219 620 261 620 c 0
 297 620 320 595 320 559 c 0
 320 553 319 547 318 540 c 0
1 -340 m 1
 128 260 l 1
 168 380 l 1
 252 380 l 1
 240 260 l 1
 113 -340 l 1
 1 -340 l 1
EndSplineSet
EndChar

StartChar: brokenbar
Encoding: 166 166 211
Width: 256
Flags: W
HStem: 940 20G<272.759 370>
VStem: 1 369
LayerCount: 2
Fore
SplineSet
1 -340 m 1
 124 240 l 1
 217 240 l 1
 94 -340 l 1
 1 -340 l 1
247 380 m 1
 154 380 l 1
 277 960 l 1
 370 960 l 1
 247 380 l 1
EndSplineSet
EndChar

StartChar: section
Encoding: 167 167 212
Width: 722
Flags: W
HStem: -340 100<193.07 424.556> 788 90<411.949 607.552>
VStem: 26 109<-184.5 -52> 124 110<225.02 362.843> 192 110<544.869 683.59> 541 110<-129.094 23.7363> 609 110<190.706 345.736> 658 109<600 738.781>
LayerCount: 2
Fore
SplineSet
530 878 m 0xc8
 693 878 767 787 767 669 c 0
 767 647 764 624 759 600 c 1
 652 600 l 1
 656 619 658 637 658 654 c 0xc9
 658 737 609 788 511 788 c 0
 393 788 319 696 305 630 c 0
 303 621 302 612 302 604 c 0
 302 541 360 512 468 500 c 0
 595 485 719 448 719 311 c 0xca
 719 292 717 272 712 250 c 0
 697 179 666 123 625 81 c 1
 641 57 651 26 651 -12 c 0
 651 -30 649 -50 644 -72 c 0
 604 -259 460 -340 280 -340 c 0
 125 -340 26 -262 26 -124 c 0
 26 -102 29 -78 34 -52 c 1
 141 -52 l 1
 137 -70 135 -87 135 -102 c 0xe4
 135 -191 197 -240 301 -240 c 0
 423 -240 513 -184 537 -72 c 0
 540 -59 541 -48 541 -37 c 0
 541 40 468 57 341 78 c 0
 238 95 124 130 124 255 c 0xd4
 124 271 126 289 130 308 c 0
 142 365 175 426 230 474 c 1
 207 499 192 532 192 576 c 0
 192 593 194 610 198 630 c 0
 222 745 336 878 530 878 c 0xc8
314 423 m 1
 271 391 245 345 237 308 c 0
 235 299 234 290 234 282 c 0
 234 219 292 190 400 178 c 0
 453 172 504 162 547 143 c 1
 576 169 595 205 605 250 c 0
 608 263 609 275 609 285 c 0xd2
 609 362 537 379 410 400 c 0
 378 405 344 412 314 423 c 1
EndSplineSet
EndChar

StartChar: endash
Encoding: 8211 8211 214
Width: 592
VWidth: 0
Flags: W
HStem: 280 90<133 579>
LayerCount: 2
Fore
SplineSet
133 370 m 1
 598 370 l 1
 579 280 l 1
 114 280 l 1
 133 370 l 1
EndSplineSet
EndChar

StartChar: guilsinglleft
Encoding: 8249 8249 215
Width: 332
Flags: W
VStem: 122 291
LayerCount: 2
Fore
SplineSet
216 320 m 1
 316 90 l 1
 241 90 l 1
 122 315 l 1
 124 325 l 1
 339 550 l 1
 413 550 l 1
 216 320 l 1
EndSplineSet
EndChar

StartChar: guilsinglright
Encoding: 8250 8250 216
Width: 332
Flags: W
VStem: 56 291
LayerCount: 2
Fore
SplineSet
253 320 m 1
 153 550 l 1
 228 550 l 1
 347 325 l 1
 345 315 l 1
 130 90 l 1
 56 90 l 1
 253 320 l 1
EndSplineSet
EndChar

StartChar: ellipsis
Encoding: 8230 8230 217
Width: 685
VWidth: 0
Flags: W
HStem: 0 160<103.252 188.748 306.954 393.748 512.252 599.046>
VStem: 70 152<33.5468 126.453> 274 153<33.3334 126.453> 479 153<33.5468 126.667>
LayerCount: 2
Fore
SplineSet
220 80 m 0
 210 35 171 0 129 0 c 0
 93 0 70 25 70 61 c 0
 70 67 71 73 72 80 c 0
 82 125 121 160 163 160 c 0
 199 160 222 135 222 99 c 0
 222 93 221 87 220 80 c 0
425 80 m 0
 415 35 376 0 334 0 c 0
 298 0 274 26 274 61 c 0
 274 67 275 73 276 80 c 0
 286 125 326 160 368 160 c 0
 404 160 427 135 427 99 c 0
 427 93 426 87 425 80 c 0
630 80 m 0
 620 35 580 0 538 0 c 0
 502 0 479 25 479 61 c 0
 479 67 480 73 481 80 c 0
 491 125 530 160 572 160 c 0
 608 160 632 134 632 99 c 0
 632 93 631 87 630 80 c 0
EndSplineSet
EndChar

StartChar: trademark
Encoding: 8482 8482 218
Width: 648
Flags: W
HStem: 820 40<237 308 354 433>
LayerCount: 2
Fore
SplineSet
237 860 m 1
 442 860 l 1
 433 820 l 1
 354 820 l 1
 295 540 l 1
 248 540 l 1
 308 820 l 1
 229 820 l 1
 237 860 l 1
479 860 m 1
 540 860 l 1
 563 600 l 1
 698 860 l 1
 758 860 l 1
 690 540 l 1
 644 540 l 1
 695 780 l 1
 569 540 l 1
 532 540 l 1
 509 780 l 1
 458 540 l 1
 411 540 l 1
 479 860 l 1
EndSplineSet
EndChar

StartChar: emdash
Encoding: 8212 8212 219
Width: 862
VWidth: 0
Flags: W
HStem: 280 90<133 849>
LayerCount: 2
Fore
SplineSet
133 370 m 1
 868 370 l 1
 849 280 l 1
 114 280 l 1
 133 370 l 1
EndSplineSet
EndChar

StartChar: ordfeminine
Encoding: 170 170 220
Width: 332
VWidth: 0
Flags: W
HStem: 540 45<217.467 315.044> 694 40<237 363> 823 45<275.544 375.883>
VStem: 169 45<590.708 672.85> 349 41<549 604> 380 46<734 817.188>
LayerCount: 2
Fore
SplineSet
340 868 m 0xf4
 398 868 426 834 426 790 c 0xf4
 426 781 425 773 423 764 c 2
 394 629 l 2
 391 616 390 604 390 593 c 0
 390 568 395 549 395 549 c 1
 350 549 l 1
 350 549 349 561 349 576 c 0xf8
 349 585 349 596 351 604 c 1
 351 604 319 540 254 540 c 0
 190 540 169 574 169 611 c 0
 169 619 170 628 172 636 c 0
 185 698 241 734 300 734 c 2
 372 734 l 1
 378 764 l 2
 379 770 380 775 380 780 c 0
 380 806 365 823 330 823 c 0
 288 823 264 798 257 764 c 1
 208 764 l 1
 220 819 271 868 340 868 c 0xf4
291 694 m 2
 259 694 225 680 216 636 c 0
 215 631 214 626 214 622 c 0
 214 595 236 585 264 585 c 0
 310 585 348 620 361 683 c 2
 363 694 l 1
 291 694 l 2
EndSplineSet
EndChar

StartChar: uni00AD
Encoding: 173 173 221
Width: 592
VWidth: 0
Flags: W
HStem: 280 90<133 579>
LayerCount: 2
Fore
SplineSet
133 370 m 1
 598 370 l 1
 579 280 l 1
 114 280 l 1
 133 370 l 1
EndSplineSet
EndChar

StartChar: degree
Encoding: 176 176 222
Width: 305
VWidth: 0
Flags: W
HStem: 670 65<260.711 350.295> 855 65<274.705 364.289>
VStem: 193 63<739.586 835.077> 369 63<754.923 850.414>
LayerCount: 2
Fore
SplineSet
339 920 m 0
 394 920 432 879 432 823 c 0
 432 814 431 805 429 795 c 0
 414 726 350 670 286 670 c 0
 231 670 193 711 193 767 c 0
 193 776 194 785 196 795 c 0
 211 864 275 920 339 920 c 0
325 855 m 0
 294 855 264 828 257 795 c 0
 256 790 256 786 256 782 c 0
 256 755 273 735 300 735 c 0
 331 735 361 762 368 795 c 0
 369 800 369 804 369 808 c 0
 369 835 352 855 325 855 c 0
EndSplineSet
EndChar

StartChar: plusminus
Encoding: 177 177 223
Width: 592
VWidth: 0
Flags: W
HStem: 90 90<93 539> 470 90<174 341 453 620>
LayerCount: 2
Fore
SplineSet
403 765 m 1
 496 765 l 1
 453 560 l 1
 639 560 l 1
 620 470 l 1
 434 470 l 1
 390 265 l 1
 297 265 l 1
 341 470 l 1
 155 470 l 1
 174 560 l 1
 360 560 l 1
 403 765 l 1
93 180 m 1
 558 180 l 1
 539 90 l 1
 74 90 l 1
 93 180 l 1
EndSplineSet
EndChar

StartChar: uni00B2
Encoding: 178 178 224
Width: 336
Flags: W
HStem: 590 50<247 407> 978 50<308.738 410.642>
VStem: 225 50<888 942.781> 419 53<848.32 971.597>
LayerCount: 2
Fore
SplineSet
376 1028 m 0
 437 1028 472 988 472 929 c 0
 472 918 471 906 468 894 c 0
 455 832 412 794 387 770 c 1
 247 640 l 1
 418 640 l 1
 407 590 l 1
 166 590 l 1
 176 640 l 1
 324 776 l 1
 350 801 406 846 416 894 c 0
 418 903 419 912 419 920 c 0
 419 955 401 978 365 978 c 0
 319 978 286 938 275 888 c 1
 225 888 l 1
 242 966 303 1028 376 1028 c 0
EndSplineSet
EndChar

StartChar: uni00B3
Encoding: 179 179 225
Width: 342
Flags: W
HStem: 590 50<247.524 359.149> 789 50<284 375.528> 988 50<314.314 420.822>
VStem: 185 53<648.758 715> 235 51<913 960.056> 389 53<668.589 777.494> 428 52<867.252 980.881>
CounterMasks: 1 e0
LayerCount: 2
Fore
SplineSet
383 1038 m 0xea
 442 1038 480 999 480 942 c 0xea
 480 933 479 923 477 913 c 0
 466 862 435 831 403 814 c 1
 423 799 442 776 442 740 c 0
 442 732 441 724 439 715 c 0
 424 643 364 590 287 590 c 0
 221 590 185 629 185 685 c 0
 185 694 186 704 188 715 c 1
 240 715 l 1
 239 709 238 703 238 697 c 0
 238 662 263 640 298 640 c 0
 339 640 378 670 388 715 c 0
 389 719 389 723 389 727 c 0xf4
 389 761 361 789 330 789 c 2
 274 789 l 1
 284 839 l 1
 340 839 l 2
 376 839 416 864 426 913 c 0
 428 920 428 927 428 933 c 0
 428 967 407 988 372 988 c 0
 331 988 296 958 286 913 c 1
 235 913 l 1
 250 985 314 1038 383 1038 c 0xea
EndSplineSet
EndChar

StartChar: periodcentered
Encoding: 183 183 226
Width: 276
VWidth: 0
Flags: W
HStem: 245 160<155.252 240.748>
VStem: 122 152<278.547 371.453>
LayerCount: 2
Fore
SplineSet
272 325 m 0
 262 280 223 245 181 245 c 0
 145 245 122 270 122 306 c 0
 122 312 123 318 124 325 c 0
 134 370 173 405 215 405 c 0
 251 405 274 380 274 344 c 0
 274 338 273 332 272 325 c 0
EndSplineSet
EndChar

StartChar: uni00B9
Encoding: 185 185 227
Width: 262
Flags: W
HStem: 880 50<234 311.297>
VStem: 223 201
LayerCount: 2
Fore
SplineSet
365 1020 m 1
 424 1020 l 1
 333 590 l 1
 280 590 l 1
 353 932 l 1
 319 891 273 880 223 880 c 1
 234 930 l 1
 288 930 355 973 365 1020 c 1
EndSplineSet
EndChar

StartChar: ordmasculine
Encoding: 186 186 228
Width: 333
VWidth: 0
Flags: W
HStem: 540 45<235.287 338.797> 823 45<275.203 378.713>
VStem: 177 45<597.192 754> 392 45<654 810.808>
LayerCount: 2
Fore
SplineSet
342 868 m 0
 403 868 437 828 437 767 c 0
 437 755 436 742 433 728 c 0
 427 702 429 706 423 680 c 0
 406 598 345 540 272 540 c 0
 211 540 177 580 177 641 c 0
 177 653 178 666 181 680 c 0
 187 706 185 702 191 728 c 0
 208 810 269 868 342 868 c 0
332 823 m 0
 284 823 248 784 236 728 c 0
 230 702 231 706 225 680 c 0
 223 670 222 660 222 651 c 0
 222 611 243 585 282 585 c 0
 330 585 366 624 378 680 c 0
 384 706 383 702 389 728 c 0
 391 738 392 748 392 757 c 0
 392 797 371 823 332 823 c 0
EndSplineSet
EndChar

StartChar: questiondown
Encoding: 191 191 229
Width: 583
VWidth: 0
Flags: W
HStem: -18 90<223.829 382.246> 600 20G<343 447> 700 160<390.954 477.748>
VStem: 79 105<111.204 285.121> 358 153<733.333 826.453> 482 103<185.144 260>
LayerCount: 2
Fore
SplineSet
274 -18 m 0xf4
 135 -18 79 76 79 174 c 0
 79 193 81 212 85 230 c 0
 125 418 323 430 363 620 c 1
 447 620 l 1
 392 361 220 382 188 230 c 0
 186 219 184 206 184 194 c 0
 184 135 214 72 294 72 c 0
 391 72 458 146 482 260 c 1
 585 260 l 1
 553 110 440 -18 274 -18 c 0xf4
418 700 m 0
 382 700 358 726 358 761 c 0
 358 767 359 773 360 780 c 0
 370 825 410 860 452 860 c 0
 488 860 511 835 511 799 c 0xf8
 511 793 510 787 509 780 c 0
 499 735 460 700 418 700 c 0
EndSplineSet
EndChar

StartChar: dagger
Encoding: 8224 8224 230
Width: 537
VWidth: 0
Flags: W
HStem: 540 70<166 342 440 616> 840 20G<405.76 494>
LayerCount: 2
Fore
SplineSet
494 860 m 1
 440 610 l 1
 631 610 l 1
 616 540 l 1
 426 540 l 1
 238 -340 l 1
 155 -340 l 1
 342 540 l 1
 151 540 l 1
 166 610 l 1
 357 610 l 1
 410 860 l 1
 494 860 l 1
EndSplineSet
EndChar

StartChar: bullet
Encoding: 8226 8226 231
Width: 331
VWidth: 0
Flags: W
HStem: 220 210<183.501 277.499>
VStem: 131 199<273.12 376.88>
LayerCount: 2
Fore
SplineSet
328 325 m 0
 316 267 262 220 208 220 c 0
 161 220 131 255 131 302 c 0
 131 309 131 317 133 325 c 0
 145 383 199 430 253 430 c 0
 300 430 330 395 330 348 c 0
 330 341 330 333 328 325 c 0
EndSplineSet
EndChar

StartChar: uni2010
Encoding: 8208 8208 232
Width: 592
VWidth: 0
Flags: W
HStem: 280 90<133 579>
LayerCount: 2
Fore
SplineSet
133 370 m 1
 598 370 l 1
 579 280 l 1
 114 280 l 1
 133 370 l 1
EndSplineSet
EndChar

StartChar: uni2011
Encoding: 8209 8209 233
Width: 592
VWidth: 0
Flags: W
HStem: 280 90<133 579>
LayerCount: 2
Fore
SplineSet
133 370 m 1
 598 370 l 1
 579 280 l 1
 114 280 l 1
 133 370 l 1
EndSplineSet
EndChar

StartChar: perthousand
Encoding: 8240 8240 234
Width: 1337
VWidth: 0
Flags: W
HStem: 0 90<628.576 758.355 1056.58 1186.15> 310 90<664.539 794.391 1092.24 1221.89> 460 90<279.609 409.461> 770 90<315.645 445.424>
VStem: 172 85<572.288 709.831> 468 86<610.169 747.712> 520 86<112.288 249.831> 817 85<150.169 287.712> 948 86<112.288 249.831> 1244 86<150.169 287.712>
LayerCount: 2
Fore
SplineSet
405 860 m 0xfdc0
 493 860 554 793 554 704 c 0
 554 690 552 675 549 660 c 0
 526 550 422 460 320 460 c 0
 232 460 172 527 172 616 c 0
 172 630 174 645 177 660 c 0
 200 770 303 860 405 860 c 0xfdc0
805 860 m 1
 907 860 l 1
 269 0 l 1
 167 0 l 1
 805 860 l 1
386 770 m 0
 329 770 273 721 260 660 c 0
 258 651 257 643 257 635 c 0
 257 586 290 550 339 550 c 0
 396 550 452 599 465 660 c 0
 467 669 468 677 468 685 c 0
 468 734 435 770 386 770 c 0
754 400 m 0
 842 400 902 333 902 244 c 0
 902 230 900 215 897 200 c 0
 874 90 771 0 669 0 c 0
 581 0 520 67 520 156 c 0xfbc0
 520 170 522 185 525 200 c 0
 548 310 652 400 754 400 c 0
735 310 m 0
 678 310 622 261 609 200 c 0
 607 191 606 183 606 175 c 0
 606 126 639 90 688 90 c 0
 745 90 801 139 814 200 c 0
 816 209 817 217 817 225 c 0
 817 274 784 310 735 310 c 0
1182 400 m 0
 1270 400 1330 333 1330 244 c 0
 1330 230 1328 215 1325 200 c 0
 1302 90 1199 0 1097 0 c 0
 1009 0 948 67 948 156 c 0
 948 170 950 185 953 200 c 0
 976 310 1080 400 1182 400 c 0
1162 310 m 0
 1105 310 1050 261 1037 200 c 0
 1035 191 1034 183 1034 175 c 0
 1034 126 1067 90 1116 90 c 0
 1173 90 1228 139 1241 200 c 0
 1243 209 1244 217 1244 225 c 0
 1244 274 1211 310 1162 310 c 0
EndSplineSet
EndChar
